G04*
G04 #@! TF.GenerationSoftware,Altium Limited,Altium Designer,21.0.8 (223)*
G04*
G04 Layer_Color=65535*
%FSTAX24Y24*%
%MOIN*%
G70*
G04*
G04 #@! TF.SameCoordinates,8A4C6F49-4F26-47D5-9FDB-2FD25450CC73*
G04*
G04*
G04 #@! TF.FilePolarity,Positive*
G04*
G01*
G75*
%ADD10C,0.0098*%
%ADD11C,0.0200*%
%ADD12C,0.0050*%
%ADD13C,0.0150*%
%ADD14C,0.0070*%
%ADD15C,0.0079*%
%ADD16C,0.0100*%
%ADD17C,0.0060*%
%ADD18C,0.0080*%
%ADD19C,0.0040*%
%ADD20C,0.0118*%
%ADD21R,0.0600X0.0299*%
G36*
X02291Y0237D02*
X02316Y02345D01*
Y02395D01*
X02291Y0237D01*
D02*
G37*
G36*
X035981Y01559D02*
X036051D01*
Y015561D01*
X035981D01*
Y015491D01*
X035952D01*
Y015561D01*
X035881D01*
Y01559D01*
X035952D01*
Y01566D01*
X035981D01*
Y01559D01*
D02*
G37*
G36*
X019199Y058031D02*
X019269D01*
Y058002D01*
X019199D01*
Y057931D01*
X01917D01*
Y058002D01*
X0191D01*
Y058031D01*
X01917D01*
Y058101D01*
X019199D01*
Y058031D01*
D02*
G37*
G36*
X023949D02*
X024019D01*
Y058002D01*
X023949D01*
Y057931D01*
X02392D01*
Y058002D01*
X02385D01*
Y058031D01*
X02392D01*
Y058101D01*
X023949D01*
Y058031D01*
D02*
G37*
G36*
X037099Y064831D02*
X037169D01*
Y064802D01*
X037099D01*
Y064731D01*
X03707D01*
Y064802D01*
X037D01*
Y064831D01*
X03707D01*
Y064901D01*
X037099D01*
Y064831D01*
D02*
G37*
G36*
X013498Y058039D02*
X013569D01*
Y05801D01*
X013498D01*
Y05794D01*
X013469D01*
Y05801D01*
X013399D01*
Y058039D01*
X013469D01*
Y058109D01*
X013498D01*
Y058039D01*
D02*
G37*
G36*
X04238Y02368D02*
X04245D01*
Y023651D01*
X04238D01*
Y023581D01*
X042351D01*
Y023651D01*
X042281D01*
Y02368D01*
X042351D01*
Y02375D01*
X04238D01*
Y02368D01*
D02*
G37*
G36*
X031891Y01398D02*
X031961D01*
Y013951D01*
X031891D01*
Y013881D01*
X031862D01*
Y013951D01*
X031791D01*
Y01398D01*
X031862D01*
Y01405D01*
X031891D01*
Y01398D01*
D02*
G37*
G36*
X043789Y021891D02*
X043858D01*
Y021862D01*
X043789D01*
Y021791D01*
X043759D01*
Y021862D01*
X043689D01*
Y021891D01*
X043759D01*
Y021961D01*
X043789D01*
Y021891D01*
D02*
G37*
G36*
X039279Y016399D02*
X039349D01*
Y01637D01*
X039279D01*
Y0163D01*
X03925D01*
Y01637D01*
X03918D01*
Y016399D01*
X03925D01*
Y016469D01*
X039279D01*
Y016399D01*
D02*
G37*
G36*
X036041Y01303D02*
X036111D01*
Y013001D01*
X036041D01*
Y012931D01*
X036012D01*
Y013001D01*
X035941D01*
Y01303D01*
X036012D01*
Y0131D01*
X036041D01*
Y01303D01*
D02*
G37*
D10*
X054549Y063351D02*
G03*
X054549Y063351I-000049J0D01*
G01*
Y061351D02*
G03*
X054549Y061351I-000049J0D01*
G01*
Y059351D02*
G03*
X054549Y059351I-000049J0D01*
G01*
Y057351D02*
G03*
X054549Y057351I-000049J0D01*
G01*
Y055351D02*
G03*
X054549Y055351I-000049J0D01*
G01*
Y053251D02*
G03*
X054549Y053251I-000049J0D01*
G01*
Y051251D02*
G03*
X054549Y051251I-000049J0D01*
G01*
Y049251D02*
G03*
X054549Y049251I-000049J0D01*
G01*
Y047251D02*
G03*
X054549Y047251I-000049J0D01*
G01*
X054547Y045251D02*
G03*
X054547Y045251I-000049J0D01*
G01*
X054545Y043151D02*
G03*
X054545Y043151I-000049J0D01*
G01*
X054549Y041136D02*
G03*
X054549Y041136I-000049J0D01*
G01*
Y039135D02*
G03*
X054549Y039135I-000049J0D01*
G01*
Y037136D02*
G03*
X054549Y037136I-000049J0D01*
G01*
Y035136D02*
G03*
X054549Y035136I-000049J0D01*
G01*
Y033135D02*
G03*
X054549Y033135I-000049J0D01*
G01*
X054547Y031135D02*
G03*
X054547Y031135I-000049J0D01*
G01*
X054549Y029135D02*
G03*
X054549Y029135I-000049J0D01*
G01*
X028541Y056831D02*
G03*
X028541Y056831I-000049J0D01*
G01*
X028661Y062138D02*
G03*
X028661Y062138I-000049J0D01*
G01*
X012237Y059766D02*
G03*
X012237Y059766I-000049J0D01*
G01*
D11*
X04983Y0224D02*
G03*
X04983Y0224I-000014J0D01*
G01*
X019964Y021264D02*
G03*
X019964Y021264I-000014J0D01*
G01*
D12*
X05068Y02218D02*
G03*
X05092Y02218I00012J0D01*
G01*
X01973Y0204D02*
G03*
X01973Y02016I0J-00012D01*
G01*
X05404Y062452D02*
X05501D01*
X05404Y063632D02*
X05501D01*
Y062452D02*
Y063632D01*
X05404Y062452D02*
Y063632D01*
Y060452D02*
X05501D01*
X05404Y061632D02*
X05501D01*
Y060452D02*
Y061632D01*
X05404Y060452D02*
Y061632D01*
Y058452D02*
X05501D01*
X05404Y059632D02*
X05501D01*
Y058452D02*
Y059632D01*
X05404Y058452D02*
Y059632D01*
Y056452D02*
X05501D01*
X05404Y057632D02*
X05501D01*
Y056452D02*
Y057632D01*
X05404Y056452D02*
Y057632D01*
Y054452D02*
X05501D01*
X05404Y055632D02*
X05501D01*
Y054452D02*
Y055632D01*
X05404Y054452D02*
Y055632D01*
Y052352D02*
X05501D01*
X05404Y053532D02*
X05501D01*
Y052352D02*
Y053532D01*
X05404Y052352D02*
Y053532D01*
Y050352D02*
X05501D01*
X05404Y051532D02*
X05501D01*
Y050352D02*
Y051532D01*
X05404Y050352D02*
Y051532D01*
Y048352D02*
X05501D01*
X05404Y049532D02*
X05501D01*
Y048352D02*
Y049532D01*
X05404Y048352D02*
Y049532D01*
Y046352D02*
X05501D01*
X05404Y047532D02*
X05501D01*
Y046352D02*
Y047532D01*
X05404Y046352D02*
Y047532D01*
X054038Y044352D02*
X055008D01*
X054038Y045532D02*
X055008D01*
Y044352D02*
Y045532D01*
X054038Y044352D02*
Y045532D01*
X054036Y042252D02*
X055006D01*
X054036Y043432D02*
X055006D01*
Y042252D02*
Y043432D01*
X054036Y042252D02*
Y043432D01*
X05404Y040236D02*
X05501D01*
X05404Y041416D02*
X05501D01*
Y040236D02*
Y041416D01*
X05404Y040236D02*
Y041416D01*
Y038236D02*
X05501D01*
X05404Y039416D02*
X05501D01*
Y038236D02*
Y039416D01*
X05404Y038236D02*
Y039416D01*
Y036236D02*
X05501D01*
X05404Y037416D02*
X05501D01*
Y036236D02*
Y037416D01*
X05404Y036236D02*
Y037416D01*
Y034236D02*
X05501D01*
X05404Y035416D02*
X05501D01*
Y034236D02*
Y035416D01*
X05404Y034236D02*
Y035416D01*
Y032236D02*
X05501D01*
X05404Y033416D02*
X05501D01*
Y032236D02*
Y033416D01*
X05404Y032236D02*
Y033416D01*
X054038Y030236D02*
X055008D01*
X054038Y031416D02*
X055008D01*
Y030236D02*
Y031416D01*
X054038Y030236D02*
Y031416D01*
X05404Y028236D02*
X05501D01*
X05404Y029416D02*
X05501D01*
Y028236D02*
Y029416D01*
X05404Y028236D02*
Y029416D01*
X05585Y02687D02*
Y02754D01*
X05445Y02687D02*
X05585D01*
X05445D02*
Y02754D01*
X05585D01*
X0529Y02686D02*
Y02753D01*
X0543D01*
Y02686D02*
Y02753D01*
X0529Y02686D02*
X0543D01*
X05445Y02596D02*
X05585D01*
Y02663D01*
X05445D02*
X05585D01*
X05445Y02596D02*
Y02663D01*
X0529Y02596D02*
Y02663D01*
X0543D01*
Y02596D02*
Y02663D01*
X0529Y02596D02*
X0543D01*
X05445Y02491D02*
X05585D01*
Y02558D01*
X05445D02*
X05585D01*
X05445Y02491D02*
Y02558D01*
X0529Y02491D02*
Y02558D01*
X0543D01*
Y02491D02*
Y02558D01*
X0529Y02491D02*
X0543D01*
X05585Y02402D02*
Y02469D01*
X05445Y02402D02*
X05585D01*
X05445D02*
Y02469D01*
X05585D01*
X0529Y02401D02*
Y02468D01*
X0543D01*
Y02401D02*
Y02468D01*
X0529Y02401D02*
X0543D01*
X04681Y0637D02*
X04748D01*
Y0623D02*
Y0637D01*
X04681Y0623D02*
X04748D01*
X04681D02*
Y0637D01*
Y06145D02*
X04748D01*
Y06005D02*
Y06145D01*
X04681Y06005D02*
X04748D01*
X04681D02*
Y06145D01*
Y0591D02*
X04748D01*
Y0577D02*
Y0591D01*
X04681Y0577D02*
X04748D01*
X04681D02*
Y0591D01*
Y0568D02*
X04748D01*
Y0554D02*
Y0568D01*
X04681Y0554D02*
X04748D01*
X04681D02*
Y0568D01*
Y0545D02*
X04748D01*
Y0531D02*
Y0545D01*
X04681Y0531D02*
X04748D01*
X04681D02*
Y0545D01*
Y0522D02*
X04748D01*
Y0508D02*
Y0522D01*
X04681Y0508D02*
X04748D01*
X04681D02*
Y0522D01*
Y04985D02*
X04748D01*
Y04845D02*
Y04985D01*
X04681Y04845D02*
X04748D01*
X04681D02*
Y04985D01*
Y04765D02*
X04748D01*
Y04625D02*
Y04765D01*
X04681Y04625D02*
X04748D01*
X04681D02*
Y04765D01*
Y04535D02*
X04748D01*
Y04395D02*
Y04535D01*
X04681Y04395D02*
X04748D01*
X04681D02*
Y04535D01*
Y04305D02*
X04748D01*
Y04165D02*
Y04305D01*
X04681Y04165D02*
X04748D01*
X04681D02*
Y04305D01*
Y04075D02*
X04748D01*
Y03935D02*
Y04075D01*
X04681Y03935D02*
X04748D01*
X04681D02*
Y04075D01*
Y0384D02*
X04748D01*
Y037D02*
Y0384D01*
X04681Y037D02*
X04748D01*
X04681D02*
Y0384D01*
Y03615D02*
X04748D01*
Y03475D02*
Y03615D01*
X04681Y03475D02*
X04748D01*
X04681D02*
Y03615D01*
Y03385D02*
X04748D01*
Y03245D02*
Y03385D01*
X04681Y03245D02*
X04748D01*
X04681D02*
Y03385D01*
Y03155D02*
X04748D01*
Y03015D02*
Y03155D01*
X04681Y03015D02*
X04748D01*
X04681D02*
Y03155D01*
Y02925D02*
X04748D01*
Y02785D02*
Y02925D01*
X04681Y02785D02*
X04748D01*
X04681D02*
Y02925D01*
Y026934D02*
X04748D01*
Y025534D02*
Y026934D01*
X04681Y025534D02*
X04748D01*
X04681D02*
Y026934D01*
Y02465D02*
X04748D01*
Y02325D02*
Y02465D01*
X04681Y02325D02*
X04748D01*
X04681D02*
Y02465D01*
X05095Y01941D02*
X05235D01*
Y02008D01*
X05095D02*
X05235D01*
X05095Y01941D02*
Y02008D01*
X0493Y02009D02*
X0507D01*
X0493Y01942D02*
Y02009D01*
Y01942D02*
X0507D01*
Y02009D01*
X0483Y02182D02*
Y02249D01*
X0469Y02182D02*
X0483D01*
X0469D02*
Y02249D01*
X0483D01*
X0483Y02082D02*
Y02149D01*
X0469Y02082D02*
X0483D01*
X0469D02*
Y02149D01*
X0483D01*
X03005Y05129D02*
X03145D01*
X03005Y05062D02*
Y05129D01*
Y05062D02*
X03145D01*
Y05129D01*
X029855Y05062D02*
Y05129D01*
X028325Y05062D02*
X029855D01*
X028325D02*
Y05129D01*
X029855D01*
X028985Y05095D02*
X029185Y05075D01*
X028985Y05095D02*
X029185Y05115D01*
Y05075D02*
Y05115D01*
X028985Y05075D02*
Y05115D01*
X01145Y02136D02*
Y02203D01*
X01285D01*
Y02136D02*
Y02203D01*
X01145Y02136D02*
X01285D01*
X01145Y02416D02*
Y02483D01*
X01285D01*
Y02416D02*
Y02483D01*
X01145Y02416D02*
X01285D01*
X01145Y02701D02*
Y02768D01*
X01285D01*
Y02701D02*
Y02768D01*
X01145Y02701D02*
X01285D01*
X0099Y02896D02*
X01106D01*
X0099Y029593D02*
Y0299D01*
X01106D01*
Y029593D02*
Y0299D01*
Y02754D02*
Y029593D01*
X0099Y02754D02*
Y029593D01*
Y02754D02*
X01106D01*
X0099Y02326D02*
X01106D01*
X0099Y023893D02*
Y0242D01*
X01106D01*
Y023893D02*
Y0242D01*
Y02184D02*
Y023893D01*
X0099Y02184D02*
Y023893D01*
Y02184D02*
X01106D01*
X0099Y02061D02*
X01106D01*
X0099Y021243D02*
Y02155D01*
X01106D01*
Y021243D02*
Y02155D01*
Y01919D02*
Y021243D01*
X0099Y01919D02*
Y021243D01*
Y01919D02*
X01106D01*
X0099Y02606D02*
X01106D01*
X0099Y026693D02*
Y027D01*
X01106D01*
Y026693D02*
Y027D01*
Y02464D02*
Y026693D01*
X0099Y02464D02*
Y026693D01*
Y02464D02*
X01106D01*
X0119Y029745D02*
X0134D01*
X0119Y027745D02*
Y029745D01*
Y027745D02*
X0134D01*
Y029745D01*
X01199Y0269D02*
X01349D01*
X01199Y0249D02*
Y0269D01*
Y0249D02*
X01349D01*
Y0269D01*
X01199Y0241D02*
X01349D01*
X01199Y0221D02*
Y0241D01*
Y0221D02*
X01349D01*
Y0241D01*
X01199Y0213D02*
X01349D01*
X01199Y0193D02*
Y0213D01*
Y0193D02*
X01349D01*
Y0213D01*
X00875Y01561D02*
Y01628D01*
X01015D01*
Y01561D02*
Y01628D01*
X00875Y01561D02*
X01015D01*
X00906Y01555D02*
X00973D01*
Y01415D02*
Y01555D01*
X00906Y01415D02*
X00973D01*
X00906D02*
Y01555D01*
Y0181D02*
X00973D01*
Y0167D02*
Y0181D01*
X00906Y0167D02*
X00973D01*
X00906D02*
Y0181D01*
X0087Y01816D02*
Y01883D01*
X0101D01*
Y01816D02*
Y01883D01*
X0087Y01816D02*
X0101D01*
X00916Y0209D02*
X00983D01*
Y0195D02*
Y0209D01*
X00916Y0195D02*
X00983D01*
X00916D02*
Y0209D01*
Y02375D02*
X00983D01*
Y02235D02*
Y02375D01*
X00916Y02235D02*
X00983D01*
X00916D02*
Y02375D01*
Y028095D02*
Y029495D01*
Y028095D02*
X00983D01*
Y029495D01*
X00916D02*
X00983D01*
X00896Y03705D02*
X00963D01*
Y03565D02*
Y03705D01*
X00896Y03565D02*
X00963D01*
X00896D02*
Y03705D01*
Y03935D02*
X00963D01*
Y03795D02*
Y03935D01*
X00896Y03795D02*
X00963D01*
X00896D02*
Y03935D01*
Y04165D02*
X00963D01*
Y04025D02*
Y04165D01*
X00896Y04025D02*
X00963D01*
X00896D02*
Y04165D01*
Y04395D02*
X00963D01*
Y04255D02*
Y04395D01*
X00896Y04255D02*
X00963D01*
X00896D02*
Y04395D01*
Y0463D02*
X00963D01*
Y0449D02*
Y0463D01*
X00896Y0449D02*
X00963D01*
X00896D02*
Y0463D01*
Y0485D02*
X00963D01*
Y0471D02*
Y0485D01*
X00896Y0471D02*
X00963D01*
X00896D02*
Y0485D01*
X02712Y0417D02*
X02779D01*
X02712D02*
Y0431D01*
X02779D01*
Y0417D02*
Y0431D01*
X02825Y04801D02*
Y04868D01*
X02965D01*
Y04801D02*
Y04868D01*
X02825Y04801D02*
X02965D01*
X034243Y041594D02*
X034456D01*
X034243Y047106D02*
X034456D01*
X028944Y041594D02*
X029157D01*
X028944Y047106D02*
X029157D01*
X034456Y041594D02*
Y041807D01*
Y046893D02*
Y047106D01*
X028944Y041594D02*
Y041807D01*
Y046893D02*
Y047106D01*
X00896Y05405D02*
Y05545D01*
Y05405D02*
X00963D01*
Y05545D01*
X00896D02*
X00963D01*
X00896Y05175D02*
Y05315D01*
Y05175D02*
X00963D01*
Y05315D01*
X00896D02*
X00963D01*
X00896Y0509D02*
X00963D01*
Y0495D02*
Y0509D01*
X00896Y0495D02*
X00963D01*
X00896D02*
Y0509D01*
Y03475D02*
X00963D01*
Y03335D02*
Y03475D01*
X00896Y03335D02*
X00963D01*
X00896D02*
Y03475D01*
X0087Y01321D02*
Y01388D01*
X0101D01*
Y01321D02*
Y01388D01*
X0087Y01321D02*
X0101D01*
X00906Y01315D02*
X00973D01*
Y01175D02*
Y01315D01*
X00906Y01175D02*
X00973D01*
X00906D02*
Y01315D01*
X00916Y0263D02*
X00983D01*
Y0249D02*
Y0263D01*
X00916Y0249D02*
X00983D01*
X00916D02*
Y0263D01*
X0077Y04465D02*
X0081D01*
X0077Y04485D02*
X0081D01*
X0077D02*
X0079Y04465D01*
X0081Y04485D01*
X00756Y04399D02*
Y04552D01*
Y04399D02*
X00823D01*
Y04552D01*
X00756D02*
X00823D01*
X0077Y04165D02*
X0081D01*
X0077Y04185D02*
X0081D01*
X0077D02*
X0079Y04165D01*
X0081Y04185D01*
X00756Y04099D02*
Y04252D01*
Y04099D02*
X00823D01*
Y04252D01*
X00756D02*
X00823D01*
X0077Y03765D02*
X0081D01*
X0077Y03785D02*
X0081D01*
X0077D02*
X0079Y03765D01*
X0081Y03785D01*
X00756Y03699D02*
Y03852D01*
Y03699D02*
X00823D01*
Y03852D01*
X00756D02*
X00823D01*
X00837Y03115D02*
X00904D01*
X00837D02*
Y03255D01*
X00904D01*
Y03115D02*
Y03255D01*
X0077Y0336D02*
X0081D01*
X0077Y0338D02*
X0081D01*
X0077D02*
X0079Y0336D01*
X0081Y0338D01*
X00756Y03294D02*
Y03447D01*
Y03294D02*
X00823D01*
Y03447D01*
X00756D02*
X00823D01*
X0077Y02985D02*
X0081D01*
X0077Y03005D02*
X0081D01*
X0077D02*
X0079Y02985D01*
X0081Y03005D01*
X00756Y02919D02*
Y03072D01*
Y02919D02*
X00823D01*
Y03072D01*
X00756D02*
X00823D01*
X0077Y01655D02*
X0081D01*
X0077Y01675D02*
X0081D01*
X0077D02*
X0079Y01655D01*
X0081Y01675D01*
X00756Y01589D02*
Y01742D01*
Y01589D02*
X00823D01*
Y01742D01*
X00756D02*
X00823D01*
X0077Y01855D02*
X0081D01*
X0077Y01875D02*
X0081D01*
X0077D02*
X0079Y01855D01*
X0081Y01875D01*
X00756Y01789D02*
Y01942D01*
Y01789D02*
X00823D01*
Y01942D01*
X00756D02*
X00823D01*
X0077Y0206D02*
X0081D01*
X0077Y0208D02*
X0081D01*
X0077D02*
X0079Y0206D01*
X0081Y0208D01*
X00756Y01994D02*
Y02147D01*
Y01994D02*
X00823D01*
Y02147D01*
X00756D02*
X00823D01*
X0077Y02255D02*
X0081D01*
X0077Y02275D02*
X0081D01*
X0077D02*
X0079Y02255D01*
X0081Y02275D01*
X00756Y02189D02*
Y02342D01*
Y02189D02*
X00823D01*
Y02342D01*
X00756D02*
X00823D01*
X0077Y0245D02*
X0081D01*
X0077Y0247D02*
X0081D01*
X0077D02*
X0079Y0245D01*
X0081Y0247D01*
X00756Y02384D02*
Y02537D01*
Y02384D02*
X00823D01*
Y02537D01*
X00756D02*
X00823D01*
X00756Y02742D02*
X00823D01*
Y02589D02*
Y02742D01*
X00756Y02589D02*
X00823D01*
X00756D02*
Y02742D01*
X0079Y02655D02*
X0081Y02675D01*
X0077D02*
X0079Y02655D01*
X0077Y02675D02*
X0081D01*
X0077Y02655D02*
X0081D01*
X0077Y0467D02*
X0081D01*
X0077Y0469D02*
X0081D01*
X0077D02*
X0079Y0467D01*
X0081Y0469D01*
X00756Y04604D02*
Y04757D01*
Y04604D02*
X00823D01*
Y04757D01*
X00756D02*
X00823D01*
X0202Y016346D02*
X0265D01*
X0202Y009654D02*
X0265D01*
X0202Y016098D02*
Y016346D01*
Y009654D02*
Y009902D01*
X0265Y016098D02*
Y016346D01*
Y009654D02*
Y009902D01*
X027358Y05577D02*
Y05644D01*
X025958Y05577D02*
X027358D01*
X025958D02*
Y05644D01*
X027358D01*
X03082Y05682D02*
Y05749D01*
X02929Y05682D02*
X03082D01*
X02929D02*
Y05749D01*
X03082D01*
X02995Y05715D02*
X03015Y05695D01*
X02995Y05715D02*
X03015Y05735D01*
Y05695D02*
Y05735D01*
X02995Y05695D02*
Y05735D01*
X02975Y05781D02*
X03115D01*
Y05848D01*
X02975D02*
X03115D01*
X02975Y05781D02*
Y05848D01*
X00765Y0487D02*
X00805D01*
X00765Y0489D02*
X00805D01*
X00765D02*
X00785Y0487D01*
X00805Y0489D01*
X00751Y04804D02*
Y04957D01*
Y04804D02*
X00818D01*
Y04957D01*
X00751D02*
X00818D01*
X00756Y015385D02*
X00823D01*
Y013855D02*
Y015385D01*
X00756Y013855D02*
X00823D01*
X00756D02*
Y015385D01*
X0079Y014515D02*
X0081Y014715D01*
X0077D02*
X0079Y014515D01*
X0077Y014715D02*
X0081D01*
X0077Y014515D02*
X0081D01*
X01436Y01565D02*
Y01705D01*
Y01565D02*
X01503D01*
Y01705D01*
X01436D02*
X01503D01*
X01441Y0133D02*
Y0147D01*
Y0133D02*
X01508D01*
Y0147D01*
X01441D02*
X01508D01*
X01436Y01805D02*
Y01945D01*
Y01805D02*
X01503D01*
Y01945D01*
X01436D02*
X01503D01*
X01436Y02005D02*
Y02145D01*
Y02005D02*
X01503D01*
Y02145D01*
X01436D02*
X01503D01*
X01474Y04025D02*
Y04165D01*
X01407D02*
X01474D01*
X01407Y04025D02*
Y04165D01*
Y04025D02*
X01474D01*
X0077Y05685D02*
X0081D01*
X0077Y05705D02*
X0081D01*
X0077D02*
X0079Y05685D01*
X0081Y05705D01*
X00756Y05619D02*
Y05772D01*
Y05619D02*
X00823D01*
Y05772D01*
X00756D02*
X00823D01*
X0077Y05485D02*
X0081D01*
X0077Y05505D02*
X0081D01*
X0077D02*
X0079Y05485D01*
X0081Y05505D01*
X00756Y05419D02*
Y05572D01*
Y05419D02*
X00823D01*
Y05572D01*
X00756D02*
X00823D01*
X0077Y0507D02*
X0081D01*
X0077Y0509D02*
X0081D01*
X0077D02*
X0079Y0507D01*
X0081Y0509D01*
X00756Y05004D02*
Y05157D01*
Y05004D02*
X00823D01*
Y05157D01*
X00756D02*
X00823D01*
X0077Y0527D02*
X0081D01*
X0077Y0529D02*
X0081D01*
X0077D02*
X0079Y0527D01*
X0081Y0529D01*
X00756Y05204D02*
Y05357D01*
Y05204D02*
X00823D01*
Y05357D01*
X00756D02*
X00823D01*
X01407Y05405D02*
X01474D01*
X01407D02*
Y05545D01*
X01474D01*
Y05405D02*
Y05545D01*
Y0471D02*
Y0485D01*
X01407D02*
X01474D01*
X01407Y0471D02*
Y0485D01*
Y0471D02*
X01474D01*
Y0495D02*
Y0509D01*
X01407D02*
X01474D01*
X01407Y0495D02*
Y0509D01*
Y0495D02*
X01474D01*
Y04495D02*
Y04635D01*
X01407D02*
X01474D01*
X01407Y04495D02*
Y04635D01*
Y04495D02*
X01474D01*
Y04255D02*
Y04395D01*
X01407D02*
X01474D01*
X01407Y04255D02*
Y04395D01*
Y04255D02*
X01474D01*
Y05175D02*
Y05315D01*
X01407D02*
X01474D01*
X01407Y05175D02*
Y05315D01*
Y05175D02*
X01474D01*
X01436Y02565D02*
Y02705D01*
Y02565D02*
X01503D01*
Y02705D01*
X01436D02*
X01503D01*
X01145Y02991D02*
X01285D01*
Y03058D01*
X01145D02*
X01285D01*
X01145Y02991D02*
Y03058D01*
X01474Y03335D02*
Y03475D01*
X01407D02*
X01474D01*
X01407Y03335D02*
Y03475D01*
Y03335D02*
X01474D01*
Y03105D02*
Y03245D01*
X01407D02*
X01474D01*
X01407Y03105D02*
Y03245D01*
Y03105D02*
X01474D01*
Y03795D02*
Y03935D01*
X01407D02*
X01474D01*
X01407Y03795D02*
Y03935D01*
Y03795D02*
X01474D01*
Y03565D02*
Y03705D01*
X01407D02*
X01474D01*
X01407Y03565D02*
Y03705D01*
Y03565D02*
X01474D01*
X01436Y028495D02*
Y029895D01*
Y028495D02*
X01503D01*
Y029895D01*
X01436D02*
X01503D01*
X01436Y02285D02*
Y02425D01*
Y02285D02*
X01503D01*
Y02425D01*
X01436D02*
X01503D01*
X02715Y01611D02*
X02855D01*
Y01678D01*
X02715D02*
X02855D01*
X02715Y01611D02*
Y01678D01*
X02814Y0135D02*
Y0149D01*
X02747D02*
X02814D01*
X02747Y0135D02*
Y0149D01*
Y0135D02*
X02814D01*
D13*
X04905Y02439D02*
G03*
X04905Y02439I-00008J0D01*
G01*
Y02669D02*
G03*
X04905Y02669I-00008J0D01*
G01*
Y02899D02*
G03*
X04905Y02899I-00008J0D01*
G01*
Y03129D02*
G03*
X04905Y03129I-00008J0D01*
G01*
Y03359D02*
G03*
X04905Y03359I-00008J0D01*
G01*
Y03589D02*
G03*
X04905Y03589I-00008J0D01*
G01*
Y03819D02*
G03*
X04905Y03819I-00008J0D01*
G01*
Y04279D02*
G03*
X04905Y04279I-00008J0D01*
G01*
Y04509D02*
G03*
X04905Y04509I-00008J0D01*
G01*
Y04739D02*
G03*
X04905Y04739I-00008J0D01*
G01*
Y04969D02*
G03*
X04905Y04969I-00008J0D01*
G01*
Y05199D02*
G03*
X04905Y05199I-00008J0D01*
G01*
Y05429D02*
G03*
X04905Y05429I-00008J0D01*
G01*
Y05659D02*
G03*
X04905Y05659I-00008J0D01*
G01*
Y05889D02*
G03*
X04905Y05889I-00008J0D01*
G01*
Y06119D02*
G03*
X04905Y06119I-00008J0D01*
G01*
Y06349D02*
G03*
X04905Y06349I-00008J0D01*
G01*
X01115Y05524D02*
G03*
X01115Y05524I-00008J0D01*
G01*
Y05294D02*
G03*
X01115Y05294I-00008J0D01*
G01*
Y05064D02*
G03*
X01115Y05064I-00008J0D01*
G01*
Y04834D02*
G03*
X01115Y04834I-00008J0D01*
G01*
Y04604D02*
G03*
X01115Y04604I-00008J0D01*
G01*
Y04374D02*
G03*
X01115Y04374I-00008J0D01*
G01*
Y04144D02*
G03*
X01115Y04144I-00008J0D01*
G01*
Y03914D02*
G03*
X01115Y03914I-00008J0D01*
G01*
Y03684D02*
G03*
X01115Y03684I-00008J0D01*
G01*
Y03454D02*
G03*
X01115Y03454I-00008J0D01*
G01*
Y03224D02*
G03*
X01115Y03224I-00008J0D01*
G01*
X0116Y01589D02*
G03*
X0116Y01589I-00008J0D01*
G01*
X0116Y01829D02*
G03*
X0116Y01829I-00008J0D01*
G01*
Y013515D02*
G03*
X0116Y013515I-00008J0D01*
G01*
X04905Y04049D02*
G03*
X04905Y04049I-00008J0D01*
G01*
D14*
X0492Y024904D02*
G03*
X0502Y0249I0005J-000017D01*
G01*
X0492Y027204D02*
G03*
X0502Y0272I0005J-000017D01*
G01*
X0492Y029504D02*
G03*
X0502Y0295I0005J-000017D01*
G01*
X0492Y031804D02*
G03*
X0502Y0318I0005J-000017D01*
G01*
X0492Y034104D02*
G03*
X0502Y0341I0005J-000017D01*
G01*
X0492Y036404D02*
G03*
X0502Y0364I0005J-000017D01*
G01*
X0492Y038704D02*
G03*
X0502Y0387I0005J-000017D01*
G01*
X0492Y043304D02*
G03*
X0502Y0433I0005J-000017D01*
G01*
X0492Y045604D02*
G03*
X0502Y0456I0005J-000017D01*
G01*
X0492Y047904D02*
G03*
X0502Y0479I0005J-000017D01*
G01*
X0492Y050204D02*
G03*
X0502Y0502I0005J-000017D01*
G01*
X0492Y052504D02*
G03*
X0502Y0525I0005J-000017D01*
G01*
X0492Y054804D02*
G03*
X0502Y0548I0005J-000017D01*
G01*
X0492Y057104D02*
G03*
X0502Y0571I0005J-000017D01*
G01*
X0492Y059404D02*
G03*
X0502Y0594I0005J-000017D01*
G01*
X0492Y061704D02*
G03*
X0502Y0617I0005J-000017D01*
G01*
X0492Y064004D02*
G03*
X0502Y064I0005J-000017D01*
G01*
X0113Y055754D02*
G03*
X0123Y05575I0005J-000017D01*
G01*
X0113Y053454D02*
G03*
X0123Y05345I0005J-000017D01*
G01*
X0113Y051154D02*
G03*
X0123Y05115I0005J-000017D01*
G01*
X0113Y048854D02*
G03*
X0123Y04885I0005J-000017D01*
G01*
X0113Y046554D02*
G03*
X0123Y04655I0005J-000017D01*
G01*
X0113Y044254D02*
G03*
X0123Y04425I0005J-000017D01*
G01*
X0113Y041954D02*
G03*
X0123Y04195I0005J-000017D01*
G01*
X0113Y039654D02*
G03*
X0123Y03965I0005J-000017D01*
G01*
X0113Y037354D02*
G03*
X0123Y03735I0005J-000017D01*
G01*
X0113Y035054D02*
G03*
X0123Y03505I0005J-000017D01*
G01*
X0113Y032754D02*
G03*
X0123Y03275I0005J-000017D01*
G01*
X01175Y016404D02*
G03*
X01275Y0164I0005J-000017D01*
G01*
X01175Y018804D02*
G03*
X01275Y0188I0005J-000017D01*
G01*
X01175Y014029D02*
G03*
X01275Y014025I0005J-000017D01*
G01*
X0492Y041004D02*
G03*
X0502Y041I0005J-000017D01*
G01*
X0517Y0229D02*
Y0249D01*
X0477Y0229D02*
X0517D01*
X0477D02*
Y0249D01*
X05021D02*
X0517D01*
X0477D02*
X0492D01*
X0517Y0252D02*
Y0272D01*
X0477Y0252D02*
X0517D01*
X0477D02*
Y0272D01*
X05021D02*
X0517D01*
X0477D02*
X0492D01*
X0517Y0275D02*
Y0295D01*
X0477Y0275D02*
X0517D01*
X0477D02*
Y0295D01*
X05021D02*
X0517D01*
X0477D02*
X0492D01*
X0517Y0298D02*
Y0318D01*
X0477Y0298D02*
X0517D01*
X0477D02*
Y0318D01*
X05021D02*
X0517D01*
X0477D02*
X0492D01*
X0517Y0321D02*
Y0341D01*
X0477Y0321D02*
X0517D01*
X0477D02*
Y0341D01*
X05021D02*
X0517D01*
X0477D02*
X0492D01*
X0517Y0344D02*
Y0364D01*
X0477Y0344D02*
X0517D01*
X0477D02*
Y0364D01*
X05021D02*
X0517D01*
X0477D02*
X0492D01*
X0517Y0367D02*
Y0387D01*
X0477Y0367D02*
X0517D01*
X0477D02*
Y0387D01*
X05021D02*
X0517D01*
X0477D02*
X0492D01*
X0517Y0413D02*
Y0433D01*
X0477Y0413D02*
X0517D01*
X0477D02*
Y0433D01*
X05021D02*
X0517D01*
X0477D02*
X0492D01*
X0517Y0436D02*
Y0456D01*
X0477Y0436D02*
X0517D01*
X0477D02*
Y0456D01*
X05021D02*
X0517D01*
X0477D02*
X0492D01*
X0517Y0459D02*
Y0479D01*
X0477Y0459D02*
X0517D01*
X0477D02*
Y0479D01*
X05021D02*
X0517D01*
X0477D02*
X0492D01*
X0517Y0482D02*
Y0502D01*
X0477Y0482D02*
X0517D01*
X0477D02*
Y0502D01*
X05021D02*
X0517D01*
X0477D02*
X0492D01*
X0517Y0505D02*
Y0525D01*
X0477Y0505D02*
X0517D01*
X0477D02*
Y0525D01*
X05021D02*
X0517D01*
X0477D02*
X0492D01*
X0517Y0528D02*
Y0548D01*
X0477Y0528D02*
X0517D01*
X0477D02*
Y0548D01*
X05021D02*
X0517D01*
X0477D02*
X0492D01*
X0517Y0551D02*
Y0571D01*
X0477Y0551D02*
X0517D01*
X0477D02*
Y0571D01*
X05021D02*
X0517D01*
X0477D02*
X0492D01*
X0517Y0574D02*
Y0594D01*
X0477Y0574D02*
X0517D01*
X0477D02*
Y0594D01*
X05021D02*
X0517D01*
X0477D02*
X0492D01*
X0517Y0597D02*
Y0617D01*
X0477Y0597D02*
X0517D01*
X0477D02*
Y0617D01*
X05021D02*
X0517D01*
X0477D02*
X0492D01*
X0517Y062D02*
Y064D01*
X0477Y062D02*
X0517D01*
X0477D02*
Y064D01*
X05021D02*
X0517D01*
X0477D02*
X0492D01*
X0098Y05575D02*
X0113D01*
X01231D02*
X0138D01*
X0098Y05375D02*
Y05575D01*
Y05375D02*
X0138D01*
Y05575D01*
Y05145D02*
Y05345D01*
X0098Y05145D02*
X0138D01*
X0098D02*
Y05345D01*
X01231D02*
X0138D01*
X0098D02*
X0113D01*
X0138Y04915D02*
Y05115D01*
X0098Y04915D02*
X0138D01*
X0098D02*
Y05115D01*
X01231D02*
X0138D01*
X0098D02*
X0113D01*
X0138Y04685D02*
Y04885D01*
X0098Y04685D02*
X0138D01*
X0098D02*
Y04885D01*
X01231D02*
X0138D01*
X0098D02*
X0113D01*
X0138Y04455D02*
Y04655D01*
X0098Y04455D02*
X0138D01*
X0098D02*
Y04655D01*
X01231D02*
X0138D01*
X0098D02*
X0113D01*
X0138Y04225D02*
Y04425D01*
X0098Y04225D02*
X0138D01*
X0098D02*
Y04425D01*
X01231D02*
X0138D01*
X0098D02*
X0113D01*
X0138Y03995D02*
Y04195D01*
X0098Y03995D02*
X0138D01*
X0098D02*
Y04195D01*
X01231D02*
X0138D01*
X0098D02*
X0113D01*
X0098Y03965D02*
X0113D01*
X01231D02*
X0138D01*
X0098Y03765D02*
Y03965D01*
Y03765D02*
X0138D01*
Y03965D01*
Y03535D02*
Y03735D01*
X0098Y03535D02*
X0138D01*
X0098D02*
Y03735D01*
X01231D02*
X0138D01*
X0098D02*
X0113D01*
X0138Y03305D02*
Y03505D01*
X0098Y03305D02*
X0138D01*
X0098D02*
Y03505D01*
X01231D02*
X0138D01*
X0098D02*
X0113D01*
X0098Y03275D02*
X0113D01*
X01231D02*
X0138D01*
X0098Y03075D02*
Y03275D01*
Y03075D02*
X0138D01*
Y03275D01*
X01425Y0144D02*
Y0164D01*
X01025Y0144D02*
X01425D01*
X01025D02*
Y0164D01*
X01276D02*
X01425D01*
X01025D02*
X01175D01*
X01425Y0168D02*
Y0188D01*
X01025Y0168D02*
X01425D01*
X01025D02*
Y0188D01*
X01276D02*
X01425D01*
X01025D02*
X01175D01*
X01425Y012025D02*
Y014025D01*
X01025Y012025D02*
X01425D01*
X01025D02*
Y014025D01*
X01276D02*
X01425D01*
X01025D02*
X01175D01*
X040481Y009877D02*
Y010107D01*
X041759Y011575D02*
X042479D01*
X038499Y011565D02*
X039219D01*
X042481Y009865D02*
Y013847D01*
X038501D02*
X042481D01*
X038491Y013857D02*
X038501Y013847D01*
X038481Y009865D02*
Y013847D01*
Y009865D02*
X042481D01*
X038481Y013847D02*
X038491Y013857D01*
X02075Y0252D02*
X02275D01*
X02075Y0232D02*
Y0252D01*
Y0232D02*
X02175D01*
X02275D01*
Y0252D01*
X02176Y02418D02*
X02275D01*
X0477Y041D02*
X0492D01*
X05021D02*
X0517D01*
X0477Y039D02*
Y041D01*
Y039D02*
X0517D01*
Y041D01*
X0092Y0599D02*
Y0634D01*
X00895D02*
Y0664D01*
X01145Y0634D02*
Y0664D01*
X00895Y0634D02*
X01145D01*
X00895Y0664D02*
X01145D01*
X00895Y0569D02*
X01145D01*
X01125Y0599D02*
Y0634D01*
X01145Y0569D02*
Y0599D01*
X00895Y0569D02*
Y0599D01*
X01145D01*
D15*
X028023Y046712D02*
G03*
X028023Y046712I-000039J0D01*
G01*
X027326Y010244D02*
G03*
X027326Y010244I-000039J0D01*
G01*
X021262Y062088D02*
Y063348D01*
Y065592D02*
Y066812D01*
X016538Y062088D02*
Y063308D01*
Y065592D02*
Y066812D01*
X021262D01*
X016538Y062088D02*
X021262D01*
X026799Y059469D02*
X027901D01*
X026799Y056831D02*
X027901D01*
X026799D02*
Y059469D01*
X027901Y056831D02*
Y059469D01*
X026683Y065947D02*
X027569D01*
Y061853D02*
Y065947D01*
X026683Y061853D02*
X027569D01*
X034262Y061267D02*
Y065991D01*
X029538Y061267D02*
Y065991D01*
Y061267D02*
X030758D01*
X033042D02*
X034262D01*
X029538Y065991D02*
X030758D01*
X033002D02*
X034262D01*
X04965Y00937D02*
Y01155D01*
X05455D01*
X04965Y00937D02*
X05455D01*
Y01155D01*
X015997Y060809D02*
Y061695D01*
X011903Y060809D02*
X015997D01*
X011903D02*
Y061695D01*
X0181Y05105D02*
Y05323D01*
X023D01*
X0181Y05105D02*
X023D01*
Y05323D01*
X02445Y02242D02*
Y0246D01*
X02835D01*
X02445Y02242D02*
X02835D01*
Y0246D01*
X0212Y02295D02*
X02338D01*
Y01805D02*
Y02295D01*
X0212Y01805D02*
Y02295D01*
Y01805D02*
X02338D01*
D16*
X03691Y0162D02*
G03*
X03691Y0162I-00126J0D01*
G01*
X027417Y02925D02*
G03*
X027417Y02925I-000707J0D01*
G01*
X020518Y0572D02*
G03*
X020518Y0572I-001969J0D01*
G01*
X025268D02*
G03*
X025268Y0572I-001969J0D01*
G01*
X038418Y064D02*
G03*
X038418Y064I-001969J0D01*
G01*
X01506Y0574D02*
G03*
X01506Y0574I-00126J0D01*
G01*
X043605Y014102D02*
G03*
X043605Y014102I-00015J0D01*
G01*
X043052Y0242D02*
G03*
X043052Y0242I-001063J0D01*
G01*
X032563Y0145D02*
G03*
X032563Y0145I-001063J0D01*
G01*
X044302Y0215D02*
G03*
X044302Y0215I-001063J0D01*
G01*
X041395Y01575D02*
G03*
X041395Y01575I-001614J0D01*
G01*
X036713Y01355D02*
G03*
X036713Y01355I-001063J0D01*
G01*
X021317Y02925D02*
G03*
X021317Y02925I-000707J0D01*
G01*
X024407D02*
G03*
X024407Y02925I-000707J0D01*
G01*
X028Y01325D02*
X032D01*
Y008445D02*
Y0132D01*
X028Y00843D02*
Y01325D01*
Y00845D02*
X032D01*
X0022Y05385D02*
X007D01*
X0022Y04731D02*
Y05385D01*
X007Y04785D02*
Y05385D01*
Y04385D02*
Y04785D01*
X0022Y04385D02*
X00695D01*
X0022D02*
Y04731D01*
Y04385D02*
Y05385D01*
X007Y03175D02*
Y03575D01*
Y02782D02*
Y03175D01*
X0022Y02782D02*
X007D01*
X0022D02*
Y03575D01*
Y0342D02*
Y04365D01*
X007Y03575D02*
Y03975D01*
Y04365D01*
X0022D02*
X007D01*
Y01565D02*
Y01965D01*
Y01172D02*
Y01565D01*
X0022Y01172D02*
X007D01*
X0022D02*
Y01965D01*
Y0181D02*
Y02755D01*
X007Y01965D02*
Y02365D01*
Y02755D01*
X0022D02*
X007D01*
X0166Y060401D02*
Y061899D01*
Y060401D02*
X0197D01*
Y061899D01*
X0166D02*
X0197D01*
X02725Y059501D02*
Y060999D01*
Y059501D02*
X03035D01*
Y060999D01*
X02725D02*
X03035D01*
X0376Y01865D02*
Y02725D01*
X0281Y01865D02*
X0376D01*
X0281D02*
Y02725D01*
X0376D01*
X0152Y0133D02*
X0192D01*
Y008495D02*
Y01325D01*
X0152Y00848D02*
Y0133D01*
Y0085D02*
X0192D01*
X0608Y05405D02*
Y06405D01*
Y06059D02*
Y06405D01*
X05605D02*
X0608D01*
X056Y06005D02*
Y06405D01*
Y05405D02*
Y06005D01*
X0608Y05405D02*
Y06059D01*
X056Y05405D02*
X0608D01*
X056Y011834D02*
X0608D01*
X056D02*
Y015734D01*
Y019734D01*
X0608Y011834D02*
Y021284D01*
Y019734D02*
Y027664D01*
X056D02*
X0608D01*
X056Y023734D02*
Y027664D01*
Y019734D02*
Y023734D01*
Y027934D02*
X0608D01*
X056D02*
Y031834D01*
Y035834D01*
X0608Y027934D02*
Y037384D01*
Y035834D02*
Y043764D01*
X056D02*
X0608D01*
X056Y039834D02*
Y043764D01*
Y035834D02*
Y039834D01*
X0608Y04395D02*
Y05395D01*
Y05049D02*
Y05395D01*
X05605D02*
X0608D01*
X056Y04995D02*
Y05395D01*
Y04395D02*
Y04995D01*
X0608Y04395D02*
Y05049D01*
X056Y04395D02*
X0608D01*
X038639Y0263D02*
Y02665D01*
Y02375D02*
Y0241D01*
X039139D02*
Y0263D01*
X038139Y0241D02*
Y0263D01*
X039139D01*
X038139Y0241D02*
X039139D01*
X040089Y0263D02*
Y02665D01*
Y02375D02*
Y0241D01*
X040589D02*
Y0263D01*
X039589Y0241D02*
Y0263D01*
X040589D01*
X039589Y0241D02*
X040589D01*
X0022Y05395D02*
Y06395D01*
Y05395D02*
Y05741D01*
Y05395D02*
X00695D01*
X007D02*
Y05795D01*
Y06395D01*
X0022Y05741D02*
Y06395D01*
X007D01*
X040989Y0211D02*
X041989D01*
X040989Y0189D02*
X041989D01*
Y0211D01*
X040989Y0189D02*
Y0211D01*
X041489D02*
Y02145D01*
Y01855D02*
Y0189D01*
X038139D02*
X039139D01*
X038139Y0211D02*
X039139D01*
X038139Y0189D02*
Y0211D01*
X039139Y0189D02*
Y0211D01*
X038639Y01855D02*
Y0189D01*
Y0211D02*
Y02145D01*
X03005Y01595D02*
Y01695D01*
X03225Y01595D02*
Y01695D01*
X03005D02*
X03225D01*
X03005Y01595D02*
X03225D01*
X0297Y01645D02*
X03005D01*
X03225D02*
X0326D01*
X039589Y0189D02*
X040589D01*
X039589Y0211D02*
X040589D01*
X039589Y0189D02*
Y0211D01*
X040589Y0189D02*
Y0211D01*
X040089Y01855D02*
Y0189D01*
Y0211D02*
Y02145D01*
X03475Y01115D02*
Y01215D01*
X03695Y01115D02*
Y01215D01*
X03475D02*
X03695D01*
X03475Y01115D02*
X03695D01*
X0344Y01165D02*
X03475D01*
X03695D02*
X0373D01*
X03225Y01745D02*
Y01845D01*
X03005Y01745D02*
Y01845D01*
Y01745D02*
X03225D01*
X03005Y01845D02*
X03225D01*
Y01795D02*
X0326D01*
X0297D02*
X03005D01*
X03055Y0112D02*
X030683D01*
X030617D01*
Y0108D01*
X03055D01*
X030683D01*
X030883D02*
Y0112D01*
X03115Y0108D01*
Y0112D01*
X031283Y0108D02*
X031416D01*
X03135D01*
Y0112D01*
X031283Y011133D01*
X02855Y01125D02*
X028683D01*
X028617D01*
Y01085D01*
X02855D01*
X028683D01*
X028883D02*
Y01125D01*
X02915Y01085D01*
Y01125D01*
X029283Y01085D02*
X029416D01*
X02935D01*
Y01125D01*
X029283Y011183D01*
X0178Y0113D02*
X017933D01*
X017867D01*
Y0109D01*
X0178D01*
X017933D01*
X018133D02*
Y0113D01*
X0184Y0109D01*
Y0113D01*
X018533Y0109D02*
X018666D01*
X0186D01*
Y0113D01*
X018533Y011233D01*
X0157Y0113D02*
X015833D01*
X015767D01*
Y0109D01*
X0157D01*
X015833D01*
X016033D02*
Y0113D01*
X0163Y0109D01*
Y0113D01*
X016433Y0109D02*
X016566D01*
X0165D01*
Y0113D01*
X016433Y011233D01*
X027367Y0474D02*
Y047067D01*
X027433Y047D01*
X027567D01*
X027633Y047067D01*
Y0474D01*
X027767Y047333D02*
X027833Y0474D01*
X027967D01*
X028033Y047333D01*
Y047267D01*
X027967Y0472D01*
X0279D01*
X027967D01*
X028033Y047133D01*
Y047067D01*
X027967Y047D01*
X027833D01*
X027767Y047067D01*
X028433Y0474D02*
X0283Y047333D01*
X028167Y0472D01*
Y047067D01*
X028233Y047D01*
X028367D01*
X028433Y047067D01*
Y047133D01*
X028367Y0472D01*
X028167D01*
X028733Y049333D02*
X028667Y0494D01*
X028533D01*
X028467Y049333D01*
Y049067D01*
X028533Y049D01*
X028667D01*
X028733Y049067D01*
X028867Y049333D02*
X028933Y0494D01*
X029067D01*
X029133Y049333D01*
Y049267D01*
X029067Y0492D01*
X029D01*
X029067D01*
X029133Y049133D01*
Y049067D01*
X029067Y049D01*
X028933D01*
X028867Y049067D01*
X029467Y049D02*
Y0494D01*
X029267Y0492D01*
X029533D01*
X02082Y02554D02*
Y02594D01*
X02102D01*
X021087Y025873D01*
Y02574D01*
X02102Y025673D01*
X02082D01*
X02122Y02594D02*
X021486D01*
Y025873D01*
X02122Y025607D01*
Y02554D01*
X0545Y06225D02*
X054634D01*
X054567D01*
Y06185D01*
X0545D01*
X054634D01*
X0551Y062183D02*
X055033Y06225D01*
X0549D01*
X054833Y062183D01*
Y061917D01*
X0549Y06185D01*
X055033D01*
X0551Y061917D01*
X0555Y06185D02*
X055233D01*
X0555Y062117D01*
Y062183D01*
X055433Y06225D01*
X0553D01*
X055233Y062183D01*
X055633D02*
X0557Y06225D01*
X055833D01*
X0559Y062183D01*
Y062117D01*
X055833Y06205D01*
X055766D01*
X055833D01*
X0559Y061983D01*
Y061917D01*
X055833Y06185D01*
X0557D01*
X055633Y061917D01*
X013517Y021733D02*
X013783Y021467D01*
X013517D02*
X013783Y021733D01*
X013517Y0216D02*
X013783D01*
X01365Y021467D02*
Y021733D01*
X014117Y0214D02*
Y0218D01*
X013917Y0216D01*
X014183D01*
X013467Y024583D02*
X013733Y024317D01*
X013467D02*
X013733Y024583D01*
X013467Y02445D02*
X013733D01*
X0136Y024317D02*
Y024583D01*
X013867D02*
X013933Y02465D01*
X014067D01*
X014133Y024583D01*
Y024517D01*
X014067Y02445D01*
X014D01*
X014067D01*
X014133Y024383D01*
Y024317D01*
X014067Y02425D01*
X013933D01*
X013867Y024317D01*
X013467Y027433D02*
X013733Y027167D01*
X013467D02*
X013733Y027433D01*
X013467Y0273D02*
X013733D01*
X0136Y027167D02*
Y027433D01*
X014133Y0271D02*
X013867D01*
X014133Y027367D01*
Y027433D01*
X014067Y0275D01*
X013933D01*
X013867Y027433D01*
X013483Y030333D02*
X01375Y030067D01*
X013483D02*
X01375Y030333D01*
X013483Y0302D02*
X01375D01*
X013617Y030067D02*
Y030333D01*
X013883Y03D02*
X014017D01*
X01395D01*
Y0304D01*
X013883Y030333D01*
X009287Y06714D02*
X00902D01*
Y06694D01*
X009153D01*
X00902D01*
Y06674D01*
X00942D02*
X009553D01*
X009487D01*
Y06714D01*
X00942Y067073D01*
X0198Y01715D02*
Y016817D01*
X019867Y01675D01*
X02D01*
X020067Y016817D01*
Y01715D01*
X0202Y017083D02*
X020267Y01715D01*
X0204D01*
X020466Y017083D01*
Y017017D01*
X0204Y01695D01*
X020333D01*
X0204D01*
X020466Y016883D01*
Y016817D01*
X0204Y01675D01*
X020267D01*
X0202Y016817D01*
X0206Y01715D02*
X020866D01*
Y017083D01*
X0206Y016817D01*
Y01675D01*
X049117Y04785D02*
Y047517D01*
X049183Y04745D01*
X049317D01*
X049383Y047517D01*
Y04785D01*
X049517Y047783D02*
X049583Y04785D01*
X049717D01*
X049783Y047783D01*
Y047717D01*
X049717Y04765D01*
X04965D01*
X049717D01*
X049783Y047583D01*
Y047517D01*
X049717Y04745D01*
X049583D01*
X049517Y047517D01*
X050183Y04785D02*
X049917D01*
Y04765D01*
X05005Y047717D01*
X050117D01*
X050183Y04765D01*
Y047517D01*
X050117Y04745D01*
X049983D01*
X049917Y047517D01*
X049217Y02945D02*
Y029117D01*
X049283Y02905D01*
X049417D01*
X049483Y029117D01*
Y02945D01*
X049617Y029383D02*
X049683Y02945D01*
X049817D01*
X049883Y029383D01*
Y029317D01*
X049817Y02925D01*
X04975D01*
X049817D01*
X049883Y029183D01*
Y029117D01*
X049817Y02905D01*
X049683D01*
X049617Y029117D01*
X050217Y02905D02*
Y02945D01*
X050017Y02925D01*
X050283D01*
X049167Y0502D02*
Y049867D01*
X049233Y0498D01*
X049367D01*
X049433Y049867D01*
Y0502D01*
X049567Y050133D02*
X049633Y0502D01*
X049767D01*
X049833Y050133D01*
Y050067D01*
X049767Y05D01*
X0497D01*
X049767D01*
X049833Y049933D01*
Y049867D01*
X049767Y0498D01*
X049633D01*
X049567Y049867D01*
X049967Y050133D02*
X050033Y0502D01*
X050167D01*
X050233Y050133D01*
Y050067D01*
X050167Y05D01*
X0501D01*
X050167D01*
X050233Y049933D01*
Y049867D01*
X050167Y0498D01*
X050033D01*
X049967Y049867D01*
X049167Y0318D02*
Y031467D01*
X049233Y0314D01*
X049367D01*
X049433Y031467D01*
Y0318D01*
X049567Y031733D02*
X049633Y0318D01*
X049767D01*
X049833Y031733D01*
Y031667D01*
X049767Y0316D01*
X0497D01*
X049767D01*
X049833Y031533D01*
Y031467D01*
X049767Y0314D01*
X049633D01*
X049567Y031467D01*
X050233Y0314D02*
X049967D01*
X050233Y031667D01*
Y031733D01*
X050167Y0318D01*
X050033D01*
X049967Y031733D01*
X049283Y0525D02*
Y052167D01*
X04935Y0521D01*
X049483D01*
X04955Y052167D01*
Y0525D01*
X049683Y052433D02*
X04975Y0525D01*
X049883D01*
X04995Y052433D01*
Y052367D01*
X049883Y0523D01*
X049817D01*
X049883D01*
X04995Y052233D01*
Y052167D01*
X049883Y0521D01*
X04975D01*
X049683Y052167D01*
X050083Y0521D02*
X050217D01*
X05015D01*
Y0525D01*
X050083Y052433D01*
X049117Y03405D02*
Y033717D01*
X049183Y03365D01*
X049317D01*
X049383Y033717D01*
Y03405D01*
X049517Y033983D02*
X049583Y03405D01*
X049717D01*
X049783Y033983D01*
Y033917D01*
X049717Y03385D01*
X04965D01*
X049717D01*
X049783Y033783D01*
Y033717D01*
X049717Y03365D01*
X049583D01*
X049517Y033717D01*
X049917Y033983D02*
X049983Y03405D01*
X050117D01*
X050183Y033983D01*
Y033717D01*
X050117Y03365D01*
X049983D01*
X049917Y033717D01*
Y033983D01*
X049117Y0548D02*
Y054467D01*
X049183Y0544D01*
X049317D01*
X049383Y054467D01*
Y0548D01*
X049783Y0544D02*
X049517D01*
X049783Y054667D01*
Y054733D01*
X049717Y0548D01*
X049583D01*
X049517Y054733D01*
X049917Y054467D02*
X049983Y0544D01*
X050117D01*
X050183Y054467D01*
Y054733D01*
X050117Y0548D01*
X049983D01*
X049917Y054733D01*
Y054667D01*
X049983Y0546D01*
X050183D01*
X049117Y03635D02*
Y036017D01*
X049183Y03595D01*
X049317D01*
X049383Y036017D01*
Y03635D01*
X049783Y03595D02*
X049517D01*
X049783Y036217D01*
Y036283D01*
X049717Y03635D01*
X049583D01*
X049517Y036283D01*
X049917D02*
X049983Y03635D01*
X050117D01*
X050183Y036283D01*
Y036217D01*
X050117Y03615D01*
X050183Y036083D01*
Y036017D01*
X050117Y03595D01*
X049983D01*
X049917Y036017D01*
Y036083D01*
X049983Y03615D01*
X049917Y036217D01*
Y036283D01*
X049983Y03615D02*
X050117D01*
X049217Y05715D02*
Y056817D01*
X049283Y05675D01*
X049417D01*
X049483Y056817D01*
Y05715D01*
X049883Y05675D02*
X049617D01*
X049883Y057017D01*
Y057083D01*
X049817Y05715D01*
X049683D01*
X049617Y057083D01*
X050017Y05715D02*
X050283D01*
Y057083D01*
X050017Y056817D01*
Y05675D01*
X049167Y0387D02*
Y038367D01*
X049233Y0383D01*
X049367D01*
X049433Y038367D01*
Y0387D01*
X049833Y0383D02*
X049567D01*
X049833Y038567D01*
Y038633D01*
X049767Y0387D01*
X049633D01*
X049567Y038633D01*
X050233Y0387D02*
X0501Y038633D01*
X049967Y0385D01*
Y038367D01*
X050033Y0383D01*
X050167D01*
X050233Y038367D01*
Y038433D01*
X050167Y0385D01*
X049967D01*
X04651Y01804D02*
Y017707D01*
X046577Y01764D01*
X04671D01*
X046777Y017707D01*
Y01804D01*
X047176Y01764D02*
X04691D01*
X047176Y017907D01*
Y017973D01*
X04711Y01804D01*
X046977D01*
X04691Y017973D01*
X047576Y01804D02*
X04731D01*
Y01784D01*
X047443Y017907D01*
X04751D01*
X047576Y01784D01*
Y017707D01*
X04751Y01764D01*
X047376D01*
X04731Y017707D01*
X049167Y0594D02*
Y059067D01*
X049233Y059D01*
X049367D01*
X049433Y059067D01*
Y0594D01*
X049833Y059D02*
X049567D01*
X049833Y059267D01*
Y059333D01*
X049767Y0594D01*
X049633D01*
X049567Y059333D01*
X050167Y059D02*
Y0594D01*
X049967Y0592D01*
X050233D01*
X04776Y04179D02*
Y041457D01*
X047827Y04139D01*
X04796D01*
X048027Y041457D01*
Y04179D01*
X048426Y04139D02*
X04816D01*
X048426Y041657D01*
Y041723D01*
X04836Y04179D01*
X048227D01*
X04816Y041723D01*
X04856D02*
X048626Y04179D01*
X04876D01*
X048826Y041723D01*
Y041657D01*
X04876Y04159D01*
X048693D01*
X04876D01*
X048826Y041523D01*
Y041457D01*
X04876Y04139D01*
X048626D01*
X04856Y041457D01*
X049117Y0617D02*
Y061367D01*
X049183Y0613D01*
X049317D01*
X049383Y061367D01*
Y0617D01*
X049783Y0613D02*
X049517D01*
X049783Y061567D01*
Y061633D01*
X049717Y0617D01*
X049583D01*
X049517Y061633D01*
X050183Y0613D02*
X049917D01*
X050183Y061567D01*
Y061633D01*
X050117Y0617D01*
X049983D01*
X049917Y061633D01*
X049233Y04325D02*
Y042917D01*
X0493Y04285D01*
X049433D01*
X0495Y042917D01*
Y04325D01*
X0499Y04285D02*
X049633D01*
X0499Y043117D01*
Y043183D01*
X049833Y04325D01*
X0497D01*
X049633Y043183D01*
X050033Y04285D02*
X050167D01*
X0501D01*
Y04325D01*
X050033Y043183D01*
X049117Y02715D02*
Y026817D01*
X049183Y02675D01*
X049317D01*
X049383Y026817D01*
Y02715D01*
X049783Y02675D02*
X049517D01*
X049783Y027017D01*
Y027083D01*
X049717Y02715D01*
X049583D01*
X049517Y027083D01*
X049917D02*
X049983Y02715D01*
X050117D01*
X050183Y027083D01*
Y026817D01*
X050117Y02675D01*
X049983D01*
X049917Y026817D01*
Y027083D01*
X0491Y02485D02*
Y024517D01*
X049167Y02445D01*
X0493D01*
X049367Y024517D01*
Y02485D01*
X0495Y02445D02*
X049633D01*
X049567D01*
Y02485D01*
X0495Y024783D01*
X049833Y024517D02*
X0499Y02445D01*
X050033D01*
X0501Y024517D01*
Y024783D01*
X050033Y02485D01*
X0499D01*
X049833Y024783D01*
Y024717D01*
X0499Y02465D01*
X0501D01*
X0492Y064D02*
Y063667D01*
X049267Y0636D01*
X0494D01*
X049467Y063667D01*
Y064D01*
X0496Y0636D02*
X049733D01*
X049667D01*
Y064D01*
X0496Y063933D01*
X049933D02*
X05Y064D01*
X050133D01*
X0502Y063933D01*
Y063867D01*
X050133Y0638D01*
X0502Y063733D01*
Y063667D01*
X050133Y0636D01*
X05D01*
X049933Y063667D01*
Y063733D01*
X05Y0638D01*
X049933Y063867D01*
Y063933D01*
X05Y0638D02*
X050133D01*
X04915Y0456D02*
Y045267D01*
X049217Y0452D01*
X04935D01*
X049417Y045267D01*
Y0456D01*
X04955Y0452D02*
X049683D01*
X049617D01*
Y0456D01*
X04955Y045533D01*
X049883Y0456D02*
X05015D01*
Y045533D01*
X049883Y045267D01*
Y0452D01*
X01125Y042D02*
Y041667D01*
X011317Y0416D01*
X01145D01*
X011517Y041667D01*
Y042D01*
X01165Y0416D02*
X011783D01*
X011717D01*
Y042D01*
X01165Y041933D01*
X01225Y042D02*
X012117Y041933D01*
X011983Y0418D01*
Y041667D01*
X01205Y0416D01*
X012183D01*
X01225Y041667D01*
Y041733D01*
X012183Y0418D01*
X011983D01*
X0113Y0328D02*
Y032467D01*
X011367Y0324D01*
X0115D01*
X011567Y032467D01*
Y0328D01*
X0117Y0324D02*
X011833D01*
X011767D01*
Y0328D01*
X0117Y032733D01*
X0123Y0328D02*
X012033D01*
Y0326D01*
X012167Y032667D01*
X012233D01*
X0123Y0326D01*
Y032467D01*
X012233Y0324D01*
X0121D01*
X012033Y032467D01*
X0113Y0443D02*
Y043967D01*
X011367Y0439D01*
X0115D01*
X011567Y043967D01*
Y0443D01*
X0117Y0439D02*
X011833D01*
X011767D01*
Y0443D01*
X0117Y044233D01*
X012233Y0439D02*
Y0443D01*
X012033Y0441D01*
X0123D01*
X01125Y0351D02*
Y034767D01*
X011317Y0347D01*
X01145D01*
X011517Y034767D01*
Y0351D01*
X01165Y0347D02*
X011783D01*
X011717D01*
Y0351D01*
X01165Y035033D01*
X011983D02*
X01205Y0351D01*
X012183D01*
X01225Y035033D01*
Y034967D01*
X012183Y0349D01*
X012117D01*
X012183D01*
X01225Y034833D01*
Y034767D01*
X012183Y0347D01*
X01205D01*
X011983Y034767D01*
X0113Y0466D02*
Y046267D01*
X011367Y0462D01*
X0115D01*
X011567Y046267D01*
Y0466D01*
X0117Y0462D02*
X011833D01*
X011767D01*
Y0466D01*
X0117Y046533D01*
X0123Y0462D02*
X012033D01*
X0123Y046467D01*
Y046533D01*
X012233Y0466D01*
X0121D01*
X012033Y046533D01*
X011817Y014212D02*
Y013879D01*
X011884Y013812D01*
X012017D01*
X012084Y013879D01*
Y014212D01*
X012217Y013812D02*
X01235D01*
X012284D01*
Y014212D01*
X012217Y014145D01*
X01255Y013812D02*
X012683D01*
X012617D01*
Y014212D01*
X01255Y014145D01*
X01135Y0374D02*
Y037067D01*
X011417Y037D01*
X01155D01*
X011617Y037067D01*
Y0374D01*
X01175Y037D02*
X011883D01*
X011817D01*
Y0374D01*
X01175Y037333D01*
X012083D02*
X01215Y0374D01*
X012283D01*
X01235Y037333D01*
Y037067D01*
X012283Y037D01*
X01215D01*
X012083Y037067D01*
Y037333D01*
X011417Y0489D02*
Y048567D01*
X011483Y0485D01*
X011617D01*
X011683Y048567D01*
Y0489D01*
X011817Y048567D02*
X011883Y0485D01*
X012017D01*
X012083Y048567D01*
Y048833D01*
X012017Y0489D01*
X011883D01*
X011817Y048833D01*
Y048767D01*
X011883Y0487D01*
X012083D01*
X011917Y016587D02*
Y016254D01*
X011984Y016187D01*
X012117D01*
X012184Y016254D01*
Y016587D01*
X012317Y01652D02*
X012383Y016587D01*
X012517D01*
X012583Y01652D01*
Y016453D01*
X012517Y016387D01*
X012583Y01632D01*
Y016254D01*
X012517Y016187D01*
X012383D01*
X012317Y016254D01*
Y01632D01*
X012383Y016387D01*
X012317Y016453D01*
Y01652D01*
X012383Y016387D02*
X012517D01*
X011517Y05115D02*
Y050817D01*
X011583Y05075D01*
X011717D01*
X011783Y050817D01*
Y05115D01*
X011917D02*
X012183D01*
Y051083D01*
X011917Y050817D01*
Y05075D01*
X011467Y03965D02*
Y039317D01*
X011533Y03925D01*
X011667D01*
X011733Y039317D01*
Y03965D01*
X012133D02*
X012Y039583D01*
X011867Y03945D01*
Y039317D01*
X011933Y03925D01*
X012067D01*
X012133Y039317D01*
Y039383D01*
X012067Y03945D01*
X011867D01*
X011917Y0189D02*
Y018567D01*
X011983Y0185D01*
X012117D01*
X012183Y018567D01*
Y0189D01*
X012583D02*
X012317D01*
Y0187D01*
X01245Y018767D01*
X012517D01*
X012583Y0187D01*
Y018567D01*
X012517Y0185D01*
X012383D01*
X012317Y018567D01*
X011517Y05345D02*
Y053117D01*
X011583Y05305D01*
X011717D01*
X011783Y053117D01*
Y05345D01*
X012117Y05305D02*
Y05345D01*
X011917Y05325D01*
X012183D01*
X011517Y0558D02*
Y055467D01*
X011583Y0554D01*
X011717D01*
X011783Y055467D01*
Y0558D01*
X011917Y055733D02*
X011983Y0558D01*
X012117D01*
X012183Y055733D01*
Y055667D01*
X012117Y0556D01*
X01205D01*
X012117D01*
X012183Y055533D01*
Y055467D01*
X012117Y0554D01*
X011983D01*
X011917Y055467D01*
X02257Y06679D02*
Y066457D01*
X022637Y06639D01*
X02277D01*
X022837Y066457D01*
Y06679D01*
X023236Y06639D02*
X02297D01*
X023236Y066657D01*
Y066723D01*
X02317Y06679D01*
X023037D01*
X02297Y066723D01*
X01186Y06661D02*
Y066277D01*
X011927Y06621D01*
X01206D01*
X012127Y066277D01*
Y06661D01*
X01226Y06621D02*
X012393D01*
X012327D01*
Y06661D01*
X01226Y066543D01*
X019527Y031823D02*
X01946Y03189D01*
X019327D01*
X01926Y031823D01*
Y031757D01*
X019327Y03169D01*
X01946D01*
X019527Y031623D01*
Y031557D01*
X01946Y03149D01*
X019327D01*
X01926Y031557D01*
X01966Y031823D02*
X019727Y03189D01*
X01986D01*
X019926Y031823D01*
Y031757D01*
X01986Y03169D01*
X019793D01*
X01986D01*
X019926Y031623D01*
Y031557D01*
X01986Y03149D01*
X019727D01*
X01966Y031557D01*
X025627Y031823D02*
X02556Y03189D01*
X025427D01*
X02536Y031823D01*
Y031757D01*
X025427Y03169D01*
X02556D01*
X025627Y031623D01*
Y031557D01*
X02556Y03149D01*
X025427D01*
X02536Y031557D01*
X026026Y03149D02*
X02576D01*
X026026Y031757D01*
Y031823D01*
X02596Y03189D01*
X025827D01*
X02576Y031823D01*
X022617D02*
X02255Y03189D01*
X022417D01*
X02235Y031823D01*
Y031757D01*
X022417Y03169D01*
X02255D01*
X022617Y031623D01*
Y031557D01*
X02255Y03149D01*
X022417D01*
X02235Y031557D01*
X02275Y03149D02*
X022883D01*
X022817D01*
Y03189D01*
X02275Y031823D01*
X030167Y0516D02*
Y052D01*
X030367D01*
X030433Y051933D01*
Y0518D01*
X030367Y051733D01*
X030167D01*
X0303D02*
X030433Y0516D01*
X030567D02*
X0307D01*
X030633D01*
Y052D01*
X030567Y051933D01*
X0309D02*
X030967Y052D01*
X0311D01*
X031167Y051933D01*
Y051867D01*
X0311Y0518D01*
X031033D01*
X0311D01*
X031167Y051733D01*
Y051667D01*
X0311Y0516D01*
X030967D01*
X0309Y051667D01*
X0313Y0516D02*
X031433D01*
X031366D01*
Y052D01*
X0313Y051933D01*
X02878Y0188D02*
Y0192D01*
X02898D01*
X029047Y019133D01*
Y019D01*
X02898Y018933D01*
X02878D01*
X028913D02*
X029047Y0188D01*
X02918D02*
X029313D01*
X029247D01*
Y0192D01*
X02918Y019133D01*
X029513D02*
X02958Y0192D01*
X029713D01*
X02978Y019133D01*
Y019067D01*
X029713Y019D01*
X029646D01*
X029713D01*
X02978Y018933D01*
Y018867D01*
X029713Y0188D01*
X02958D01*
X029513Y018867D01*
X029913Y019133D02*
X02998Y0192D01*
X030113D01*
X03018Y019133D01*
Y018867D01*
X030113Y0188D01*
X02998D01*
X029913Y018867D01*
Y019133D01*
X03348Y0125D02*
Y0129D01*
X03368D01*
X033747Y012833D01*
Y0127D01*
X03368Y012633D01*
X03348D01*
X033613D02*
X033747Y0125D01*
X03388D02*
X034013D01*
X033947D01*
Y0129D01*
X03388Y012833D01*
X03448Y0125D02*
X034213D01*
X03448Y012767D01*
Y012833D01*
X034413Y0129D01*
X03428D01*
X034213Y012833D01*
X034613Y012567D02*
X03468Y0125D01*
X034813D01*
X03488Y012567D01*
Y012833D01*
X034813Y0129D01*
X03468D01*
X034613Y012833D01*
Y012767D01*
X03468Y0127D01*
X03488D01*
X03964Y02277D02*
Y02317D01*
X03984D01*
X039907Y023103D01*
Y02297D01*
X03984Y022903D01*
X03964D01*
X039773D02*
X039907Y02277D01*
X04004D02*
X040173D01*
X040107D01*
Y02317D01*
X04004Y023103D01*
X04064Y02277D02*
X040373D01*
X04064Y023037D01*
Y023103D01*
X040573Y02317D01*
X04044D01*
X040373Y023103D01*
X040773D02*
X04084Y02317D01*
X040973D01*
X04104Y023103D01*
Y023037D01*
X040973Y02297D01*
X04104Y022903D01*
Y022837D01*
X040973Y02277D01*
X04084D01*
X040773Y022837D01*
Y022903D01*
X04084Y02297D01*
X040773Y023037D01*
Y023103D01*
X04084Y02297D02*
X040973D01*
X02878Y0173D02*
Y0177D01*
X02898D01*
X029047Y017633D01*
Y0175D01*
X02898Y017433D01*
X02878D01*
X028913D02*
X029047Y0173D01*
X02918D02*
X029313D01*
X029247D01*
Y0177D01*
X02918Y017633D01*
X02978Y0173D02*
X029513D01*
X02978Y017567D01*
Y017633D01*
X029713Y0177D01*
X02958D01*
X029513Y017633D01*
X029913Y0177D02*
X03018D01*
Y017633D01*
X029913Y017367D01*
Y0173D01*
X04104Y02277D02*
Y02317D01*
X04124D01*
X041307Y023103D01*
Y02297D01*
X04124Y022903D01*
X04104D01*
X041173D02*
X041307Y02277D01*
X04144D02*
X041573D01*
X041507D01*
Y02317D01*
X04144Y023103D01*
X04204Y02277D02*
X041773D01*
X04204Y023037D01*
Y023103D01*
X041973Y02317D01*
X04184D01*
X041773Y023103D01*
X04244Y02317D02*
X042306Y023103D01*
X042173Y02297D01*
Y022837D01*
X04224Y02277D01*
X042373D01*
X04244Y022837D01*
Y022903D01*
X042373Y02297D01*
X042173D01*
X03819Y02277D02*
Y02317D01*
X03839D01*
X038457Y023103D01*
Y02297D01*
X03839Y022903D01*
X03819D01*
X038323D02*
X038457Y02277D01*
X03859D02*
X038723D01*
X038657D01*
Y02317D01*
X03859Y023103D01*
X03919Y02277D02*
X038923D01*
X03919Y023037D01*
Y023103D01*
X039123Y02317D01*
X03899D01*
X038923Y023103D01*
X03959Y02317D02*
X039323D01*
Y02297D01*
X039456Y023037D01*
X039523D01*
X03959Y02297D01*
Y022837D01*
X039523Y02277D01*
X03939D01*
X039323Y022837D01*
X03819Y02797D02*
Y02837D01*
X03839D01*
X038457Y028303D01*
Y02817D01*
X03839Y028103D01*
X03819D01*
X038323D02*
X038457Y02797D01*
X03859D02*
X038723D01*
X038657D01*
Y02837D01*
X03859Y028303D01*
X03919Y02797D02*
X038923D01*
X03919Y028237D01*
Y028303D01*
X039123Y02837D01*
X03899D01*
X038923Y028303D01*
X039523Y02797D02*
Y02837D01*
X039323Y02817D01*
X03959D01*
X03964Y02797D02*
Y02837D01*
X03984D01*
X039907Y028303D01*
Y02817D01*
X03984Y028103D01*
X03964D01*
X039773D02*
X039907Y02797D01*
X04004D02*
X040173D01*
X040107D01*
Y02837D01*
X04004Y028303D01*
X04064Y02797D02*
X040373D01*
X04064Y028237D01*
Y028303D01*
X040573Y02837D01*
X04044D01*
X040373Y028303D01*
X040773D02*
X04084Y02837D01*
X040973D01*
X04104Y028303D01*
Y028237D01*
X040973Y02817D01*
X040906D01*
X040973D01*
X04104Y028103D01*
Y028037D01*
X040973Y02797D01*
X04084D01*
X040773Y028037D01*
X0461Y04645D02*
X0457D01*
Y04665D01*
X045767Y046717D01*
X0459D01*
X045967Y04665D01*
Y04645D01*
Y046584D02*
X0461Y046717D01*
Y04685D02*
Y046983D01*
Y046917D01*
X0457D01*
X045767Y04685D01*
X0461Y04745D02*
Y047183D01*
X045833Y04745D01*
X045767D01*
X0457Y047383D01*
Y04725D01*
X045767Y047183D01*
Y047583D02*
X0457Y04765D01*
Y047783D01*
X045767Y04785D01*
X046033D01*
X0461Y047783D01*
Y04765D01*
X046033Y047583D01*
X045767D01*
X04615Y028034D02*
X04575D01*
Y028233D01*
X045817Y0283D01*
X04595D01*
X046017Y028233D01*
Y028034D01*
Y028167D02*
X04615Y0283D01*
Y028433D02*
Y028567D01*
Y0285D01*
X04575D01*
X045817Y028433D01*
X04615Y028767D02*
Y0289D01*
Y028833D01*
X04575D01*
X045817Y028767D01*
X046083Y0291D02*
X04615Y029167D01*
Y0293D01*
X046083Y029366D01*
X045817D01*
X04575Y0293D01*
Y029167D01*
X045817Y0291D01*
X045883D01*
X04595Y029167D01*
Y029366D01*
X04605Y048634D02*
X04565D01*
Y048833D01*
X045717Y0489D01*
X04585D01*
X045917Y048833D01*
Y048634D01*
Y048767D02*
X04605Y0489D01*
Y049033D02*
Y049167D01*
Y0491D01*
X04565D01*
X045717Y049033D01*
X04605Y049367D02*
Y0495D01*
Y049433D01*
X04565D01*
X045717Y049367D01*
X04605Y0499D02*
X04565D01*
X04585Y0497D01*
Y049966D01*
X04625Y030234D02*
X04585D01*
Y030433D01*
X045917Y0305D01*
X04605D01*
X046117Y030433D01*
Y030234D01*
Y030367D02*
X04625Y0305D01*
Y030633D02*
Y030767D01*
Y0307D01*
X04585D01*
X045917Y030633D01*
X04625Y030967D02*
Y0311D01*
Y031033D01*
X04585D01*
X045917Y030967D01*
Y0313D02*
X04585Y031367D01*
Y0315D01*
X045917Y031566D01*
X045983D01*
X04605Y0315D01*
Y031433D01*
Y0315D01*
X046117Y031566D01*
X046183D01*
X04625Y0315D01*
Y031367D01*
X046183Y0313D01*
X046Y0508D02*
X0456D01*
Y051D01*
X045667Y051067D01*
X0458D01*
X045867Y051D01*
Y0508D01*
Y050934D02*
X046Y051067D01*
Y0512D02*
Y051333D01*
Y051267D01*
X0456D01*
X045667Y0512D01*
Y051533D02*
X0456Y0516D01*
Y051733D01*
X045667Y0518D01*
X045933D01*
X046Y051733D01*
Y0516D01*
X045933Y051533D01*
X045667D01*
Y051933D02*
X0456Y052D01*
Y052133D01*
X045667Y0522D01*
X045733D01*
X0458Y052133D01*
X045867Y0522D01*
X045933D01*
X046Y052133D01*
Y052D01*
X045933Y051933D01*
X045867D01*
X0458Y052D01*
X045733Y051933D01*
X045667D01*
X0458Y052D02*
Y052133D01*
X0462Y03265D02*
X0458D01*
Y03285D01*
X045867Y032917D01*
X046D01*
X046067Y03285D01*
Y03265D01*
Y032784D02*
X0462Y032917D01*
Y03305D02*
Y033183D01*
Y033117D01*
X0458D01*
X045867Y03305D01*
Y033383D02*
X0458Y03345D01*
Y033583D01*
X045867Y03365D01*
X046133D01*
X0462Y033583D01*
Y03345D01*
X046133Y033383D01*
X045867D01*
X0458Y033783D02*
Y03405D01*
X045867D01*
X046133Y033783D01*
X0462D01*
X046Y05325D02*
X0456D01*
Y05345D01*
X045667Y053517D01*
X0458D01*
X045867Y05345D01*
Y05325D01*
Y053384D02*
X046Y053517D01*
Y05365D02*
Y053783D01*
Y053717D01*
X0456D01*
X045667Y05365D01*
Y053983D02*
X0456Y05405D01*
Y054183D01*
X045667Y05425D01*
X045933D01*
X046Y054183D01*
Y05405D01*
X045933Y053983D01*
X045667D01*
X046Y05465D02*
Y054383D01*
X045733Y05465D01*
X045667D01*
X0456Y054583D01*
Y05445D01*
X045667Y054383D01*
X04615Y034867D02*
X04575D01*
Y035067D01*
X045817Y035133D01*
X04595D01*
X046017Y035067D01*
Y034867D01*
Y035D02*
X04615Y035133D01*
Y035267D02*
Y0354D01*
Y035333D01*
X04575D01*
X045817Y035267D01*
Y0356D02*
X04575Y035667D01*
Y0358D01*
X045817Y035867D01*
X046083D01*
X04615Y0358D01*
Y035667D01*
X046083Y0356D01*
X045817D01*
X04615Y036D02*
Y036133D01*
Y036066D01*
X04575D01*
X045817Y036D01*
X046Y055717D02*
X0456D01*
Y055917D01*
X045667Y055983D01*
X0458D01*
X045867Y055917D01*
Y055717D01*
Y05585D02*
X046Y055983D01*
X045933Y056117D02*
X046Y056183D01*
Y056317D01*
X045933Y056383D01*
X045667D01*
X0456Y056317D01*
Y056183D01*
X045667Y056117D01*
X045733D01*
X0458Y056183D01*
Y056383D01*
X0456Y056783D02*
X045667Y05665D01*
X0458Y056517D01*
X045933D01*
X046Y056583D01*
Y056717D01*
X045933Y056783D01*
X045867D01*
X0458Y056717D01*
Y056517D01*
X04615Y037217D02*
X04575D01*
Y037417D01*
X045817Y037483D01*
X04595D01*
X046017Y037417D01*
Y037217D01*
Y03735D02*
X04615Y037483D01*
X046083Y037617D02*
X04615Y037683D01*
Y037817D01*
X046083Y037883D01*
X045817D01*
X04575Y037817D01*
Y037683D01*
X045817Y037617D01*
X045883D01*
X04595Y037683D01*
Y037883D01*
X04575Y038283D02*
Y038017D01*
X04595D01*
X045883Y03815D01*
Y038217D01*
X04595Y038283D01*
X046083D01*
X04615Y038217D01*
Y038083D01*
X046083Y038017D01*
X046Y057817D02*
X0456D01*
Y058017D01*
X045667Y058083D01*
X0458D01*
X045867Y058017D01*
Y057817D01*
Y05795D02*
X046Y058083D01*
X045933Y058217D02*
X046Y058283D01*
Y058417D01*
X045933Y058483D01*
X045667D01*
X0456Y058417D01*
Y058283D01*
X045667Y058217D01*
X045733D01*
X0458Y058283D01*
Y058483D01*
X045667Y058617D02*
X0456Y058683D01*
Y058817D01*
X045667Y058883D01*
X045933D01*
X046Y058817D01*
Y058683D01*
X045933Y058617D01*
X045667D01*
X0462Y039567D02*
X0458D01*
Y039767D01*
X045867Y039833D01*
X046D01*
X046067Y039767D01*
Y039567D01*
Y0397D02*
X0462Y039833D01*
X045867Y039967D02*
X0458Y040033D01*
Y040167D01*
X045867Y040233D01*
X045933D01*
X046Y040167D01*
X046067Y040233D01*
X046133D01*
X0462Y040167D01*
Y040033D01*
X046133Y039967D01*
X046067D01*
X046Y040033D01*
X045933Y039967D01*
X045867D01*
X046Y040033D02*
Y040167D01*
X046133Y040367D02*
X0462Y040433D01*
Y040567D01*
X046133Y040633D01*
X045867D01*
X0458Y040567D01*
Y040433D01*
X045867Y040367D01*
X045933D01*
X046Y040433D01*
Y040633D01*
X0526Y024717D02*
X0522D01*
Y024917D01*
X052267Y024983D01*
X0524D01*
X052467Y024917D01*
Y024717D01*
Y02485D02*
X0526Y024983D01*
X052267Y025117D02*
X0522Y025183D01*
Y025317D01*
X052267Y025383D01*
X052333D01*
X0524Y025317D01*
X052467Y025383D01*
X052533D01*
X0526Y025317D01*
Y025183D01*
X052533Y025117D01*
X052467D01*
X0524Y025183D01*
X052333Y025117D01*
X052267D01*
X0524Y025183D02*
Y025317D01*
X0522Y025517D02*
Y025783D01*
X052267D01*
X052533Y025517D01*
X0526D01*
X054617Y02335D02*
Y02375D01*
X054817D01*
X054883Y023683D01*
Y02355D01*
X054817Y023483D01*
X054617D01*
X05475D02*
X054883Y02335D01*
X055017Y023683D02*
X055083Y02375D01*
X055217D01*
X055283Y023683D01*
Y023617D01*
X055217Y02355D01*
X055283Y023483D01*
Y023417D01*
X055217Y02335D01*
X055083D01*
X055017Y023417D01*
Y023483D01*
X055083Y02355D01*
X055017Y023617D01*
Y023683D01*
X055083Y02355D02*
X055217D01*
X055683Y02375D02*
X055417D01*
Y02355D01*
X05555Y023617D01*
X055617D01*
X055683Y02355D01*
Y023417D01*
X055617Y02335D01*
X055483D01*
X055417Y023417D01*
X053017Y02335D02*
Y02375D01*
X053217D01*
X053283Y023683D01*
Y02355D01*
X053217Y023483D01*
X053017D01*
X05315D02*
X053283Y02335D01*
X053417Y023683D02*
X053483Y02375D01*
X053617D01*
X053683Y023683D01*
Y023617D01*
X053617Y02355D01*
X053683Y023483D01*
Y023417D01*
X053617Y02335D01*
X053483D01*
X053417Y023417D01*
Y023483D01*
X053483Y02355D01*
X053417Y023617D01*
Y023683D01*
X053483Y02355D02*
X053617D01*
X054017Y02335D02*
Y02375D01*
X053817Y02355D01*
X054083D01*
X0463Y020317D02*
X0459D01*
Y020517D01*
X045967Y020583D01*
X0461D01*
X046167Y020517D01*
Y020317D01*
Y02045D02*
X0463Y020583D01*
X045967Y020717D02*
X0459Y020783D01*
Y020917D01*
X045967Y020983D01*
X046033D01*
X0461Y020917D01*
X046167Y020983D01*
X046233D01*
X0463Y020917D01*
Y020783D01*
X046233Y020717D01*
X046167D01*
X0461Y020783D01*
X046033Y020717D01*
X045967D01*
X0461Y020783D02*
Y020917D01*
X045967Y021117D02*
X0459Y021183D01*
Y021317D01*
X045967Y021383D01*
X046033D01*
X0461Y021317D01*
Y02125D01*
Y021317D01*
X046167Y021383D01*
X046233D01*
X0463Y021317D01*
Y021183D01*
X046233Y021117D01*
X054617Y0278D02*
Y0282D01*
X054817D01*
X054883Y028133D01*
Y028D01*
X054817Y027933D01*
X054617D01*
X05475D02*
X054883Y0278D01*
X055017Y028133D02*
X055083Y0282D01*
X055217D01*
X055283Y028133D01*
Y028067D01*
X055217Y028D01*
X055283Y027933D01*
Y027867D01*
X055217Y0278D01*
X055083D01*
X055017Y027867D01*
Y027933D01*
X055083Y028D01*
X055017Y028067D01*
Y028133D01*
X055083Y028D02*
X055217D01*
X055683Y0278D02*
X055417D01*
X055683Y028067D01*
Y028133D01*
X055617Y0282D01*
X055483D01*
X055417Y028133D01*
X05255Y026133D02*
X05215D01*
Y026333D01*
X052217Y0264D01*
X05235D01*
X052417Y026333D01*
Y026133D01*
Y026267D02*
X05255Y0264D01*
X052217Y026533D02*
X05215Y0266D01*
Y026733D01*
X052217Y0268D01*
X052283D01*
X05235Y026733D01*
X052417Y0268D01*
X052483D01*
X05255Y026733D01*
Y0266D01*
X052483Y026533D01*
X052417D01*
X05235Y0266D01*
X052283Y026533D01*
X052217D01*
X05235Y0266D02*
Y026733D01*
X05255Y026933D02*
Y027067D01*
Y027D01*
X05215D01*
X052217Y026933D01*
X052517Y0278D02*
Y0282D01*
X052717D01*
X052783Y028133D01*
Y028D01*
X052717Y027933D01*
X052517D01*
X05265D02*
X052783Y0278D01*
X052917Y0282D02*
X053183D01*
Y028133D01*
X052917Y027867D01*
Y0278D01*
X053317Y027867D02*
X053383Y0278D01*
X053517D01*
X053583Y027867D01*
Y028133D01*
X053517Y0282D01*
X053383D01*
X053317Y028133D01*
Y028067D01*
X053383Y028D01*
X053583D01*
X0463Y021817D02*
X0459D01*
Y022017D01*
X045967Y022083D01*
X0461D01*
X046167Y022017D01*
Y021817D01*
Y02195D02*
X0463Y022083D01*
X0459Y022217D02*
Y022483D01*
X045967D01*
X046233Y022217D01*
X0463D01*
X0459Y022617D02*
Y022883D01*
X045967D01*
X046233Y022617D01*
X0463D01*
X046Y060317D02*
X0456D01*
Y060517D01*
X045667Y060583D01*
X0458D01*
X045867Y060517D01*
Y060317D01*
Y06045D02*
X046Y060583D01*
X0456Y060717D02*
Y060983D01*
X045667D01*
X045933Y060717D01*
X046D01*
X0456Y061383D02*
X045667Y06125D01*
X0458Y061117D01*
X045933D01*
X046Y061183D01*
Y061317D01*
X045933Y061383D01*
X045867D01*
X0458Y061317D01*
Y061117D01*
X0461Y041917D02*
X0457D01*
Y042117D01*
X045767Y042183D01*
X0459D01*
X045967Y042117D01*
Y041917D01*
Y04205D02*
X0461Y042183D01*
X0457Y042317D02*
Y042583D01*
X045767D01*
X046033Y042317D01*
X0461D01*
X0457Y042983D02*
Y042717D01*
X0459D01*
X045833Y04285D01*
Y042917D01*
X0459Y042983D01*
X046033D01*
X0461Y042917D01*
Y042783D01*
X046033Y042717D01*
X04625Y025767D02*
X04585D01*
Y025967D01*
X045917Y026033D01*
X04605D01*
X046117Y025967D01*
Y025767D01*
Y0259D02*
X04625Y026033D01*
X04585Y026433D02*
X045917Y0263D01*
X04605Y026167D01*
X046183D01*
X04625Y026233D01*
Y026367D01*
X046183Y026433D01*
X046117D01*
X04605Y026367D01*
Y026167D01*
X045917Y026567D02*
X04585Y026633D01*
Y026767D01*
X045917Y026833D01*
X045983D01*
X04605Y026767D01*
X046117Y026833D01*
X046183D01*
X04625Y026767D01*
Y026633D01*
X046183Y026567D01*
X046117D01*
X04605Y026633D01*
X045983Y026567D01*
X045917D01*
X04605Y026633D02*
Y026767D01*
X04625Y023517D02*
X04585D01*
Y023717D01*
X045917Y023783D01*
X04605D01*
X046117Y023717D01*
Y023517D01*
Y02365D02*
X04625Y023783D01*
X04585Y024183D02*
X045917Y02405D01*
X04605Y023917D01*
X046183D01*
X04625Y023983D01*
Y024117D01*
X046183Y024183D01*
X046117D01*
X04605Y024117D01*
Y023917D01*
X04585Y024317D02*
Y024583D01*
X045917D01*
X046183Y024317D01*
X04625D01*
X0461Y062617D02*
X0457D01*
Y062817D01*
X045767Y062883D01*
X0459D01*
X045967Y062817D01*
Y062617D01*
Y06275D02*
X0461Y062883D01*
X0457Y063283D02*
X045767Y06315D01*
X0459Y063017D01*
X046033D01*
X0461Y063083D01*
Y063217D01*
X046033Y063283D01*
X045967D01*
X0459Y063217D01*
Y063017D01*
X0457Y063683D02*
X045767Y06355D01*
X0459Y063417D01*
X046033D01*
X0461Y063483D01*
Y063617D01*
X046033Y063683D01*
X045967D01*
X0459Y063617D01*
Y063417D01*
X0461Y044217D02*
X0457D01*
Y044417D01*
X045767Y044483D01*
X0459D01*
X045967Y044417D01*
Y044217D01*
Y04435D02*
X0461Y044483D01*
X0457Y044883D02*
X045767Y04475D01*
X0459Y044617D01*
X046033D01*
X0461Y044683D01*
Y044817D01*
X046033Y044883D01*
X045967D01*
X0459Y044817D01*
Y044617D01*
X0457Y045283D02*
Y045017D01*
X0459D01*
X045833Y04515D01*
Y045217D01*
X0459Y045283D01*
X046033D01*
X0461Y045217D01*
Y045083D01*
X046033Y045017D01*
X008517Y04195D02*
Y04235D01*
X008717D01*
X008783Y042283D01*
Y04215D01*
X008717Y042083D01*
X008517D01*
X00865D02*
X008783Y04195D01*
X009183Y04235D02*
X00905Y042283D01*
X008917Y04215D01*
Y042017D01*
X008983Y04195D01*
X009117D01*
X009183Y042017D01*
Y042083D01*
X009117Y04215D01*
X008917D01*
X009317Y042283D02*
X009383Y04235D01*
X009517D01*
X009583Y042283D01*
Y042017D01*
X009517Y04195D01*
X009383D01*
X009317Y042017D01*
Y042283D01*
X01414Y04198D02*
Y04238D01*
X01434D01*
X014407Y042313D01*
Y04218D01*
X01434Y042113D01*
X01414D01*
X014273D02*
X014407Y04198D01*
X014806Y04238D02*
X01454D01*
Y04218D01*
X014673Y042247D01*
X01474D01*
X014806Y04218D01*
Y042047D01*
X01474Y04198D01*
X014607D01*
X01454Y042047D01*
X01494Y042313D02*
X015006Y04238D01*
X01514D01*
X015206Y042313D01*
Y042247D01*
X01514Y04218D01*
X015206Y042113D01*
Y042047D01*
X01514Y04198D01*
X015006D01*
X01494Y042047D01*
Y042113D01*
X015006Y04218D01*
X01494Y042247D01*
Y042313D01*
X015006Y04218D02*
X01514D01*
X0082Y031317D02*
X0078D01*
Y031517D01*
X007867Y031583D01*
X008D01*
X008067Y031517D01*
Y031317D01*
Y03145D02*
X0082Y031583D01*
X0078Y031983D02*
Y031717D01*
X008D01*
X007933Y03185D01*
Y031917D01*
X008Y031983D01*
X008133D01*
X0082Y031917D01*
Y031783D01*
X008133Y031717D01*
X0078Y032383D02*
X007867Y03225D01*
X008Y032117D01*
X008133D01*
X0082Y032183D01*
Y032317D01*
X008133Y032383D01*
X008067D01*
X008Y032317D01*
Y032117D01*
X008517Y04425D02*
Y04465D01*
X008717D01*
X008783Y044583D01*
Y04445D01*
X008717Y044383D01*
X008517D01*
X00865D02*
X008783Y04425D01*
X009183Y04465D02*
X008917D01*
Y04445D01*
X00905Y044517D01*
X009117D01*
X009183Y04445D01*
Y044317D01*
X009117Y04425D01*
X008983D01*
X008917Y044317D01*
X009517Y04425D02*
Y04465D01*
X009317Y04445D01*
X009583D01*
X00895Y019917D02*
X00855D01*
Y020117D01*
X008617Y020183D01*
X00875D01*
X008817Y020117D01*
Y019917D01*
Y02005D02*
X00895Y020183D01*
X00855Y020583D02*
Y020317D01*
X00875D01*
X008683Y02045D01*
Y020517D01*
X00875Y020583D01*
X008883D01*
X00895Y020517D01*
Y020383D01*
X008883Y020317D01*
X00895Y020983D02*
Y020717D01*
X008683Y020983D01*
X008617D01*
X00855Y020917D01*
Y020783D01*
X008617Y020717D01*
X01414Y03278D02*
Y03318D01*
X01434D01*
X014407Y033113D01*
Y03298D01*
X01434Y032913D01*
X01414D01*
X014273D02*
X014407Y03278D01*
X014806Y03318D02*
X01454D01*
Y03298D01*
X014673Y033047D01*
X01474D01*
X014806Y03298D01*
Y032847D01*
X01474Y03278D01*
X014607D01*
X01454Y032847D01*
X01494Y033113D02*
X015006Y03318D01*
X01514D01*
X015206Y033113D01*
Y032847D01*
X01514Y03278D01*
X015006D01*
X01494Y032847D01*
Y033113D01*
X01444Y02177D02*
Y02217D01*
X01464D01*
X014707Y022103D01*
Y02197D01*
X01464Y021903D01*
X01444D01*
X014573D02*
X014707Y02177D01*
X01504D02*
Y02217D01*
X01484Y02197D01*
X015106D01*
X01524Y02217D02*
X015506D01*
Y022103D01*
X01524Y021837D01*
Y02177D01*
X012117Y02235D02*
Y02275D01*
X012317D01*
X012383Y022683D01*
Y02255D01*
X012317Y022483D01*
X012117D01*
X01225D02*
X012383Y02235D01*
X012717D02*
Y02275D01*
X012517Y02255D01*
X012783D01*
X013183Y02275D02*
X01305Y022683D01*
X012917Y02255D01*
Y022417D01*
X012983Y02235D01*
X013117D01*
X013183Y022417D01*
Y022483D01*
X013117Y02255D01*
X012917D01*
X01414Y04428D02*
Y04468D01*
X01434D01*
X014407Y044613D01*
Y04448D01*
X01434Y044413D01*
X01414D01*
X014273D02*
X014407Y04428D01*
X01474D02*
Y04468D01*
X01454Y04448D01*
X014806D01*
X015206Y04468D02*
X01494D01*
Y04448D01*
X015073Y044547D01*
X01514D01*
X015206Y04448D01*
Y044347D01*
X01514Y04428D01*
X015006D01*
X01494Y044347D01*
X008517Y03505D02*
Y03545D01*
X008717D01*
X008783Y035383D01*
Y03525D01*
X008717Y035183D01*
X008517D01*
X00865D02*
X008783Y03505D01*
X009117D02*
Y03545D01*
X008917Y03525D01*
X009183D01*
X009317Y035383D02*
X009383Y03545D01*
X009517D01*
X009583Y035383D01*
Y035317D01*
X009517Y03525D01*
X00945D01*
X009517D01*
X009583Y035183D01*
Y035117D01*
X009517Y03505D01*
X009383D01*
X009317Y035117D01*
X008467Y04655D02*
Y04695D01*
X008667D01*
X008733Y046883D01*
Y04675D01*
X008667Y046683D01*
X008467D01*
X0086D02*
X008733Y04655D01*
X009067D02*
Y04695D01*
X008867Y04675D01*
X009133D01*
X009533Y04655D02*
X009267D01*
X009533Y046817D01*
Y046883D01*
X009467Y04695D01*
X009333D01*
X009267Y046883D01*
X0089Y022633D02*
X0085D01*
Y022833D01*
X008567Y0229D01*
X0087D01*
X008767Y022833D01*
Y022633D01*
Y022767D02*
X0089Y0229D01*
Y023233D02*
X0085D01*
X0087Y023033D01*
Y0233D01*
X0089Y023433D02*
Y023567D01*
Y0235D01*
X0085D01*
X008567Y023433D01*
X01414Y03508D02*
Y03548D01*
X01434D01*
X014407Y035413D01*
Y03528D01*
X01434Y035213D01*
X01414D01*
X014273D02*
X014407Y03508D01*
X01454Y035413D02*
X014607Y03548D01*
X01474D01*
X014806Y035413D01*
Y035347D01*
X01474Y03528D01*
X014673D01*
X01474D01*
X014806Y035213D01*
Y035147D01*
X01474Y03508D01*
X014607D01*
X01454Y035147D01*
X01494Y035413D02*
X015006Y03548D01*
X01514D01*
X015206Y035413D01*
Y035347D01*
X01514Y03528D01*
X015206Y035213D01*
Y035147D01*
X01514Y03508D01*
X015006D01*
X01494Y035147D01*
Y035213D01*
X015006Y03528D01*
X01494Y035347D01*
Y035413D01*
X015006Y03528D02*
X01514D01*
X00885Y011817D02*
X00845D01*
Y012017D01*
X008517Y012083D01*
X00865D01*
X008717Y012017D01*
Y011817D01*
Y01195D02*
X00885Y012083D01*
X008517Y012217D02*
X00845Y012283D01*
Y012417D01*
X008517Y012483D01*
X008583D01*
X00865Y012417D01*
Y01235D01*
Y012417D01*
X008717Y012483D01*
X008783D01*
X00885Y012417D01*
Y012283D01*
X008783Y012217D01*
X00845Y012617D02*
Y012883D01*
X008517D01*
X008783Y012617D01*
X00885D01*
X01444Y02457D02*
Y02497D01*
X01464D01*
X014707Y024903D01*
Y02477D01*
X01464Y024703D01*
X01444D01*
X014573D02*
X014707Y02457D01*
X01484Y024903D02*
X014907Y02497D01*
X01504D01*
X015106Y024903D01*
Y024837D01*
X01504Y02477D01*
X014973D01*
X01504D01*
X015106Y024703D01*
Y024637D01*
X01504Y02457D01*
X014907D01*
X01484Y024637D01*
X015506Y02497D02*
X015373Y024903D01*
X01524Y02477D01*
Y024637D01*
X015306Y02457D01*
X01544D01*
X015506Y024637D01*
Y024703D01*
X01544Y02477D01*
X01524D01*
X012067Y02515D02*
Y02555D01*
X012267D01*
X012333Y025483D01*
Y02535D01*
X012267Y025283D01*
X012067D01*
X0122D02*
X012333Y02515D01*
X012467Y025483D02*
X012533Y02555D01*
X012667D01*
X012733Y025483D01*
Y025417D01*
X012667Y02535D01*
X0126D01*
X012667D01*
X012733Y025283D01*
Y025217D01*
X012667Y02515D01*
X012533D01*
X012467Y025217D01*
X013133Y02555D02*
X012867D01*
Y02535D01*
X013Y025417D01*
X013067D01*
X013133Y02535D01*
Y025217D01*
X013067Y02515D01*
X012933D01*
X012867Y025217D01*
X01414Y04668D02*
Y04708D01*
X01434D01*
X014407Y047013D01*
Y04688D01*
X01434Y046813D01*
X01414D01*
X014273D02*
X014407Y04668D01*
X01454Y047013D02*
X014607Y04708D01*
X01474D01*
X014806Y047013D01*
Y046947D01*
X01474Y04688D01*
X014673D01*
X01474D01*
X014806Y046813D01*
Y046747D01*
X01474Y04668D01*
X014607D01*
X01454Y046747D01*
X01514Y04668D02*
Y04708D01*
X01494Y04688D01*
X015206D01*
X007417Y0131D02*
Y0135D01*
X007617D01*
X007683Y013433D01*
Y0133D01*
X007617Y013233D01*
X007417D01*
X00755D02*
X007683Y0131D01*
X007817Y013433D02*
X007883Y0135D01*
X008017D01*
X008083Y013433D01*
Y013367D01*
X008017Y0133D01*
X00795D01*
X008017D01*
X008083Y013233D01*
Y013167D01*
X008017Y0131D01*
X007883D01*
X007817Y013167D01*
X008217Y013433D02*
X008283Y0135D01*
X008417D01*
X008483Y013433D01*
Y013367D01*
X008417Y0133D01*
X00835D01*
X008417D01*
X008483Y013233D01*
Y013167D01*
X008417Y0131D01*
X008283D01*
X008217Y013167D01*
X01448Y01502D02*
Y01542D01*
X01468D01*
X014747Y015353D01*
Y01522D01*
X01468Y015153D01*
X01448D01*
X014613D02*
X014747Y01502D01*
X01488Y015353D02*
X014947Y01542D01*
X01508D01*
X015146Y015353D01*
Y015287D01*
X01508Y01522D01*
X015013D01*
X01508D01*
X015146Y015153D01*
Y015087D01*
X01508Y01502D01*
X014947D01*
X01488Y015087D01*
X015546Y01502D02*
X01528D01*
X015546Y015287D01*
Y015353D01*
X01548Y01542D01*
X015346D01*
X01528Y015353D01*
X008583Y0373D02*
Y0377D01*
X008783D01*
X00885Y037633D01*
Y0375D01*
X008783Y037433D01*
X008583D01*
X008717D02*
X00885Y0373D01*
X008983Y037633D02*
X00905Y0377D01*
X009183D01*
X00925Y037633D01*
Y037567D01*
X009183Y0375D01*
X009117D01*
X009183D01*
X00925Y037433D01*
Y037367D01*
X009183Y0373D01*
X00905D01*
X008983Y037367D01*
X009383Y0373D02*
X009517D01*
X00945D01*
Y0377D01*
X009383Y037633D01*
X008467Y0488D02*
Y0492D01*
X008667D01*
X008733Y049133D01*
Y049D01*
X008667Y048933D01*
X008467D01*
X0086D02*
X008733Y0488D01*
X008867Y049133D02*
X008933Y0492D01*
X009067D01*
X009133Y049133D01*
Y049067D01*
X009067Y049D01*
X009D01*
X009067D01*
X009133Y048933D01*
Y048867D01*
X009067Y0488D01*
X008933D01*
X008867Y048867D01*
X009267Y049133D02*
X009333Y0492D01*
X009467D01*
X009533Y049133D01*
Y048867D01*
X009467Y0488D01*
X009333D01*
X009267Y048867D01*
Y049133D01*
X00885Y025067D02*
X00845D01*
Y025267D01*
X008517Y025333D01*
X00865D01*
X008717Y025267D01*
Y025067D01*
Y0252D02*
X00885Y025333D01*
Y025733D02*
Y025467D01*
X008583Y025733D01*
X008517D01*
X00845Y025667D01*
Y025533D01*
X008517Y025467D01*
Y025867D02*
X00845Y025933D01*
Y026067D01*
X008517Y026133D01*
X008583D01*
X00865Y026067D01*
X008717Y026133D01*
X008783D01*
X00885Y026067D01*
Y025933D01*
X008783Y025867D01*
X008717D01*
X00865Y025933D01*
X008583Y025867D01*
X008517D01*
X00865Y025933D02*
Y026067D01*
X01414Y03738D02*
Y03778D01*
X01434D01*
X014407Y037713D01*
Y03758D01*
X01434Y037513D01*
X01414D01*
X014273D02*
X014407Y03738D01*
X014806D02*
X01454D01*
X014806Y037647D01*
Y037713D01*
X01474Y03778D01*
X014607D01*
X01454Y037713D01*
X015206Y03778D02*
X015073Y037713D01*
X01494Y03758D01*
Y037447D01*
X015006Y03738D01*
X01514D01*
X015206Y037447D01*
Y037513D01*
X01514Y03758D01*
X01494D01*
X01414Y04883D02*
Y04923D01*
X01434D01*
X014407Y049163D01*
Y04903D01*
X01434Y048963D01*
X01414D01*
X014273D02*
X014407Y04883D01*
X014806D02*
X01454D01*
X014806Y049097D01*
Y049163D01*
X01474Y04923D01*
X014607D01*
X01454Y049163D01*
X015206Y04923D02*
X01494D01*
Y04903D01*
X015073Y049097D01*
X01514D01*
X015206Y04903D01*
Y048897D01*
X01514Y04883D01*
X015006D01*
X01494Y048897D01*
X00885Y014267D02*
X00845D01*
Y014467D01*
X008517Y014533D01*
X00865D01*
X008717Y014467D01*
Y014267D01*
Y0144D02*
X00885Y014533D01*
Y014933D02*
Y014667D01*
X008583Y014933D01*
X008517D01*
X00845Y014867D01*
Y014733D01*
X008517Y014667D01*
X00885Y015267D02*
X00845D01*
X00865Y015067D01*
Y015333D01*
X01444Y02737D02*
Y02777D01*
X01464D01*
X014707Y027703D01*
Y02757D01*
X01464Y027503D01*
X01444D01*
X014573D02*
X014707Y02737D01*
X015106D02*
X01484D01*
X015106Y027637D01*
Y027703D01*
X01504Y02777D01*
X014907D01*
X01484Y027703D01*
X01524D02*
X015306Y02777D01*
X01544D01*
X015506Y027703D01*
Y027637D01*
X01544Y02757D01*
X015373D01*
X01544D01*
X015506Y027503D01*
Y027437D01*
X01544Y02737D01*
X015306D01*
X01524Y027437D01*
X012067Y02805D02*
Y02845D01*
X012267D01*
X012333Y028383D01*
Y02825D01*
X012267Y028183D01*
X012067D01*
X0122D02*
X012333Y02805D01*
X012733D02*
X012467D01*
X012733Y028317D01*
Y028383D01*
X012667Y02845D01*
X012533D01*
X012467Y028383D01*
X013133Y02805D02*
X012867D01*
X013133Y028317D01*
Y028383D01*
X013067Y02845D01*
X012933D01*
X012867Y028383D01*
X0088Y016483D02*
X0084D01*
Y016683D01*
X008467Y01675D01*
X0086D01*
X008667Y016683D01*
Y016483D01*
Y016617D02*
X0088Y01675D01*
Y01715D02*
Y016883D01*
X008533Y01715D01*
X008467D01*
X0084Y017083D01*
Y01695D01*
X008467Y016883D01*
X0088Y017283D02*
Y017417D01*
Y01735D01*
X0084D01*
X008467Y017283D01*
X01444Y01737D02*
Y01777D01*
X01464D01*
X014707Y017703D01*
Y01757D01*
X01464Y017503D01*
X01444D01*
X014573D02*
X014707Y01737D01*
X015106D02*
X01484D01*
X015106Y017637D01*
Y017703D01*
X01504Y01777D01*
X014907D01*
X01484Y017703D01*
X01524D02*
X015306Y01777D01*
X01544D01*
X015506Y017703D01*
Y017437D01*
X01544Y01737D01*
X015306D01*
X01524Y017437D01*
Y017703D01*
X0086Y05115D02*
Y05155D01*
X0088D01*
X008867Y051483D01*
Y05135D01*
X0088Y051283D01*
X0086D01*
X008733D02*
X008867Y05115D01*
X009D02*
X009133D01*
X009067D01*
Y05155D01*
X009Y051483D01*
X009333Y051217D02*
X0094Y05115D01*
X009533D01*
X0096Y051217D01*
Y051483D01*
X009533Y05155D01*
X0094D01*
X009333Y051483D01*
Y051417D01*
X0094Y05135D01*
X0096D01*
X00855Y0396D02*
Y04D01*
X00875D01*
X008817Y039933D01*
Y0398D01*
X00875Y039733D01*
X00855D01*
X008683D02*
X008817Y0396D01*
X00895D02*
X009083D01*
X009017D01*
Y04D01*
X00895Y039933D01*
X009283D02*
X00935Y04D01*
X009483D01*
X00955Y039933D01*
Y039867D01*
X009483Y0398D01*
X00955Y039733D01*
Y039667D01*
X009483Y0396D01*
X00935D01*
X009283Y039667D01*
Y039733D01*
X00935Y0398D01*
X009283Y039867D01*
Y039933D01*
X00935Y0398D02*
X009483D01*
X0089Y02815D02*
X0085D01*
Y02835D01*
X008567Y028417D01*
X0087D01*
X008767Y02835D01*
Y02815D01*
Y028283D02*
X0089Y028417D01*
Y02855D02*
Y028683D01*
Y028617D01*
X0085D01*
X008567Y02855D01*
X0085Y02915D02*
Y028883D01*
X0087D01*
X008633Y029017D01*
Y029083D01*
X0087Y02915D01*
X008833D01*
X0089Y029083D01*
Y02895D01*
X008833Y028883D01*
X01414Y05123D02*
Y05163D01*
X01434D01*
X014407Y051563D01*
Y05143D01*
X01434Y051363D01*
X01414D01*
X014273D02*
X014407Y05123D01*
X01454D02*
X014673D01*
X014607D01*
Y05163D01*
X01454Y051563D01*
X015073Y05123D02*
Y05163D01*
X014873Y05143D01*
X01514D01*
X01414Y03968D02*
Y04008D01*
X01434D01*
X014407Y040013D01*
Y03988D01*
X01434Y039813D01*
X01414D01*
X014273D02*
X014407Y03968D01*
X01454D02*
X014673D01*
X014607D01*
Y04008D01*
X01454Y040013D01*
X014873D02*
X01494Y04008D01*
X015073D01*
X01514Y040013D01*
Y039947D01*
X015073Y03988D01*
X015006D01*
X015073D01*
X01514Y039813D01*
Y039747D01*
X015073Y03968D01*
X01494D01*
X014873Y039747D01*
X0098Y0179D02*
X0102D01*
Y0177D01*
X010133Y017633D01*
X01D01*
X009933Y0177D01*
Y0179D01*
Y017767D02*
X0098Y017633D01*
Y0175D02*
Y017367D01*
Y017433D01*
X0102D01*
X010133Y0175D01*
X0098Y0169D02*
Y017167D01*
X010067Y0169D01*
X010133D01*
X0102Y016967D01*
Y0171D01*
X010133Y017167D01*
X01444Y03022D02*
Y03062D01*
X01464D01*
X014707Y030553D01*
Y03042D01*
X01464Y030353D01*
X01444D01*
X014573D02*
X014707Y03022D01*
X01484D02*
X014973D01*
X014907D01*
Y03062D01*
X01484Y030553D01*
X015173Y03022D02*
X015306D01*
X01524D01*
Y03062D01*
X015173Y030553D01*
X01153Y0309D02*
Y0313D01*
X01173D01*
X011797Y031233D01*
Y0311D01*
X01173Y031033D01*
X01153D01*
X011663D02*
X011797Y0309D01*
X01193D02*
X012063D01*
X011997D01*
Y0313D01*
X01193Y031233D01*
X012263D02*
X01233Y0313D01*
X012463D01*
X01253Y031233D01*
Y030967D01*
X012463Y0309D01*
X01233D01*
X012263Y030967D01*
Y031233D01*
X008417Y01905D02*
Y01945D01*
X008617D01*
X008683Y019383D01*
Y01925D01*
X008617Y019183D01*
X008417D01*
X00855D02*
X008683Y01905D01*
X008817Y019117D02*
X008883Y01905D01*
X009017D01*
X009083Y019117D01*
Y019383D01*
X009017Y01945D01*
X008883D01*
X008817Y019383D01*
Y019317D01*
X008883Y01925D01*
X009083D01*
X01444Y01977D02*
Y02017D01*
X01464D01*
X014707Y020103D01*
Y01997D01*
X01464Y019903D01*
X01444D01*
X014573D02*
X014707Y01977D01*
X01484Y020103D02*
X014907Y02017D01*
X01504D01*
X015106Y020103D01*
Y020037D01*
X01504Y01997D01*
X015106Y019903D01*
Y019837D01*
X01504Y01977D01*
X014907D01*
X01484Y019837D01*
Y019903D01*
X014907Y01997D01*
X01484Y020037D01*
Y020103D01*
X014907Y01997D02*
X01504D01*
X008867Y0534D02*
Y0538D01*
X009067D01*
X009133Y053733D01*
Y0536D01*
X009067Y053533D01*
X008867D01*
X009D02*
X009133Y0534D01*
X009267Y0538D02*
X009533D01*
Y053733D01*
X009267Y053467D01*
Y0534D01*
X01414Y05348D02*
Y05388D01*
X01434D01*
X014407Y053813D01*
Y05368D01*
X01434Y053613D01*
X01414D01*
X014273D02*
X014407Y05348D01*
X014806Y05388D02*
X01454D01*
Y05368D01*
X014673Y053747D01*
X01474D01*
X014806Y05368D01*
Y053547D01*
X01474Y05348D01*
X014607D01*
X01454Y053547D01*
X008867Y0557D02*
Y0561D01*
X009067D01*
X009133Y056033D01*
Y0559D01*
X009067Y055833D01*
X008867D01*
X009D02*
X009133Y0557D01*
X009467D02*
Y0561D01*
X009267Y0559D01*
X009533D01*
X01414Y05578D02*
Y05618D01*
X01434D01*
X014407Y056113D01*
Y05598D01*
X01434Y055913D01*
X01414D01*
X014273D02*
X014407Y05578D01*
X014806D02*
X01454D01*
X014806Y056047D01*
Y056113D01*
X01474Y05618D01*
X014607D01*
X01454Y056113D01*
X02983Y0588D02*
Y0592D01*
X03003D01*
X030097Y059133D01*
Y059D01*
X03003Y058933D01*
X02983D01*
X029963D02*
X030097Y0588D01*
X03023D02*
X030363D01*
X030297D01*
Y0592D01*
X03023Y059133D01*
X05605Y02802D02*
Y02842D01*
X05625D01*
X056317Y028353D01*
Y02822D01*
X05625Y028153D01*
X05605D01*
X05645Y02802D02*
X056583D01*
X056517D01*
Y02842D01*
X05645Y028353D01*
X05705Y02842D02*
X056783D01*
Y02822D01*
X056916Y028287D01*
X056983D01*
X05705Y02822D01*
Y028087D01*
X056983Y02802D01*
X05685D01*
X056783Y028087D01*
X05605Y04412D02*
Y04452D01*
X05625D01*
X056317Y044453D01*
Y04432D01*
X05625Y044253D01*
X05605D01*
X05645Y04412D02*
X056583D01*
X056517D01*
Y04452D01*
X05645Y044453D01*
X056783D02*
X05685Y04452D01*
X056983D01*
X05705Y044453D01*
Y044387D01*
X056983Y04432D01*
X056916D01*
X056983D01*
X05705Y044253D01*
Y044187D01*
X056983Y04412D01*
X05685D01*
X056783Y044187D01*
X05605Y0543D02*
Y0547D01*
X05625D01*
X056317Y054633D01*
Y0545D01*
X05625Y054433D01*
X05605D01*
X05645Y0543D02*
X056583D01*
X056517D01*
Y0547D01*
X05645Y054633D01*
X056783Y0543D02*
X056916D01*
X05685D01*
Y0547D01*
X056783Y054633D01*
X05605Y0644D02*
Y0648D01*
X05625D01*
X056317Y064733D01*
Y0646D01*
X05625Y064533D01*
X05605D01*
X05645Y064467D02*
X056517Y0644D01*
X05665D01*
X056716Y064467D01*
Y064733D01*
X05665Y0648D01*
X056517D01*
X05645Y064733D01*
Y064667D01*
X056517Y0646D01*
X056716D01*
X02125Y0233D02*
Y0237D01*
X02145D01*
X021517Y023633D01*
Y0235D01*
X02145Y023433D01*
X02125D01*
X021916Y0237D02*
X021783Y023633D01*
X02165Y0235D01*
Y023367D01*
X021717Y0233D01*
X02185D01*
X021916Y023367D01*
Y023433D01*
X02185Y0235D01*
X02165D01*
X0245Y02495D02*
Y02535D01*
X0247D01*
X024767Y025283D01*
Y02515D01*
X0247Y025083D01*
X0245D01*
X025166Y02535D02*
X0249D01*
Y02515D01*
X025033Y025217D01*
X0251D01*
X025166Y02515D01*
Y025017D01*
X0251Y02495D01*
X024967D01*
X0249Y025017D01*
X01815Y05358D02*
Y05398D01*
X01835D01*
X018417Y053913D01*
Y05378D01*
X01835Y053713D01*
X01815D01*
X01875Y05358D02*
Y05398D01*
X01855Y05378D01*
X018816D01*
X028617Y0135D02*
Y0139D01*
X028817D01*
X028883Y013833D01*
Y0137D01*
X028817Y013633D01*
X028617D01*
X029017Y013833D02*
X029083Y0139D01*
X029217D01*
X029283Y013833D01*
Y013767D01*
X029217Y0137D01*
X02915D01*
X029217D01*
X029283Y013633D01*
Y013567D01*
X029217Y0135D01*
X029083D01*
X029017Y013567D01*
X0497Y0119D02*
Y0123D01*
X0499D01*
X049967Y012233D01*
Y0121D01*
X0499Y012033D01*
X0497D01*
X050366Y0119D02*
X0501D01*
X050366Y012167D01*
Y012233D01*
X0503Y0123D01*
X050167D01*
X0501Y012233D01*
X01525Y01365D02*
Y01405D01*
X01545D01*
X015517Y013983D01*
Y01385D01*
X01545Y013783D01*
X01525D01*
X01565Y01365D02*
X015783D01*
X015717D01*
Y01405D01*
X01565Y013983D01*
X027817Y052D02*
Y0516D01*
X028084D01*
X028483Y052D02*
X028217D01*
Y0516D01*
X028483D01*
X028217Y0518D02*
X02835D01*
X028617Y052D02*
Y0516D01*
X028817D01*
X028883Y051667D01*
Y051933D01*
X028817Y052D01*
X028617D01*
X029283Y0516D02*
X029017D01*
X029283Y051867D01*
Y051933D01*
X029217Y052D01*
X029083D01*
X029017Y051933D01*
X029416D02*
X029483Y052D01*
X029616D01*
X029683Y051933D01*
Y051667D01*
X029616Y0516D01*
X029483D01*
X029416Y051667D01*
Y051933D01*
X00695Y0437D02*
X00735D01*
Y043967D01*
X00695Y044367D02*
Y0441D01*
X00735D01*
Y044367D01*
X00715Y0441D02*
Y044233D01*
X00695Y0445D02*
X00735D01*
Y0447D01*
X007283Y044767D01*
X007017D01*
X00695Y0447D01*
Y0445D01*
X00735Y0449D02*
Y045033D01*
Y044967D01*
X00695D01*
X007017Y0449D01*
X007283Y045233D02*
X00735Y0453D01*
Y045433D01*
X007283Y0455D01*
X007017D01*
X00695Y045433D01*
Y0453D01*
X007017Y045233D01*
X007083D01*
X00715Y0453D01*
Y0455D01*
X007Y0291D02*
X0074D01*
Y029367D01*
X007Y029767D02*
Y0295D01*
X0074D01*
Y029767D01*
X0072Y0295D02*
Y029633D01*
X007Y0299D02*
X0074D01*
Y0301D01*
X007333Y030167D01*
X007067D01*
X007Y0301D01*
Y0299D01*
X0074Y0303D02*
Y030433D01*
Y030367D01*
X007D01*
X007067Y0303D01*
Y030633D02*
X007Y0307D01*
Y030833D01*
X007067Y0309D01*
X007133D01*
X0072Y030833D01*
X007267Y0309D01*
X007333D01*
X0074Y030833D01*
Y0307D01*
X007333Y030633D01*
X007267D01*
X0072Y0307D01*
X007133Y030633D01*
X007067D01*
X0072Y0307D02*
Y030833D01*
X00695Y04595D02*
X00735D01*
Y046217D01*
X00695Y046617D02*
Y04635D01*
X00735D01*
Y046617D01*
X00715Y04635D02*
Y046483D01*
X00695Y04675D02*
X00735D01*
Y04695D01*
X007283Y047017D01*
X007017D01*
X00695Y04695D01*
Y04675D01*
X00735Y04715D02*
Y047283D01*
Y047217D01*
X00695D01*
X007017Y04715D01*
X00695Y047483D02*
Y04775D01*
X007017D01*
X007283Y047483D01*
X00735D01*
X00695Y0198D02*
X00735D01*
Y020067D01*
X00695Y020467D02*
Y0202D01*
X00735D01*
Y020467D01*
X00715Y0202D02*
Y020333D01*
X00695Y0206D02*
X00735D01*
Y0208D01*
X007283Y020867D01*
X007017D01*
X00695Y0208D01*
Y0206D01*
X00735Y021D02*
Y021133D01*
Y021067D01*
X00695D01*
X007017Y021D01*
X00695Y0216D02*
X007017Y021466D01*
X00715Y021333D01*
X007283D01*
X00735Y0214D01*
Y021533D01*
X007283Y0216D01*
X007217D01*
X00715Y021533D01*
Y021333D01*
X00695Y0328D02*
X00735D01*
Y033067D01*
X00695Y033467D02*
Y0332D01*
X00735D01*
Y033467D01*
X00715Y0332D02*
Y033333D01*
X00695Y0336D02*
X00735D01*
Y0338D01*
X007283Y033867D01*
X007017D01*
X00695Y0338D01*
Y0336D01*
X00735Y034D02*
Y034133D01*
Y034067D01*
X00695D01*
X007017Y034D01*
X00695Y0346D02*
Y034333D01*
X00715D01*
X007083Y034466D01*
Y034533D01*
X00715Y0346D01*
X007283D01*
X00735Y034533D01*
Y0344D01*
X007283Y034333D01*
X0069Y048D02*
X0073D01*
Y048267D01*
X0069Y048667D02*
Y0484D01*
X0073D01*
Y048667D01*
X0071Y0484D02*
Y048533D01*
X0069Y0488D02*
X0073D01*
Y049D01*
X007233Y049067D01*
X006967D01*
X0069Y049D01*
Y0488D01*
X0073Y0492D02*
Y049333D01*
Y049267D01*
X0069D01*
X006967Y0492D01*
X0073Y049733D02*
X0069D01*
X0071Y049533D01*
Y0498D01*
X00695Y02185D02*
X00735D01*
Y022117D01*
X00695Y022517D02*
Y02225D01*
X00735D01*
Y022517D01*
X00715Y02225D02*
Y022383D01*
X00695Y02265D02*
X00735D01*
Y02285D01*
X007283Y022917D01*
X007017D01*
X00695Y02285D01*
Y02265D01*
X00735Y02305D02*
Y023183D01*
Y023117D01*
X00695D01*
X007017Y02305D01*
Y023383D02*
X00695Y02345D01*
Y023583D01*
X007017Y02365D01*
X007083D01*
X00715Y023583D01*
Y023516D01*
Y023583D01*
X007217Y02365D01*
X007283D01*
X00735Y023583D01*
Y02345D01*
X007283Y023383D01*
X0069Y01385D02*
X0073D01*
Y014117D01*
X0069Y014517D02*
Y01425D01*
X0073D01*
Y014517D01*
X0071Y01425D02*
Y014383D01*
X0069Y01465D02*
X0073D01*
Y01485D01*
X007233Y014917D01*
X006967D01*
X0069Y01485D01*
Y01465D01*
X0073Y01505D02*
Y015183D01*
Y015117D01*
X0069D01*
X006967Y01505D01*
X0073Y01565D02*
Y015383D01*
X007033Y01565D01*
X006967D01*
X0069Y015583D01*
Y01545D01*
X006967Y015383D01*
X00695Y036917D02*
X00735D01*
Y037184D01*
X00695Y037583D02*
Y037317D01*
X00735D01*
Y037583D01*
X00715Y037317D02*
Y03745D01*
X00695Y037717D02*
X00735D01*
Y037917D01*
X007283Y037983D01*
X007017D01*
X00695Y037917D01*
Y037717D01*
X00735Y038117D02*
Y03825D01*
Y038183D01*
X00695D01*
X007017Y038117D01*
X00735Y03845D02*
Y038583D01*
Y038516D01*
X00695D01*
X007017Y03845D01*
X007Y05D02*
X0074D01*
Y050267D01*
X007Y050667D02*
Y0504D01*
X0074D01*
Y050667D01*
X0072Y0504D02*
Y050533D01*
X007Y0508D02*
X0074D01*
Y051D01*
X007333Y051067D01*
X007067D01*
X007Y051D01*
Y0508D01*
X0074Y0512D02*
Y051333D01*
Y051267D01*
X007D01*
X007067Y0512D01*
Y051533D02*
X007Y0516D01*
Y051733D01*
X007067Y0518D01*
X007333D01*
X0074Y051733D01*
Y0516D01*
X007333Y051533D01*
X007067D01*
X00695Y023967D02*
X00735D01*
Y024233D01*
X00695Y024633D02*
Y024367D01*
X00735D01*
Y024633D01*
X00715Y024367D02*
Y0245D01*
X00695Y024767D02*
X00735D01*
Y024967D01*
X007283Y025033D01*
X007017D01*
X00695Y024967D01*
Y024767D01*
X007283Y025167D02*
X00735Y025233D01*
Y025366D01*
X007283Y025433D01*
X007017D01*
X00695Y025366D01*
Y025233D01*
X007017Y025167D01*
X007083D01*
X00715Y025233D01*
Y025433D01*
X00695Y015917D02*
X00735D01*
Y016183D01*
X00695Y016583D02*
Y016317D01*
X00735D01*
Y016583D01*
X00715Y016317D02*
Y01645D01*
X00695Y016717D02*
X00735D01*
Y016917D01*
X007283Y016983D01*
X007017D01*
X00695Y016917D01*
Y016717D01*
X007017Y017117D02*
X00695Y017183D01*
Y017316D01*
X007017Y017383D01*
X007083D01*
X00715Y017316D01*
X007217Y017383D01*
X007283D01*
X00735Y017316D01*
Y017183D01*
X007283Y017117D01*
X007217D01*
X00715Y017183D01*
X007083Y017117D01*
X007017D01*
X00715Y017183D02*
Y017316D01*
X007Y052067D02*
X0074D01*
Y052333D01*
X007Y052733D02*
Y052467D01*
X0074D01*
Y052733D01*
X0072Y052467D02*
Y0526D01*
X007Y052867D02*
X0074D01*
Y053067D01*
X007333Y053133D01*
X007067D01*
X007Y053067D01*
Y052867D01*
Y053267D02*
Y053533D01*
X007067D01*
X007333Y053267D01*
X0074D01*
X00695Y041017D02*
X00735D01*
Y041283D01*
X00695Y041683D02*
Y041417D01*
X00735D01*
Y041683D01*
X00715Y041417D02*
Y04155D01*
X00695Y041817D02*
X00735D01*
Y042017D01*
X007283Y042083D01*
X007017D01*
X00695Y042017D01*
Y041817D01*
Y042483D02*
X007017Y04235D01*
X00715Y042217D01*
X007283D01*
X00735Y042283D01*
Y042416D01*
X007283Y042483D01*
X007217D01*
X00715Y042416D01*
Y042217D01*
X007Y025967D02*
X0074D01*
Y026233D01*
X007Y026633D02*
Y026367D01*
X0074D01*
Y026633D01*
X0072Y026367D02*
Y0265D01*
X007Y026767D02*
X0074D01*
Y026967D01*
X007333Y027033D01*
X007067D01*
X007Y026967D01*
Y026767D01*
Y027433D02*
Y027167D01*
X0072D01*
X007133Y0273D01*
Y027366D01*
X0072Y027433D01*
X007333D01*
X0074Y027366D01*
Y027233D01*
X007333Y027167D01*
X00695Y017967D02*
X00735D01*
Y018233D01*
X00695Y018633D02*
Y018367D01*
X00735D01*
Y018633D01*
X00715Y018367D02*
Y0185D01*
X00695Y018767D02*
X00735D01*
Y018967D01*
X007283Y019033D01*
X007017D01*
X00695Y018967D01*
Y018767D01*
X00735Y019366D02*
X00695D01*
X00715Y019167D01*
Y019433D01*
X007Y054267D02*
X0074D01*
Y054533D01*
X007Y054933D02*
Y054667D01*
X0074D01*
Y054933D01*
X0072Y054667D02*
Y0548D01*
X007Y055067D02*
X0074D01*
Y055267D01*
X007333Y055333D01*
X007067D01*
X007Y055267D01*
Y055067D01*
X007067Y055467D02*
X007Y055533D01*
Y055666D01*
X007067Y055733D01*
X007133D01*
X0072Y055666D01*
Y0556D01*
Y055666D01*
X007267Y055733D01*
X007333D01*
X0074Y055666D01*
Y055533D01*
X007333Y055467D01*
X007Y056217D02*
X0074D01*
Y056483D01*
X007Y056883D02*
Y056617D01*
X0074D01*
Y056883D01*
X0072Y056617D02*
Y05675D01*
X007Y057017D02*
X0074D01*
Y057217D01*
X007333Y057283D01*
X007067D01*
X007Y057217D01*
Y057017D01*
X0074Y057683D02*
Y057417D01*
X007133Y057683D01*
X007067D01*
X007Y057616D01*
Y057483D01*
X007067Y057417D01*
X02936Y05822D02*
Y05782D01*
X029627D01*
X030026Y05822D02*
X02976D01*
Y05782D01*
X030026D01*
X02976Y05802D02*
X029893D01*
X03016Y05822D02*
Y05782D01*
X03036D01*
X030426Y057887D01*
Y058153D01*
X03036Y05822D01*
X03016D01*
X03056Y05782D02*
X030693D01*
X030626D01*
Y05822D01*
X03056Y058153D01*
X0296Y06689D02*
Y06649D01*
X029867D01*
X030266D02*
X03D01*
X030266Y066757D01*
Y066823D01*
X0302Y06689D01*
X030067D01*
X03Y066823D01*
X01644Y06755D02*
Y06715D01*
X016707D01*
X01684D02*
X016973D01*
X016907D01*
Y06755D01*
X01684Y067483D01*
X03085Y01395D02*
X030984D01*
X030917D01*
Y01355D01*
X03085D01*
X030984D01*
X03145Y013883D02*
X031383Y01395D01*
X03125D01*
X031183Y013883D01*
Y013617D01*
X03125Y01355D01*
X031383D01*
X03145Y013617D01*
X03185Y01355D02*
X031583D01*
X03185Y013817D01*
Y013883D01*
X031783Y01395D01*
X03165D01*
X031583Y013883D01*
X03225Y01355D02*
X031983D01*
X03225Y013817D01*
Y013883D01*
X032183Y01395D01*
X03205D01*
X031983Y013883D01*
X054617Y0502D02*
X05475D01*
X054684D01*
Y0498D01*
X054617D01*
X05475D01*
X055217Y050133D02*
X05515Y0502D01*
X055017D01*
X05495Y050133D01*
Y049867D01*
X055017Y0498D01*
X05515D01*
X055217Y049867D01*
X055617Y0498D02*
X05535D01*
X055617Y050067D01*
Y050133D01*
X05555Y0502D01*
X055417D01*
X05535Y050133D01*
X05575Y0498D02*
X055883D01*
X055816D01*
Y0502D01*
X05575Y050133D01*
X05455Y03395D02*
X054684D01*
X054617D01*
Y03355D01*
X05455D01*
X054684D01*
X05515Y033883D02*
X055083Y03395D01*
X05495D01*
X054883Y033883D01*
Y033617D01*
X05495Y03355D01*
X055083D01*
X05515Y033617D01*
X05555Y03355D02*
X055283D01*
X05555Y033817D01*
Y033883D01*
X055483Y03395D01*
X05535D01*
X055283Y033883D01*
X055683D02*
X05575Y03395D01*
X055883D01*
X05595Y033883D01*
Y033617D01*
X055883Y03355D01*
X05575D01*
X055683Y033617D01*
Y033883D01*
X054534Y0522D02*
X054667D01*
X0546D01*
Y0518D01*
X054534D01*
X054667D01*
X055133Y052133D02*
X055067Y0522D01*
X054933D01*
X054867Y052133D01*
Y051867D01*
X054933Y0518D01*
X055067D01*
X055133Y051867D01*
X055267Y0518D02*
X0554D01*
X055333D01*
Y0522D01*
X055267Y052133D01*
X0556Y051867D02*
X055667Y0518D01*
X0558D01*
X055866Y051867D01*
Y052133D01*
X0558Y0522D01*
X055667D01*
X0556Y052133D01*
Y052067D01*
X055667Y052D01*
X055866D01*
X054584Y0359D02*
X054717D01*
X05465D01*
Y0355D01*
X054584D01*
X054717D01*
X055183Y035833D02*
X055117Y0359D01*
X054983D01*
X054917Y035833D01*
Y035567D01*
X054983Y0355D01*
X055117D01*
X055183Y035567D01*
X055317Y0355D02*
X05545D01*
X055383D01*
Y0359D01*
X055317Y035833D01*
X05565D02*
X055717Y0359D01*
X05585D01*
X055916Y035833D01*
Y035767D01*
X05585Y0357D01*
X055916Y035633D01*
Y035567D01*
X05585Y0355D01*
X055717D01*
X05565Y035567D01*
Y035633D01*
X055717Y0357D01*
X05565Y035767D01*
Y035833D01*
X055717Y0357D02*
X05585D01*
X054484Y0542D02*
X054617D01*
X05455D01*
Y0538D01*
X054484D01*
X054617D01*
X055083Y054133D02*
X055017Y0542D01*
X054883D01*
X054817Y054133D01*
Y053867D01*
X054883Y0538D01*
X055017D01*
X055083Y053867D01*
X055217Y0538D02*
X05535D01*
X055283D01*
Y0542D01*
X055217Y054133D01*
X05555Y0542D02*
X055816D01*
Y054133D01*
X05555Y053867D01*
Y0538D01*
X054584Y0379D02*
X054717D01*
X05465D01*
Y0375D01*
X054584D01*
X054717D01*
X055183Y037833D02*
X055117Y0379D01*
X054983D01*
X054917Y037833D01*
Y037567D01*
X054983Y0375D01*
X055117D01*
X055183Y037567D01*
X055317Y0375D02*
X05545D01*
X055383D01*
Y0379D01*
X055317Y037833D01*
X055916Y0379D02*
X055783Y037833D01*
X05565Y0377D01*
Y037567D01*
X055717Y0375D01*
X05585D01*
X055916Y037567D01*
Y037633D01*
X05585Y0377D01*
X05565D01*
X054534Y05625D02*
X054667D01*
X0546D01*
Y05585D01*
X054534D01*
X054667D01*
X055133Y056183D02*
X055067Y05625D01*
X054933D01*
X054867Y056183D01*
Y055917D01*
X054933Y05585D01*
X055067D01*
X055133Y055917D01*
X055267Y05585D02*
X0554D01*
X055333D01*
Y05625D01*
X055267Y056183D01*
X055866Y05625D02*
X0556D01*
Y05605D01*
X055733Y056117D01*
X0558D01*
X055866Y05605D01*
Y055917D01*
X0558Y05585D01*
X055667D01*
X0556Y055917D01*
X054584Y0399D02*
X054717D01*
X05465D01*
Y0395D01*
X054584D01*
X054717D01*
X055183Y039833D02*
X055117Y0399D01*
X054983D01*
X054917Y039833D01*
Y039567D01*
X054983Y0395D01*
X055117D01*
X055183Y039567D01*
X055317Y0395D02*
X05545D01*
X055383D01*
Y0399D01*
X055317Y039833D01*
X05585Y0395D02*
Y0399D01*
X05565Y0397D01*
X055916D01*
X04288Y015D02*
X043013D01*
X042947D01*
Y0146D01*
X04288D01*
X043013D01*
X04348Y014933D02*
X043413Y015D01*
X04328D01*
X043213Y014933D01*
Y014667D01*
X04328Y0146D01*
X043413D01*
X04348Y014667D01*
X043613Y0146D02*
X043746D01*
X04368D01*
Y015D01*
X043613Y014933D01*
X043946D02*
X044013Y015D01*
X044146D01*
X044213Y014933D01*
Y014867D01*
X044146Y0148D01*
X04408D01*
X044146D01*
X044213Y014733D01*
Y014667D01*
X044146Y0146D01*
X044013D01*
X043946Y014667D01*
X054584Y0583D02*
X054717D01*
X05465D01*
Y0579D01*
X054584D01*
X054717D01*
X055183Y058233D02*
X055117Y0583D01*
X054983D01*
X054917Y058233D01*
Y057967D01*
X054983Y0579D01*
X055117D01*
X055183Y057967D01*
X055317Y0579D02*
X05545D01*
X055383D01*
Y0583D01*
X055317Y058233D01*
X055916Y0579D02*
X05565D01*
X055916Y058167D01*
Y058233D01*
X05585Y0583D01*
X055717D01*
X05565Y058233D01*
X05475Y0419D02*
X054883D01*
X054817D01*
Y0415D01*
X05475D01*
X054883D01*
X05535Y041833D02*
X055283Y0419D01*
X05515D01*
X055083Y041833D01*
Y041567D01*
X05515Y0415D01*
X055283D01*
X05535Y041567D01*
X055483Y0415D02*
X055617D01*
X05555D01*
Y0419D01*
X055483Y041833D01*
X055817Y0415D02*
X05595D01*
X055883D01*
Y0419D01*
X055817Y041833D01*
X054584Y0603D02*
X054717D01*
X05465D01*
Y0599D01*
X054584D01*
X054717D01*
X055183Y060233D02*
X055117Y0603D01*
X054983D01*
X054917Y060233D01*
Y059967D01*
X054983Y0599D01*
X055117D01*
X055183Y059967D01*
X055317Y0599D02*
X05545D01*
X055383D01*
Y0603D01*
X055317Y060233D01*
X05565D02*
X055717Y0603D01*
X05585D01*
X055916Y060233D01*
Y059967D01*
X05585Y0599D01*
X055717D01*
X05565Y059967D01*
Y060233D01*
X05475Y04395D02*
X054883D01*
X054817D01*
Y04355D01*
X05475D01*
X054883D01*
X05535Y043883D02*
X055283Y04395D01*
X05515D01*
X055083Y043883D01*
Y043617D01*
X05515Y04355D01*
X055283D01*
X05535Y043617D01*
X055483D02*
X05555Y04355D01*
X055683D01*
X05575Y043617D01*
Y043883D01*
X055683Y04395D01*
X05555D01*
X055483Y043883D01*
Y043817D01*
X05555Y04375D01*
X05575D01*
X05255Y0224D02*
X052683D01*
X052617D01*
Y022D01*
X05255D01*
X052683D01*
X05315Y022333D02*
X053083Y0224D01*
X05295D01*
X052883Y022333D01*
Y022067D01*
X05295Y022D01*
X053083D01*
X05315Y022067D01*
X053283Y022333D02*
X05335Y0224D01*
X053483D01*
X05355Y022333D01*
Y022267D01*
X053483Y0222D01*
X05355Y022133D01*
Y022067D01*
X053483Y022D01*
X05335D01*
X053283Y022067D01*
Y022133D01*
X05335Y0222D01*
X053283Y022267D01*
Y022333D01*
X05335Y0222D02*
X053483D01*
X05475Y04605D02*
X054883D01*
X054817D01*
Y04565D01*
X05475D01*
X054883D01*
X05535Y045983D02*
X055283Y04605D01*
X05515D01*
X055083Y045983D01*
Y045717D01*
X05515Y04565D01*
X055283D01*
X05535Y045717D01*
X055483Y04605D02*
X05575D01*
Y045983D01*
X055483Y045717D01*
Y04565D01*
X0548Y0319D02*
X054933D01*
X054867D01*
Y0315D01*
X0548D01*
X054933D01*
X0554Y031833D02*
X055333Y0319D01*
X0552D01*
X055133Y031833D01*
Y031567D01*
X0552Y0315D01*
X055333D01*
X0554Y031567D01*
X0558Y0319D02*
X055667Y031833D01*
X055533Y0317D01*
Y031567D01*
X0556Y0315D01*
X055733D01*
X0558Y031567D01*
Y031633D01*
X055733Y0317D01*
X055533D01*
X05485Y0299D02*
X054983D01*
X054917D01*
Y0295D01*
X05485D01*
X054983D01*
X05545Y029833D02*
X055383Y0299D01*
X05525D01*
X055183Y029833D01*
Y029567D01*
X05525Y0295D01*
X055383D01*
X05545Y029567D01*
X05585Y0299D02*
X055583D01*
Y0297D01*
X055717Y029767D01*
X055783D01*
X05585Y0297D01*
Y029567D01*
X055783Y0295D01*
X05565D01*
X055583Y029567D01*
X054Y06445D02*
X054133D01*
X054067D01*
Y06405D01*
X054D01*
X054133D01*
X0546Y064383D02*
X054533Y06445D01*
X0544D01*
X054333Y064383D01*
Y064117D01*
X0544Y06405D01*
X054533D01*
X0546Y064117D01*
X054933Y06405D02*
Y06445D01*
X054733Y06425D01*
X055D01*
X05475Y04805D02*
X054883D01*
X054817D01*
Y04765D01*
X05475D01*
X054883D01*
X05535Y047983D02*
X055283Y04805D01*
X05515D01*
X055083Y047983D01*
Y047717D01*
X05515Y04765D01*
X055283D01*
X05535Y047717D01*
X055483Y047983D02*
X05555Y04805D01*
X055683D01*
X05575Y047983D01*
Y047917D01*
X055683Y04785D01*
X055617D01*
X055683D01*
X05575Y047783D01*
Y047717D01*
X055683Y04765D01*
X05555D01*
X055483Y047717D01*
X0169Y02055D02*
Y020683D01*
Y020617D01*
X0173D01*
Y02055D01*
Y020683D01*
X016967Y02115D02*
X0169Y021083D01*
Y02095D01*
X016967Y020883D01*
X017233D01*
X0173Y02095D01*
Y021083D01*
X017233Y02115D01*
X0173Y02155D02*
Y021283D01*
X017033Y02155D01*
X016967D01*
X0169Y021483D01*
Y02135D01*
X016967Y021283D01*
X02572Y06029D02*
X025853D01*
X025787D01*
Y05989D01*
X02572D01*
X025853D01*
X02632Y060223D02*
X026253Y06029D01*
X02612D01*
X026053Y060223D01*
Y059957D01*
X02612Y05989D01*
X026253D01*
X02632Y059957D01*
X026453Y05989D02*
X026586D01*
X02652D01*
Y06029D01*
X026453Y060223D01*
X02815Y02912D02*
Y02872D01*
X02835D01*
X028417Y028787D01*
Y029053D01*
X02835Y02912D01*
X02815D01*
X028816D02*
X02855D01*
Y02892D01*
X028683D01*
X02855D01*
Y02872D01*
X02895D02*
Y02912D01*
X02915D01*
X029216Y029053D01*
Y02892D01*
X02915Y028853D01*
X02895D01*
X02935Y02872D02*
X029483D01*
X029416D01*
Y02912D01*
X02935D01*
X029749Y028987D02*
X029883D01*
X029949Y02892D01*
Y02872D01*
X029749D01*
X029683Y028787D01*
X029749Y028853D01*
X029949D01*
X030083Y028987D02*
Y028787D01*
X030149Y02872D01*
X030349D01*
Y028653D01*
X030283Y028587D01*
X030216D01*
X030349Y02872D02*
Y028987D01*
X030683Y02872D02*
X030549D01*
X030483Y028787D01*
Y02892D01*
X030549Y028987D01*
X030683D01*
X030749Y02892D01*
Y028853D01*
X030483D01*
X030882Y028987D02*
Y02872D01*
Y028853D01*
X030949Y02892D01*
X031016Y028987D01*
X031082D01*
X008967Y0217D02*
Y0213D01*
X009167D01*
X009233Y021367D01*
Y021633D01*
X009167Y0217D01*
X008967D01*
X009633D02*
X0095Y021633D01*
X009367Y0215D01*
Y021367D01*
X009433Y0213D01*
X009567D01*
X009633Y021367D01*
Y021433D01*
X009567Y0215D01*
X009367D01*
X008967Y02445D02*
Y02405D01*
X009167D01*
X009233Y024117D01*
Y024383D01*
X009167Y02445D01*
X008967D01*
X009633D02*
X009367D01*
Y02425D01*
X0095Y024317D01*
X009567D01*
X009633Y02425D01*
Y024117D01*
X009567Y02405D01*
X009433D01*
X009367Y024117D01*
X008967Y02705D02*
Y02665D01*
X009167D01*
X009233Y026717D01*
Y026983D01*
X009167Y02705D01*
X008967D01*
X009567Y02665D02*
Y02705D01*
X009367Y02685D01*
X009633D01*
X008917Y03025D02*
Y02985D01*
X009117D01*
X009183Y029917D01*
Y030183D01*
X009117Y03025D01*
X008917D01*
X009317Y030183D02*
X009383Y03025D01*
X009517D01*
X009583Y030183D01*
Y030117D01*
X009517Y03005D01*
X00945D01*
X009517D01*
X009583Y029983D01*
Y029917D01*
X009517Y02985D01*
X009383D01*
X009317Y029917D01*
X0273Y06175D02*
Y06135D01*
X0275D01*
X027567Y061417D01*
Y061683D01*
X0275Y06175D01*
X0273D01*
X027966Y06135D02*
X0277D01*
X027966Y061617D01*
Y061683D01*
X0279Y06175D01*
X027767D01*
X0277Y061683D01*
X0204Y061467D02*
X02D01*
Y061267D01*
X020067Y0612D01*
X020333D01*
X0204Y061267D01*
Y061467D01*
X02Y061067D02*
Y060933D01*
Y061D01*
X0204D01*
X020333Y061067D01*
X027807Y015553D02*
X02774Y01562D01*
X027607D01*
X02754Y015553D01*
Y015287D01*
X027607Y01522D01*
X02774D01*
X027807Y015287D01*
X02794Y015553D02*
X028007Y01562D01*
X02814D01*
X028206Y015553D01*
Y015487D01*
X02814Y01542D01*
X028073D01*
X02814D01*
X028206Y015353D01*
Y015287D01*
X02814Y01522D01*
X028007D01*
X02794Y015287D01*
X02834Y01562D02*
X028606D01*
Y015553D01*
X02834Y015287D01*
Y01522D01*
X026417Y04225D02*
X02635Y042183D01*
Y04205D01*
X026417Y041983D01*
X026683D01*
X02675Y04205D01*
Y042183D01*
X026683Y04225D01*
X026417Y042383D02*
X02635Y04245D01*
Y042583D01*
X026417Y04265D01*
X026483D01*
X02655Y042583D01*
Y042517D01*
Y042583D01*
X026617Y04265D01*
X026683D01*
X02675Y042583D01*
Y04245D01*
X026683Y042383D01*
X02675Y042783D02*
Y042917D01*
Y04285D01*
X02635D01*
X026417Y042783D01*
X034907Y015293D02*
X03484Y01536D01*
X034707D01*
X03464Y015293D01*
Y015027D01*
X034707Y01496D01*
X03484D01*
X034907Y015027D01*
X035306Y01496D02*
X03504D01*
X035306Y015227D01*
Y015293D01*
X03524Y01536D01*
X035107D01*
X03504Y015293D01*
X03564Y01496D02*
Y01536D01*
X03544Y01516D01*
X035706D01*
X027497Y017433D02*
X02743Y0175D01*
X027297D01*
X02723Y017433D01*
Y017167D01*
X027297Y0171D01*
X02743D01*
X027497Y017167D01*
X027896Y0171D02*
X02763D01*
X027896Y017367D01*
Y017433D01*
X02783Y0175D01*
X027697D01*
X02763Y017433D01*
X02803D02*
X028096Y0175D01*
X02823D01*
X028296Y017433D01*
Y017367D01*
X02823Y0173D01*
X028163D01*
X02823D01*
X028296Y017233D01*
Y017167D01*
X02823Y0171D01*
X028096D01*
X02803Y017167D01*
X042497Y023243D02*
X04243Y02331D01*
X042297D01*
X04223Y023243D01*
Y022977D01*
X042297Y02291D01*
X04243D01*
X042497Y022977D01*
X042896Y02291D02*
X04263D01*
X042896Y023177D01*
Y023243D01*
X04283Y02331D01*
X042697D01*
X04263Y023243D01*
X04303Y02291D02*
X043163D01*
X043096D01*
Y02331D01*
X04303Y023243D01*
X038477Y018053D02*
X03841Y01812D01*
X038277D01*
X03821Y018053D01*
Y017787D01*
X038277Y01772D01*
X03841D01*
X038477Y017787D01*
X038876Y01772D02*
X03861D01*
X038876Y017987D01*
Y018053D01*
X03881Y01812D01*
X038677D01*
X03861Y018053D01*
X03901D02*
X039076Y01812D01*
X03921D01*
X039276Y018053D01*
Y017787D01*
X03921Y01772D01*
X039076D01*
X03901Y017787D01*
Y018053D01*
X030757Y016243D02*
X03069Y01631D01*
X030557D01*
X03049Y016243D01*
Y015977D01*
X030557Y01591D01*
X03069D01*
X030757Y015977D01*
X03089Y01591D02*
X031023D01*
X030957D01*
Y01631D01*
X03089Y016243D01*
X031223Y015977D02*
X03129Y01591D01*
X031423D01*
X03149Y015977D01*
Y016243D01*
X031423Y01631D01*
X03129D01*
X031223Y016243D01*
Y016177D01*
X03129Y01611D01*
X03149D01*
X041247Y025943D02*
X04118Y02601D01*
X041047D01*
X04098Y025943D01*
Y025677D01*
X041047Y02561D01*
X04118D01*
X041247Y025677D01*
X04138Y02561D02*
X041513D01*
X041447D01*
Y02601D01*
X04138Y025943D01*
X041713D02*
X04178Y02601D01*
X041913D01*
X04198Y025943D01*
Y025877D01*
X041913Y02581D01*
X04198Y025743D01*
Y025677D01*
X041913Y02561D01*
X04178D01*
X041713Y025677D01*
Y025743D01*
X04178Y02581D01*
X041713Y025877D01*
Y025943D01*
X04178Y02581D02*
X041913D01*
X034677Y018173D02*
X03461Y01824D01*
X034477D01*
X03441Y018173D01*
Y017907D01*
X034477Y01784D01*
X03461D01*
X034677Y017907D01*
X03481Y01784D02*
X034943D01*
X034877D01*
Y01824D01*
X03481Y018173D01*
X035143Y01824D02*
X03541D01*
Y018173D01*
X035143Y017907D01*
Y01784D01*
X056467Y025633D02*
X0564Y0257D01*
X056267D01*
X0562Y025633D01*
Y025367D01*
X056267Y0253D01*
X0564D01*
X056467Y025367D01*
X0566Y0253D02*
X056733D01*
X056667D01*
Y0257D01*
X0566Y025633D01*
X0572Y0257D02*
X057067Y025633D01*
X056933Y0255D01*
Y025367D01*
X057Y0253D01*
X057133D01*
X0572Y025367D01*
Y025433D01*
X057133Y0255D01*
X056933D01*
X051417Y019083D02*
X05135Y01915D01*
X051217D01*
X05115Y019083D01*
Y018817D01*
X051217Y01875D01*
X05135D01*
X051417Y018817D01*
X05155Y01875D02*
X051683D01*
X051617D01*
Y01915D01*
X05155Y019083D01*
X05215Y01915D02*
X051883D01*
Y01895D01*
X052017Y019017D01*
X052083D01*
X05215Y01895D01*
Y018817D01*
X052083Y01875D01*
X05195D01*
X051883Y018817D01*
X056467Y026133D02*
X0564Y0262D01*
X056267D01*
X0562Y026133D01*
Y025867D01*
X056267Y0258D01*
X0564D01*
X056467Y025867D01*
X0566Y0258D02*
X056733D01*
X056667D01*
Y0262D01*
X0566Y026133D01*
X057133Y0258D02*
Y0262D01*
X056933Y026D01*
X0572D01*
X049767Y019083D02*
X0497Y01915D01*
X049567D01*
X0495Y019083D01*
Y018817D01*
X049567Y01875D01*
X0497D01*
X049767Y018817D01*
X0499Y01875D02*
X050033D01*
X049967D01*
Y01915D01*
X0499Y019083D01*
X050233D02*
X0503Y01915D01*
X050433D01*
X0505Y019083D01*
Y019017D01*
X050433Y01895D01*
X050367D01*
X050433D01*
X0505Y018883D01*
Y018817D01*
X050433Y01875D01*
X0503D01*
X050233Y018817D01*
X026297Y057093D02*
X02623Y05716D01*
X026097D01*
X02603Y057093D01*
Y056827D01*
X026097Y05676D01*
X02623D01*
X026297Y056827D01*
X02643Y05716D02*
X026696D01*
Y057093D01*
X02643Y056827D01*
Y05676D01*
X021597Y059903D02*
X02153Y05997D01*
X021397D01*
X02133Y059903D01*
Y059637D01*
X021397Y05957D01*
X02153D01*
X021597Y059637D01*
X021996Y05997D02*
X021863Y059903D01*
X02173Y05977D01*
Y059637D01*
X021797Y05957D01*
X02193D01*
X021996Y059637D01*
Y059703D01*
X02193Y05977D01*
X02173D01*
X034747Y066703D02*
X03468Y06677D01*
X034547D01*
X03448Y066703D01*
Y066437D01*
X034547Y06637D01*
X03468D01*
X034747Y066437D01*
X03508Y06637D02*
Y06677D01*
X03488Y06657D01*
X035146D01*
X016847Y059903D02*
X01678Y05997D01*
X016647D01*
X01658Y059903D01*
Y059637D01*
X016647Y05957D01*
X01678D01*
X016847Y059637D01*
X017246Y05957D02*
X01698D01*
X017246Y059837D01*
Y059903D01*
X01718Y05997D01*
X017047D01*
X01698Y059903D01*
X012827Y059373D02*
X01276Y05944D01*
X012627D01*
X01256Y059373D01*
Y059107D01*
X012627Y05904D01*
X01276D01*
X012827Y059107D01*
X01296Y05904D02*
X013093D01*
X013027D01*
Y05944D01*
X01296Y059373D01*
D17*
X0443Y01395D02*
G03*
X0447Y01395I0002J0D01*
G01*
X04388D02*
G03*
X04373Y0138I0J-00015D01*
G01*
X04512Y00995D02*
G03*
X04527Y0101I0J00015D01*
G01*
Y0138D02*
G03*
X04512Y01395I-00015J0D01*
G01*
X04373Y0101D02*
G03*
X04388Y00995I00015J0D01*
G01*
X05026Y02218D02*
X05068D01*
X05092D01*
X05134D01*
X05026Y02022D02*
X05134D01*
X01973Y0204D02*
Y02082D01*
Y02016D02*
Y0204D01*
Y01974D02*
Y02016D01*
X01777Y01974D02*
Y02082D01*
X04373Y0101D02*
Y0138D01*
X04527Y0101D02*
Y0138D01*
D18*
X046447Y015799D02*
X046697D01*
Y014799D02*
Y015799D01*
X046447Y014799D02*
X046697D01*
X046447Y014299D02*
Y014799D01*
Y014299D02*
X055447D01*
Y016299D01*
X046447D02*
X055447D01*
X046447Y015799D02*
Y016299D01*
Y014799D02*
Y015799D01*
X046697D01*
Y014799D02*
Y015799D01*
X046447Y014799D02*
X046697D01*
X046447Y014299D02*
Y014799D01*
Y014299D02*
X055447D01*
Y016299D01*
X046447D02*
X055447D01*
X046447Y015799D02*
Y016299D01*
Y014799D02*
Y015799D01*
X046947Y013299D02*
X054947D01*
Y017299D01*
X046947D02*
X054947D01*
X046947Y013299D02*
Y017299D01*
X0279Y03115D02*
X028Y03105D01*
X0253Y03095D02*
X0254Y03105D01*
X0253Y03095D02*
X0255Y03115D01*
X0279D01*
X028Y03105D02*
X0281Y03095D01*
Y03085D02*
Y03095D01*
Y02765D02*
Y03085D01*
X0279Y02745D02*
X0281Y02765D01*
X0255Y02745D02*
X0279D01*
X0253Y02765D02*
X0255Y02745D01*
X0253Y02765D02*
Y03095D01*
X0192Y02765D02*
Y03095D01*
Y02765D02*
X0194Y02745D01*
X0218D01*
X022Y02765D01*
Y03085D01*
Y03095D01*
X0219Y03105D02*
X022Y03095D01*
X0194Y03115D02*
X0218D01*
X0192Y03095D02*
X0194Y03115D01*
X0192Y03095D02*
X0193Y03105D01*
X0218Y03115D02*
X0219Y03105D01*
X02229Y02765D02*
Y03095D01*
Y02765D02*
X02249Y02745D01*
X02489D01*
X02509Y02765D01*
Y03085D01*
Y03095D01*
X02499Y03105D02*
X02509Y03095D01*
X02249Y03115D02*
X02489D01*
X02229Y03095D02*
X02249Y03115D01*
X02229Y03095D02*
X02239Y03105D01*
X02489Y03115D02*
X02499Y03105D01*
D19*
X05498Y02745D02*
X05532D01*
X05498Y02695D02*
X05532D01*
X05343D02*
X05377D01*
X05343Y02745D02*
X05377D01*
X05498Y02655D02*
X05532D01*
X05498Y02605D02*
X05532D01*
X05343D02*
X05377D01*
X05343Y02655D02*
X05377D01*
X05498Y0255D02*
X05532D01*
X05498Y025D02*
X05532D01*
X05343D02*
X05377D01*
X05343Y0255D02*
X05377D01*
X05498Y0246D02*
X05532D01*
X05498Y0241D02*
X05532D01*
X05343D02*
X05377D01*
X05343Y0246D02*
X05377D01*
X0469Y06283D02*
Y06317D01*
X0474Y06283D02*
Y06317D01*
X0469Y06058D02*
Y06092D01*
X0474Y06058D02*
Y06092D01*
X0469Y05823D02*
Y05857D01*
X0474Y05823D02*
Y05857D01*
X0469Y05593D02*
Y05627D01*
X0474Y05593D02*
Y05627D01*
X0469Y05363D02*
Y05397D01*
X0474Y05363D02*
Y05397D01*
X0469Y05133D02*
Y05167D01*
X0474Y05133D02*
Y05167D01*
X0469Y04898D02*
Y04932D01*
X0474Y04898D02*
Y04932D01*
X0469Y04678D02*
Y04712D01*
X0474Y04678D02*
Y04712D01*
X0469Y04448D02*
Y04482D01*
X0474Y04448D02*
Y04482D01*
X0469Y04218D02*
Y04252D01*
X0474Y04218D02*
Y04252D01*
X0469Y03988D02*
Y04022D01*
X0474Y03988D02*
Y04022D01*
X0469Y03753D02*
Y03787D01*
X0474Y03753D02*
Y03787D01*
X0469Y03528D02*
Y03562D01*
X0474Y03528D02*
Y03562D01*
X0469Y03298D02*
Y03332D01*
X0474Y03298D02*
Y03332D01*
X0469Y03068D02*
Y03102D01*
X0474Y03068D02*
Y03102D01*
X0469Y02838D02*
Y02872D01*
X0474Y02838D02*
Y02872D01*
X0469Y026064D02*
Y026404D01*
X0474Y026064D02*
Y026404D01*
X0469Y02378D02*
Y02412D01*
X0474Y02378D02*
Y02412D01*
X05148Y02D02*
X05182D01*
X05148Y0195D02*
X05182D01*
X04983D02*
X05017D01*
X04983Y02D02*
X05017D01*
X04743Y0224D02*
X04777D01*
X04743Y0219D02*
X04777D01*
X04743Y0214D02*
X04777D01*
X04743Y0209D02*
X04777D01*
X03058Y0507D02*
X03092D01*
X03058Y0512D02*
X03092D01*
X01198Y02145D02*
X01232D01*
X01198Y02195D02*
X01232D01*
X01198Y02425D02*
X01232D01*
X01198Y02475D02*
X01232D01*
X01198Y0271D02*
X01232D01*
X01198Y0276D02*
X01232D01*
X00928Y0157D02*
X00962D01*
X00928Y0162D02*
X00962D01*
X00915Y01468D02*
Y01502D01*
X00965Y01468D02*
Y01502D01*
X00915Y01723D02*
Y01757D01*
X00965Y01723D02*
Y01757D01*
X00923Y01825D02*
X00957D01*
X00923Y01875D02*
X00957D01*
X00925Y02003D02*
Y02037D01*
X00975Y02003D02*
Y02037D01*
X00925Y02288D02*
Y02322D01*
X00975Y02288D02*
Y02322D01*
Y028625D02*
Y028965D01*
X00925Y028625D02*
Y028965D01*
X00905Y03618D02*
Y03652D01*
X00955Y03618D02*
Y03652D01*
X00905Y03848D02*
Y03882D01*
X00955Y03848D02*
Y03882D01*
X00905Y04078D02*
Y04112D01*
X00955Y04078D02*
Y04112D01*
X00905Y04308D02*
Y04342D01*
X00955Y04308D02*
Y04342D01*
X00905Y04543D02*
Y04577D01*
X00955Y04543D02*
Y04577D01*
X00905Y04763D02*
Y04797D01*
X00955Y04763D02*
Y04797D01*
X0277Y04223D02*
Y04257D01*
X0272Y04223D02*
Y04257D01*
X02878Y0481D02*
X02912D01*
X02878Y0486D02*
X02912D01*
X00955Y05458D02*
Y05492D01*
X00905Y05458D02*
Y05492D01*
X00955Y05228D02*
Y05262D01*
X00905Y05228D02*
Y05262D01*
Y05003D02*
Y05037D01*
X00955Y05003D02*
Y05037D01*
X00905Y03388D02*
Y03422D01*
X00955Y03388D02*
Y03422D01*
X00923Y0133D02*
X00957D01*
X00923Y0138D02*
X00957D01*
X00915Y01228D02*
Y01262D01*
X00965Y01228D02*
Y01262D01*
X00925Y02543D02*
Y02577D01*
X00975Y02543D02*
Y02577D01*
X00895Y03168D02*
Y03202D01*
X00845Y03168D02*
Y03202D01*
X026488Y05635D02*
X026828D01*
X026488Y05585D02*
X026828D01*
X03028Y0584D02*
X03062D01*
X03028Y0579D02*
X03062D01*
X01495Y01618D02*
Y01652D01*
X01445Y01618D02*
Y01652D01*
X015Y01383D02*
Y01417D01*
X0145Y01383D02*
Y01417D01*
X01495Y01858D02*
Y01892D01*
X01445Y01858D02*
Y01892D01*
X01495Y02058D02*
Y02092D01*
X01445Y02058D02*
Y02092D01*
X01415Y04078D02*
Y04112D01*
X01465Y04078D02*
Y04112D01*
Y05458D02*
Y05492D01*
X01415Y05458D02*
Y05492D01*
Y04763D02*
Y04797D01*
X01465Y04763D02*
Y04797D01*
X01415Y05003D02*
Y05037D01*
X01465Y05003D02*
Y05037D01*
X01415Y04548D02*
Y04582D01*
X01465Y04548D02*
Y04582D01*
X01415Y04308D02*
Y04342D01*
X01465Y04308D02*
Y04342D01*
X01415Y05228D02*
Y05262D01*
X01465Y05228D02*
Y05262D01*
X01495Y02618D02*
Y02652D01*
X01445Y02618D02*
Y02652D01*
X01198Y0305D02*
X01232D01*
X01198Y03D02*
X01232D01*
X01415Y03388D02*
Y03422D01*
X01465Y03388D02*
Y03422D01*
X01415Y03158D02*
Y03192D01*
X01465Y03158D02*
Y03192D01*
X01415Y03848D02*
Y03882D01*
X01465Y03848D02*
Y03882D01*
X01415Y03618D02*
Y03652D01*
X01465Y03618D02*
Y03652D01*
X01495Y029025D02*
Y029365D01*
X01445Y029025D02*
Y029365D01*
X01495Y02338D02*
Y02372D01*
X01445Y02338D02*
Y02372D01*
X02768Y0167D02*
X02802D01*
X02768Y0162D02*
X02802D01*
X02755Y01403D02*
Y01437D01*
X02805Y01403D02*
Y01437D01*
D20*
X049247Y015399D02*
Y014999D01*
X049447D01*
X049514Y015066D01*
Y015332D01*
X049447Y015399D01*
X049247D01*
X049647D02*
X04978D01*
X049714D01*
Y014999D01*
X049647D01*
X04978D01*
X04998D02*
Y015399D01*
X05018D01*
X050247Y015332D01*
Y015199D01*
X05018Y015133D01*
X04998D01*
X05038Y015199D02*
X050647D01*
X05078Y014999D02*
X050913D01*
X050847D01*
Y015399D01*
X05078Y015332D01*
X05138Y015399D02*
X051246Y015332D01*
X051113Y015199D01*
Y015066D01*
X05118Y014999D01*
X051313D01*
X05138Y015066D01*
Y015133D01*
X051313Y015199D01*
X051113D01*
D21*
X0192Y06175D02*
D03*
Y06055D02*
D03*
X02985Y06085D02*
D03*
Y05965D02*
D03*
M02*
