G04*
G04 #@! TF.GenerationSoftware,Altium Limited,Altium Designer,21.0.8 (223)*
G04*
G04 Layer_Color=255*
%FSTAX24Y24*%
%MOIN*%
G70*
G04*
G04 #@! TF.SameCoordinates,8A4C6F49-4F26-47D5-9FDB-2FD25450CC73*
G04*
G04*
G04 #@! TF.FilePolarity,Positive*
G04*
G01*
G75*
%ADD22R,0.0472X0.0335*%
%ADD23R,0.0394X0.0550*%
%ADD24R,0.0780X0.0220*%
%ADD25R,0.0550X0.0394*%
%ADD26R,0.0500X0.0550*%
%ADD27R,0.0827X0.0787*%
%ADD28R,0.0472X0.0315*%
G04:AMPARAMS|DCode=29|XSize=61.4mil|YSize=11mil|CornerRadius=1.4mil|HoleSize=0mil|Usage=FLASHONLY|Rotation=90.000|XOffset=0mil|YOffset=0mil|HoleType=Round|Shape=RoundedRectangle|*
%AMROUNDEDRECTD29*
21,1,0.0614,0.0083,0,0,90.0*
21,1,0.0587,0.0110,0,0,90.0*
1,1,0.0028,0.0041,0.0293*
1,1,0.0028,0.0041,-0.0293*
1,1,0.0028,-0.0041,-0.0293*
1,1,0.0028,-0.0041,0.0293*
%
%ADD29ROUNDEDRECTD29*%
G04:AMPARAMS|DCode=30|XSize=61.4mil|YSize=11mil|CornerRadius=1.4mil|HoleSize=0mil|Usage=FLASHONLY|Rotation=0.000|XOffset=0mil|YOffset=0mil|HoleType=Round|Shape=RoundedRectangle|*
%AMROUNDEDRECTD30*
21,1,0.0614,0.0083,0,0,0.0*
21,1,0.0587,0.0110,0,0,0.0*
1,1,0.0028,0.0293,-0.0041*
1,1,0.0028,-0.0293,-0.0041*
1,1,0.0028,-0.0293,0.0041*
1,1,0.0028,0.0293,0.0041*
%
%ADD30ROUNDEDRECTD30*%
%ADD31R,0.0220X0.0780*%
%ADD32R,0.0550X0.0500*%
%ADD33R,0.1024X0.0433*%
%ADD34R,0.0787X0.0669*%
%ADD35R,0.1181X0.2126*%
%ADD36R,0.0945X0.1299*%
%ADD37R,0.0945X0.0394*%
%ADD38R,0.1260X0.0413*%
%ADD39R,0.3937X0.4114*%
%ADD40R,0.2126X0.1181*%
%ADD41R,0.0413X0.1260*%
%ADD42R,0.4114X0.3937*%
%ADD43O,0.0807X0.0236*%
%ADD91O,0.0591X0.0787*%
%ADD92O,0.0591X0.0787*%
%ADD93R,0.0900X0.0600*%
%ADD94O,0.0900X0.0600*%
%ADD95R,0.0787X0.0984*%
%ADD96R,0.0984X0.0787*%
%ADD97O,0.1000X0.1200*%
%ADD98C,0.0800*%
%ADD99R,0.0800X0.0800*%
%ADD100C,0.0650*%
%ADD101R,0.0650X0.0650*%
%ADD102R,0.0800X0.0800*%
%ADD103C,0.1969*%
%ADD104O,0.0860X0.0600*%
%ADD105C,0.0709*%
%ADD106R,0.0591X0.0591*%
%ADD107C,0.0591*%
%ADD108O,0.0630X0.0866*%
%ADD109O,0.1200X0.1000*%
%ADD110O,0.0866X0.0630*%
%ADD111R,0.0591X0.0591*%
D22*
X055042Y06305D02*
D03*
X05406Y063422D02*
D03*
X054058Y062664D02*
D03*
X055042Y06105D02*
D03*
X05406Y061422D02*
D03*
X054058Y060664D02*
D03*
X055042Y05905D02*
D03*
X05406Y059422D02*
D03*
X054058Y058664D02*
D03*
X055042Y05705D02*
D03*
X05406Y057422D02*
D03*
X054058Y056664D02*
D03*
X055042Y05505D02*
D03*
X05406Y055422D02*
D03*
X054058Y054664D02*
D03*
X055042Y05295D02*
D03*
X05406Y053322D02*
D03*
X054058Y052564D02*
D03*
X055042Y05095D02*
D03*
X05406Y051322D02*
D03*
X054058Y050564D02*
D03*
X055042Y04895D02*
D03*
X05406Y049322D02*
D03*
X054058Y048564D02*
D03*
X055042Y04695D02*
D03*
X05406Y047322D02*
D03*
X054058Y046564D02*
D03*
X05504Y04495D02*
D03*
X054058Y045322D02*
D03*
X054056Y044564D02*
D03*
X055038Y04285D02*
D03*
X054056Y043222D02*
D03*
X054054Y042464D02*
D03*
X055042Y040834D02*
D03*
X05406Y041206D02*
D03*
X054058Y040448D02*
D03*
X055042Y038834D02*
D03*
X05406Y039206D02*
D03*
X054058Y038448D02*
D03*
X055042Y036834D02*
D03*
X05406Y037206D02*
D03*
X054058Y036448D02*
D03*
X055042Y034834D02*
D03*
X05406Y035206D02*
D03*
X054058Y034448D02*
D03*
X055042Y032834D02*
D03*
X05406Y033206D02*
D03*
X054058Y032448D02*
D03*
X05504Y030834D02*
D03*
X054058Y031206D02*
D03*
X054056Y030448D02*
D03*
X055042Y028834D02*
D03*
X05406Y029206D02*
D03*
X054058Y028448D02*
D03*
D23*
X0556Y0272D02*
D03*
X0547D02*
D03*
X05315D02*
D03*
X05405D02*
D03*
X0556Y0263D02*
D03*
X0547D02*
D03*
X05315D02*
D03*
X05405D02*
D03*
X0556Y02525D02*
D03*
X0547D02*
D03*
X05315D02*
D03*
X05405D02*
D03*
X0556Y02435D02*
D03*
X0547D02*
D03*
X05315D02*
D03*
X05405D02*
D03*
X0521Y01975D02*
D03*
X0512D02*
D03*
X04955D02*
D03*
X05045D02*
D03*
X04805Y02215D02*
D03*
X04715D02*
D03*
X04805Y02115D02*
D03*
X04715D02*
D03*
X0303Y05095D02*
D03*
X0312D02*
D03*
X0117Y0217D02*
D03*
X0126D02*
D03*
X0117Y0245D02*
D03*
X0126D02*
D03*
X0117Y02735D02*
D03*
X0126D02*
D03*
X009Y01595D02*
D03*
X0099D02*
D03*
X00895Y0185D02*
D03*
X00985D02*
D03*
X0285Y04835D02*
D03*
X0294D02*
D03*
X00895Y01355D02*
D03*
X00985D02*
D03*
X027108Y0561D02*
D03*
X026208D02*
D03*
X0309Y05815D02*
D03*
X03D02*
D03*
X0126Y03025D02*
D03*
X0117D02*
D03*
X0283Y01645D02*
D03*
X0274D02*
D03*
D24*
X05177Y02195D02*
D03*
Y02145D02*
D03*
Y02095D02*
D03*
Y02045D02*
D03*
X04983D02*
D03*
Y02095D02*
D03*
Y02145D02*
D03*
Y02195D02*
D03*
D25*
X04715Y06345D02*
D03*
Y06255D02*
D03*
Y0612D02*
D03*
Y0603D02*
D03*
Y05885D02*
D03*
Y05795D02*
D03*
Y05655D02*
D03*
Y05565D02*
D03*
Y05425D02*
D03*
Y05335D02*
D03*
Y05195D02*
D03*
Y05105D02*
D03*
Y0496D02*
D03*
Y0487D02*
D03*
Y0474D02*
D03*
Y0465D02*
D03*
Y0451D02*
D03*
Y0442D02*
D03*
Y0428D02*
D03*
Y0419D02*
D03*
Y0405D02*
D03*
Y0396D02*
D03*
Y03815D02*
D03*
Y03725D02*
D03*
Y0359D02*
D03*
Y035D02*
D03*
Y0336D02*
D03*
Y0327D02*
D03*
Y0313D02*
D03*
Y0304D02*
D03*
Y029D02*
D03*
Y0281D02*
D03*
Y026684D02*
D03*
Y025784D02*
D03*
Y0244D02*
D03*
Y0235D02*
D03*
X0094Y0153D02*
D03*
Y0144D02*
D03*
Y01785D02*
D03*
Y01695D02*
D03*
X0095Y02065D02*
D03*
Y01975D02*
D03*
Y0235D02*
D03*
Y0226D02*
D03*
Y028345D02*
D03*
Y029245D02*
D03*
X0093Y0368D02*
D03*
Y0359D02*
D03*
Y0391D02*
D03*
Y0382D02*
D03*
Y0414D02*
D03*
Y0405D02*
D03*
Y0437D02*
D03*
Y0428D02*
D03*
Y04605D02*
D03*
Y04515D02*
D03*
Y04825D02*
D03*
Y04735D02*
D03*
X02745Y04195D02*
D03*
Y04285D02*
D03*
X0093Y0543D02*
D03*
Y0552D02*
D03*
Y052D02*
D03*
Y0529D02*
D03*
Y05065D02*
D03*
Y04975D02*
D03*
Y0345D02*
D03*
Y0336D02*
D03*
X0094Y0129D02*
D03*
Y012D02*
D03*
X0095Y02605D02*
D03*
Y02515D02*
D03*
X0087Y0314D02*
D03*
Y0323D02*
D03*
X0147Y0159D02*
D03*
Y0168D02*
D03*
X01475Y01355D02*
D03*
Y01445D02*
D03*
X0147Y0183D02*
D03*
Y0192D02*
D03*
Y0203D02*
D03*
Y0212D02*
D03*
X0144Y0414D02*
D03*
Y0405D02*
D03*
Y0543D02*
D03*
Y0552D02*
D03*
Y04825D02*
D03*
Y04735D02*
D03*
Y05065D02*
D03*
Y04975D02*
D03*
Y0461D02*
D03*
Y0452D02*
D03*
Y0437D02*
D03*
Y0428D02*
D03*
Y0529D02*
D03*
Y052D02*
D03*
X0147Y0259D02*
D03*
Y0268D02*
D03*
X0144Y0345D02*
D03*
Y0336D02*
D03*
Y0322D02*
D03*
Y0313D02*
D03*
Y0391D02*
D03*
Y0382D02*
D03*
Y0368D02*
D03*
Y0359D02*
D03*
X0147Y028745D02*
D03*
Y029645D02*
D03*
Y0231D02*
D03*
Y024D02*
D03*
X0278Y01465D02*
D03*
Y01375D02*
D03*
D26*
X029535Y05095D02*
D03*
X028635D02*
D03*
X0305Y05715D02*
D03*
X0296D02*
D03*
D27*
X01048Y029432D02*
D03*
Y02801D02*
D03*
Y023732D02*
D03*
Y02231D02*
D03*
Y021082D02*
D03*
Y01966D02*
D03*
Y026532D02*
D03*
Y02511D02*
D03*
D28*
X0139Y028245D02*
D03*
Y028745D02*
D03*
Y029245D02*
D03*
X0114Y028245D02*
D03*
Y029245D02*
D03*
X01399Y0254D02*
D03*
Y0259D02*
D03*
Y0264D02*
D03*
X01149Y0254D02*
D03*
Y0264D02*
D03*
X01399Y0226D02*
D03*
Y0231D02*
D03*
Y0236D02*
D03*
X01149Y0226D02*
D03*
Y0236D02*
D03*
X01399Y0198D02*
D03*
Y0203D02*
D03*
Y0208D02*
D03*
X01149Y0198D02*
D03*
Y0208D02*
D03*
D29*
X029338Y041326D02*
D03*
X029535D02*
D03*
X029732D02*
D03*
X029928D02*
D03*
X030125D02*
D03*
X030322D02*
D03*
X030519D02*
D03*
X030716D02*
D03*
X030913D02*
D03*
X031109D02*
D03*
X031306D02*
D03*
X031503D02*
D03*
X0317D02*
D03*
X031897D02*
D03*
X032094D02*
D03*
X032291D02*
D03*
X032487D02*
D03*
X032684D02*
D03*
X032881D02*
D03*
X033078D02*
D03*
X033275D02*
D03*
X033472D02*
D03*
X033668D02*
D03*
X033865D02*
D03*
X034062D02*
D03*
Y047374D02*
D03*
X033865D02*
D03*
X033668D02*
D03*
X033472D02*
D03*
X033275D02*
D03*
X033078D02*
D03*
X032881D02*
D03*
X032684D02*
D03*
X032487D02*
D03*
X032291D02*
D03*
X032094D02*
D03*
X031897D02*
D03*
X0317D02*
D03*
X031503D02*
D03*
X031306D02*
D03*
X031109D02*
D03*
X030913D02*
D03*
X030716D02*
D03*
X030519D02*
D03*
X030322D02*
D03*
X030125D02*
D03*
X029928D02*
D03*
X029732D02*
D03*
X029535D02*
D03*
X029338D02*
D03*
D30*
X028676Y046712D02*
D03*
Y046515D02*
D03*
Y046318D02*
D03*
Y046122D02*
D03*
Y045925D02*
D03*
Y045728D02*
D03*
Y045531D02*
D03*
Y045334D02*
D03*
Y045137D02*
D03*
Y044941D02*
D03*
Y044744D02*
D03*
Y044547D02*
D03*
Y04435D02*
D03*
Y044153D02*
D03*
Y043956D02*
D03*
Y043759D02*
D03*
Y043563D02*
D03*
Y043366D02*
D03*
Y043169D02*
D03*
Y042972D02*
D03*
Y042775D02*
D03*
Y042578D02*
D03*
Y042382D02*
D03*
Y042185D02*
D03*
Y041988D02*
D03*
X034724D02*
D03*
Y042185D02*
D03*
Y042382D02*
D03*
Y042578D02*
D03*
Y042775D02*
D03*
Y042972D02*
D03*
Y043169D02*
D03*
Y043366D02*
D03*
Y043563D02*
D03*
Y043759D02*
D03*
Y043956D02*
D03*
Y044153D02*
D03*
Y04435D02*
D03*
Y044547D02*
D03*
Y044744D02*
D03*
Y044941D02*
D03*
Y045137D02*
D03*
Y045334D02*
D03*
Y045531D02*
D03*
Y045728D02*
D03*
Y045925D02*
D03*
Y046122D02*
D03*
Y046318D02*
D03*
Y046515D02*
D03*
Y046712D02*
D03*
D31*
X0195Y01931D02*
D03*
X019D02*
D03*
X0185D02*
D03*
X018D02*
D03*
Y02125D02*
D03*
X0185D02*
D03*
X019D02*
D03*
X0195D02*
D03*
D32*
X0079Y0443D02*
D03*
Y0452D02*
D03*
Y0413D02*
D03*
Y0422D02*
D03*
Y0373D02*
D03*
Y0382D02*
D03*
Y03325D02*
D03*
Y03415D02*
D03*
Y0295D02*
D03*
Y0304D02*
D03*
Y0162D02*
D03*
Y0171D02*
D03*
Y0182D02*
D03*
Y0191D02*
D03*
Y02025D02*
D03*
Y02115D02*
D03*
Y0222D02*
D03*
Y0231D02*
D03*
Y02415D02*
D03*
Y02505D02*
D03*
Y0271D02*
D03*
Y0262D02*
D03*
Y04635D02*
D03*
Y04725D02*
D03*
X00785Y04835D02*
D03*
Y04925D02*
D03*
X0079Y015065D02*
D03*
Y014165D02*
D03*
Y0565D02*
D03*
Y0574D02*
D03*
Y0545D02*
D03*
Y0554D02*
D03*
Y05035D02*
D03*
Y05125D02*
D03*
Y05235D02*
D03*
Y05325D02*
D03*
D33*
X020319Y010244D02*
D03*
Y011032D02*
D03*
Y011819D02*
D03*
Y012606D02*
D03*
Y013394D02*
D03*
Y014181D02*
D03*
Y014969D02*
D03*
Y015756D02*
D03*
X026381D02*
D03*
Y014969D02*
D03*
Y014181D02*
D03*
Y013394D02*
D03*
Y012606D02*
D03*
Y011819D02*
D03*
Y011032D02*
D03*
Y010244D02*
D03*
D34*
X017148Y06115D02*
D03*
X019152D02*
D03*
X027798Y06025D02*
D03*
X029802D02*
D03*
D35*
X016971Y06445D02*
D03*
X020829D02*
D03*
D36*
X026208Y05815D02*
D03*
D37*
X028492Y059056D02*
D03*
Y05815D02*
D03*
Y057244D02*
D03*
D38*
X028612Y065239D02*
D03*
Y064569D02*
D03*
Y0639D02*
D03*
Y063231D02*
D03*
Y062561D02*
D03*
D39*
X024478Y0639D02*
D03*
D40*
X0319Y065558D02*
D03*
Y0617D02*
D03*
D41*
X015289Y059766D02*
D03*
X014619D02*
D03*
X01395D02*
D03*
X013281D02*
D03*
X012611D02*
D03*
D42*
X01395Y0639D02*
D03*
D43*
X043289Y0137D02*
D03*
Y0132D02*
D03*
Y0127D02*
D03*
Y0122D02*
D03*
Y0117D02*
D03*
Y0112D02*
D03*
Y0107D02*
D03*
Y0102D02*
D03*
X045711Y0137D02*
D03*
Y0132D02*
D03*
Y0127D02*
D03*
Y0122D02*
D03*
Y0117D02*
D03*
Y0112D02*
D03*
Y0107D02*
D03*
Y0102D02*
D03*
D91*
X047447Y013799D02*
D03*
D92*
X048447D02*
D03*
X049447D02*
D03*
X050447D02*
D03*
X051447D02*
D03*
X052447D02*
D03*
X053447D02*
D03*
X054447D02*
D03*
Y016799D02*
D03*
X053447D02*
D03*
X052447D02*
D03*
X051447D02*
D03*
X050447D02*
D03*
X049447D02*
D03*
X048447D02*
D03*
X047447D02*
D03*
D93*
X0482Y0244D02*
D03*
Y0267D02*
D03*
Y029D02*
D03*
Y0313D02*
D03*
Y0336D02*
D03*
Y0359D02*
D03*
Y0382D02*
D03*
Y0428D02*
D03*
Y0451D02*
D03*
Y0474D02*
D03*
Y0497D02*
D03*
Y052D02*
D03*
Y0543D02*
D03*
Y0566D02*
D03*
Y0589D02*
D03*
Y0612D02*
D03*
Y0635D02*
D03*
X0103Y05525D02*
D03*
Y05295D02*
D03*
Y05065D02*
D03*
Y04835D02*
D03*
Y04605D02*
D03*
Y04375D02*
D03*
Y04145D02*
D03*
Y03915D02*
D03*
Y03685D02*
D03*
Y03455D02*
D03*
Y03225D02*
D03*
X01075Y0159D02*
D03*
X01075Y0183D02*
D03*
Y013525D02*
D03*
X0482Y0405D02*
D03*
D94*
Y0234D02*
D03*
X0512D02*
D03*
Y0244D02*
D03*
X0482Y0257D02*
D03*
X0512D02*
D03*
Y0267D02*
D03*
X0482Y028D02*
D03*
X0512D02*
D03*
Y029D02*
D03*
X0482Y0303D02*
D03*
X0512D02*
D03*
Y0313D02*
D03*
X0482Y0326D02*
D03*
X0512D02*
D03*
Y0336D02*
D03*
X0482Y0349D02*
D03*
X0512D02*
D03*
Y0359D02*
D03*
X0482Y0372D02*
D03*
X0512D02*
D03*
Y0382D02*
D03*
X0482Y0418D02*
D03*
X0512D02*
D03*
Y0428D02*
D03*
X0482Y0441D02*
D03*
X0512D02*
D03*
Y0451D02*
D03*
X0482Y0464D02*
D03*
X0512D02*
D03*
Y0474D02*
D03*
X0482Y0487D02*
D03*
X0512D02*
D03*
Y0497D02*
D03*
X0482Y051D02*
D03*
X0512D02*
D03*
Y052D02*
D03*
X0482Y0533D02*
D03*
X0512D02*
D03*
Y0543D02*
D03*
X0482Y0556D02*
D03*
X0512D02*
D03*
Y0566D02*
D03*
X0482Y0579D02*
D03*
X0512D02*
D03*
Y0589D02*
D03*
X0482Y0602D02*
D03*
X0512D02*
D03*
Y0612D02*
D03*
X0482Y0625D02*
D03*
X0512D02*
D03*
Y0635D02*
D03*
X0133Y05525D02*
D03*
Y05425D02*
D03*
X0103D02*
D03*
Y05195D02*
D03*
X0133D02*
D03*
Y05295D02*
D03*
X0103Y04965D02*
D03*
X0133D02*
D03*
Y05065D02*
D03*
X0103Y04735D02*
D03*
X0133D02*
D03*
Y04835D02*
D03*
X0103Y04505D02*
D03*
X0133D02*
D03*
Y04605D02*
D03*
X0103Y04275D02*
D03*
X0133D02*
D03*
Y04375D02*
D03*
X0103Y04045D02*
D03*
X0133D02*
D03*
Y04145D02*
D03*
Y03915D02*
D03*
Y03815D02*
D03*
X0103D02*
D03*
Y03585D02*
D03*
X0133D02*
D03*
Y03685D02*
D03*
X0103Y03355D02*
D03*
X0133D02*
D03*
Y03455D02*
D03*
Y03225D02*
D03*
Y03125D02*
D03*
X0103D02*
D03*
X01075Y0149D02*
D03*
X01375D02*
D03*
Y0159D02*
D03*
X01075Y0173D02*
D03*
X01375D02*
D03*
Y0183D02*
D03*
X01075Y012525D02*
D03*
X01375D02*
D03*
Y013525D02*
D03*
X0512Y0405D02*
D03*
Y0395D02*
D03*
X0482D02*
D03*
D95*
X031Y01245D02*
D03*
X029D02*
D03*
X0182Y0125D02*
D03*
X0162D02*
D03*
D96*
X0062Y05085D02*
D03*
Y04885D02*
D03*
Y04485D02*
D03*
Y04685D02*
D03*
Y05285D02*
D03*
Y03475D02*
D03*
Y03275D02*
D03*
Y02875D02*
D03*
Y03075D02*
D03*
Y03875D02*
D03*
Y03675D02*
D03*
Y04075D02*
D03*
Y04275D02*
D03*
Y01865D02*
D03*
Y01665D02*
D03*
Y01265D02*
D03*
Y01465D02*
D03*
Y02265D02*
D03*
Y02065D02*
D03*
Y02465D02*
D03*
Y02665D02*
D03*
X0568Y05505D02*
D03*
Y06105D02*
D03*
Y06305D02*
D03*
Y05905D02*
D03*
Y05705D02*
D03*
Y012734D02*
D03*
Y014734D02*
D03*
Y018734D02*
D03*
Y016734D02*
D03*
Y024734D02*
D03*
Y026734D02*
D03*
Y022734D02*
D03*
Y020734D02*
D03*
Y028834D02*
D03*
Y030834D02*
D03*
Y034834D02*
D03*
Y032834D02*
D03*
Y040834D02*
D03*
Y042834D02*
D03*
Y038834D02*
D03*
Y036834D02*
D03*
Y04495D02*
D03*
Y05095D02*
D03*
Y05295D02*
D03*
Y04895D02*
D03*
Y04695D02*
D03*
X0062Y06295D02*
D03*
Y05695D02*
D03*
Y05495D02*
D03*
Y05895D02*
D03*
Y06095D02*
D03*
D97*
X039811Y01165D02*
D03*
X04115D02*
D03*
X039142Y013225D02*
D03*
X040481D02*
D03*
X041819D02*
D03*
D98*
X03515Y0162D02*
D03*
X01855Y0562D02*
D03*
X0233D02*
D03*
X03645Y063D02*
D03*
X0143Y0574D02*
D03*
X041489Y0242D02*
D03*
X031Y0145D02*
D03*
X043239Y021D02*
D03*
X040481Y01575D02*
D03*
X03515Y01355D02*
D03*
D99*
X03615Y0162D02*
D03*
X0133Y0574D02*
D03*
X042489Y0242D02*
D03*
X032Y0145D02*
D03*
X039081Y01575D02*
D03*
X03615Y01355D02*
D03*
D100*
X02582Y02785D02*
D03*
X0276D02*
D03*
X02582Y03065D02*
D03*
X01972D02*
D03*
X0215Y02785D02*
D03*
X01972D02*
D03*
X02281Y03065D02*
D03*
X02459Y02785D02*
D03*
X02281D02*
D03*
D101*
X0276Y03065D02*
D03*
X0215D02*
D03*
X02459D02*
D03*
D102*
X01855Y0582D02*
D03*
X0233D02*
D03*
X03645Y065D02*
D03*
X043239Y022D02*
D03*
D103*
X059777Y009728D02*
D03*
Y066027D02*
D03*
X003478D02*
D03*
Y009728D02*
D03*
D104*
X02225Y0237D02*
D03*
Y0247D02*
D03*
X02125Y0237D02*
D03*
Y0247D02*
D03*
D105*
X0295Y01965D02*
D03*
Y02065D02*
D03*
Y02165D02*
D03*
Y02265D02*
D03*
Y02365D02*
D03*
Y02465D02*
D03*
Y02565D02*
D03*
Y02665D02*
D03*
X0365D02*
D03*
Y02565D02*
D03*
Y02465D02*
D03*
Y02365D02*
D03*
Y02265D02*
D03*
Y02165D02*
D03*
Y02065D02*
D03*
Y01965D02*
D03*
D106*
X0541Y01045D02*
D03*
X01855Y05215D02*
D03*
X0279Y0235D02*
D03*
D107*
X0531Y01045D02*
D03*
X0521D02*
D03*
X0511D02*
D03*
X0501D02*
D03*
X02255Y05215D02*
D03*
X02155D02*
D03*
X02055D02*
D03*
X01955D02*
D03*
X0269Y0235D02*
D03*
X0259D02*
D03*
X0249D02*
D03*
X0223Y0185D02*
D03*
Y0195D02*
D03*
Y0205D02*
D03*
Y0215D02*
D03*
D108*
X038639Y0272D02*
D03*
Y0232D02*
D03*
X040089Y0272D02*
D03*
Y0232D02*
D03*
X041489Y022D02*
D03*
Y018D02*
D03*
X038639D02*
D03*
Y022D02*
D03*
X040089Y018D02*
D03*
Y022D02*
D03*
D109*
X0102Y0659D02*
D03*
Y0574D02*
D03*
Y0594D02*
D03*
Y0639D02*
D03*
D110*
X02915Y01645D02*
D03*
X03315D02*
D03*
X03385Y01165D02*
D03*
X03785D02*
D03*
X03315Y01795D02*
D03*
X02915D02*
D03*
D111*
X0223Y0225D02*
D03*
M02*
