G04*
G04 #@! TF.GenerationSoftware,Altium Limited,Altium Designer,21.0.8 (223)*
G04*
G04 Layer_Color=16711935*
%FSTAX24Y24*%
%MOIN*%
G70*
G04*
G04 #@! TF.SameCoordinates,8A4C6F49-4F26-47D5-9FDB-2FD25450CC73*
G04*
G04*
G04 #@! TF.FilePolarity,Negative*
G04*
G01*
G75*
%ADD45R,0.0474X0.0630*%
%ADD47R,0.0630X0.0474*%
%ADD66O,0.0671X0.0867*%
%ADD67O,0.0671X0.0867*%
%ADD68R,0.0980X0.0680*%
%ADD69O,0.0980X0.0680*%
%ADD70R,0.0867X0.1064*%
%ADD71R,0.1064X0.0867*%
%ADD72O,0.1080X0.1280*%
%ADD73C,0.0880*%
%ADD74R,0.0880X0.0880*%
%ADD75C,0.0730*%
%ADD76R,0.0730X0.0730*%
%ADD77R,0.0880X0.0880*%
%ADD78C,0.2049*%
%ADD79O,0.0940X0.0680*%
%ADD80C,0.0789*%
%ADD81R,0.0671X0.0671*%
%ADD82C,0.0671*%
%ADD83O,0.0710X0.0946*%
%ADD84O,0.1280X0.1080*%
%ADD85O,0.0946X0.0710*%
%ADD86R,0.0671X0.0671*%
%ADD87C,0.0356*%
D45*
X0505Y0147D02*
D03*
X0514D02*
D03*
X04805Y014734D02*
D03*
X04895D02*
D03*
X04995Y0234D02*
D03*
X04905D02*
D03*
X04945Y0244D02*
D03*
X05035D02*
D03*
X04995Y0257D02*
D03*
X04905D02*
D03*
X04945Y026684D02*
D03*
X05035D02*
D03*
X04995Y028D02*
D03*
X04905D02*
D03*
X04945Y029D02*
D03*
X05035D02*
D03*
X04995Y0303D02*
D03*
X04905D02*
D03*
X04945Y0313D02*
D03*
X05035D02*
D03*
X04995Y0326D02*
D03*
X04905D02*
D03*
X04945Y0336D02*
D03*
X05035D02*
D03*
X04995Y0349D02*
D03*
X04905D02*
D03*
X04945Y0359D02*
D03*
X05035D02*
D03*
X04995Y0372D02*
D03*
X04905D02*
D03*
X04945Y0382D02*
D03*
X05035D02*
D03*
X04995Y0395D02*
D03*
X04905D02*
D03*
X04945Y0405D02*
D03*
X05035D02*
D03*
X04995Y0418D02*
D03*
X04905D02*
D03*
X04945Y0428D02*
D03*
X05035D02*
D03*
X04995Y0441D02*
D03*
X04905D02*
D03*
X04945Y0451D02*
D03*
X05035D02*
D03*
X04995Y0464D02*
D03*
X04905D02*
D03*
X04945Y0474D02*
D03*
X05035D02*
D03*
X04995Y0487D02*
D03*
X04905D02*
D03*
X04945Y0497D02*
D03*
X05035D02*
D03*
X04995Y051D02*
D03*
X04905D02*
D03*
X04945Y052D02*
D03*
X05035D02*
D03*
X04995Y0533D02*
D03*
X04905D02*
D03*
X04945Y0543D02*
D03*
X05035D02*
D03*
X04995Y0556D02*
D03*
X04905D02*
D03*
X04945Y0566D02*
D03*
X05035D02*
D03*
X04995Y0579D02*
D03*
X04905D02*
D03*
X04945Y0589D02*
D03*
X05035D02*
D03*
X04995Y0602D02*
D03*
X04905D02*
D03*
X04945Y0612D02*
D03*
X05035D02*
D03*
X04995Y0625D02*
D03*
X04905D02*
D03*
X04945Y0635D02*
D03*
X05035D02*
D03*
X00955Y0352D02*
D03*
X00865D02*
D03*
X033781Y04235D02*
D03*
X032881D02*
D03*
X01386Y061191D02*
D03*
X01476D02*
D03*
X03095Y04235D02*
D03*
X03005D02*
D03*
X00865Y03975D02*
D03*
X00955D02*
D03*
X01972Y0315D02*
D03*
X02062D02*
D03*
X02281D02*
D03*
X02371D02*
D03*
X02582D02*
D03*
X02672D02*
D03*
X0183Y0182D02*
D03*
X0192D02*
D03*
X0402Y0143D02*
D03*
X0393D02*
D03*
X0183Y0203D02*
D03*
X0192D02*
D03*
X051547Y0159D02*
D03*
X052447D02*
D03*
X04895D02*
D03*
X04805D02*
D03*
X00865Y0306D02*
D03*
X00955D02*
D03*
X00865Y0375D02*
D03*
X00955D02*
D03*
D47*
X0115Y0414D02*
D03*
Y0405D02*
D03*
Y0437D02*
D03*
Y0428D02*
D03*
X01151Y04605D02*
D03*
Y04515D02*
D03*
X0115Y05295D02*
D03*
Y05205D02*
D03*
Y0552D02*
D03*
Y0543D02*
D03*
X0473Y0151D02*
D03*
Y016D02*
D03*
X0508Y02105D02*
D03*
Y02195D02*
D03*
X03345Y04615D02*
D03*
Y04525D02*
D03*
X02985Y0447D02*
D03*
Y0456D02*
D03*
Y0431D02*
D03*
Y044D02*
D03*
X02725Y06375D02*
D03*
Y06465D02*
D03*
X0278Y01375D02*
D03*
Y01465D02*
D03*
X02029Y0182D02*
D03*
Y0191D02*
D03*
X01721Y0191D02*
D03*
Y0182D02*
D03*
X01779Y0232D02*
D03*
Y0223D02*
D03*
X01881Y0223D02*
D03*
Y0232D02*
D03*
X01979Y0232D02*
D03*
Y0223D02*
D03*
X01295Y02075D02*
D03*
Y01985D02*
D03*
X013Y02355D02*
D03*
Y02265D02*
D03*
X01295Y0292D02*
D03*
Y0283D02*
D03*
Y02635D02*
D03*
Y02545D02*
D03*
X01151Y04975D02*
D03*
Y05065D02*
D03*
Y04745D02*
D03*
Y04835D02*
D03*
D66*
X047447Y013799D02*
D03*
D67*
X048447D02*
D03*
X049447D02*
D03*
X050447D02*
D03*
X051447D02*
D03*
X052447D02*
D03*
X053447D02*
D03*
X054447D02*
D03*
Y016799D02*
D03*
X053447D02*
D03*
X052447D02*
D03*
X051447D02*
D03*
X050447D02*
D03*
X049447D02*
D03*
X048447D02*
D03*
X047447D02*
D03*
D68*
X0482Y0244D02*
D03*
Y0267D02*
D03*
Y029D02*
D03*
Y0313D02*
D03*
Y0336D02*
D03*
Y0359D02*
D03*
Y0382D02*
D03*
Y0428D02*
D03*
Y0451D02*
D03*
Y0474D02*
D03*
Y0497D02*
D03*
Y052D02*
D03*
Y0543D02*
D03*
Y0566D02*
D03*
Y0589D02*
D03*
Y0612D02*
D03*
Y0635D02*
D03*
X0103Y05525D02*
D03*
Y05295D02*
D03*
Y05065D02*
D03*
Y04835D02*
D03*
Y04605D02*
D03*
Y04375D02*
D03*
Y04145D02*
D03*
Y03915D02*
D03*
Y03685D02*
D03*
Y03455D02*
D03*
Y03225D02*
D03*
X01075Y0159D02*
D03*
X01075Y0183D02*
D03*
Y013525D02*
D03*
X0482Y0405D02*
D03*
D69*
Y0234D02*
D03*
X0512D02*
D03*
Y0244D02*
D03*
X0482Y0257D02*
D03*
X0512D02*
D03*
Y0267D02*
D03*
X0482Y028D02*
D03*
X0512D02*
D03*
Y029D02*
D03*
X0482Y0303D02*
D03*
X0512D02*
D03*
Y0313D02*
D03*
X0482Y0326D02*
D03*
X0512D02*
D03*
Y0336D02*
D03*
X0482Y0349D02*
D03*
X0512D02*
D03*
Y0359D02*
D03*
X0482Y0372D02*
D03*
X0512D02*
D03*
Y0382D02*
D03*
X0482Y0418D02*
D03*
X0512D02*
D03*
Y0428D02*
D03*
X0482Y0441D02*
D03*
X0512D02*
D03*
Y0451D02*
D03*
X0482Y0464D02*
D03*
X0512D02*
D03*
Y0474D02*
D03*
X0482Y0487D02*
D03*
X0512D02*
D03*
Y0497D02*
D03*
X0482Y051D02*
D03*
X0512D02*
D03*
Y052D02*
D03*
X0482Y0533D02*
D03*
X0512D02*
D03*
Y0543D02*
D03*
X0482Y0556D02*
D03*
X0512D02*
D03*
Y0566D02*
D03*
X0482Y0579D02*
D03*
X0512D02*
D03*
Y0589D02*
D03*
X0482Y0602D02*
D03*
X0512D02*
D03*
Y0612D02*
D03*
X0482Y0625D02*
D03*
X0512D02*
D03*
Y0635D02*
D03*
X0133Y05525D02*
D03*
Y05425D02*
D03*
X0103D02*
D03*
Y05195D02*
D03*
X0133D02*
D03*
Y05295D02*
D03*
X0103Y04965D02*
D03*
X0133D02*
D03*
Y05065D02*
D03*
X0103Y04735D02*
D03*
X0133D02*
D03*
Y04835D02*
D03*
X0103Y04505D02*
D03*
X0133D02*
D03*
Y04605D02*
D03*
X0103Y04275D02*
D03*
X0133D02*
D03*
Y04375D02*
D03*
X0103Y04045D02*
D03*
X0133D02*
D03*
Y04145D02*
D03*
Y03915D02*
D03*
Y03815D02*
D03*
X0103D02*
D03*
Y03585D02*
D03*
X0133D02*
D03*
Y03685D02*
D03*
X0103Y03355D02*
D03*
X0133D02*
D03*
Y03455D02*
D03*
Y03225D02*
D03*
Y03125D02*
D03*
X0103D02*
D03*
X01075Y0149D02*
D03*
X01375D02*
D03*
Y0159D02*
D03*
X01075Y0173D02*
D03*
X01375D02*
D03*
Y0183D02*
D03*
X01075Y012525D02*
D03*
X01375D02*
D03*
Y013525D02*
D03*
X0512Y0405D02*
D03*
Y0395D02*
D03*
X0482D02*
D03*
D70*
X031Y01245D02*
D03*
X029D02*
D03*
X0182Y0125D02*
D03*
X0162D02*
D03*
D71*
X0062Y05085D02*
D03*
Y04885D02*
D03*
Y04485D02*
D03*
Y04685D02*
D03*
Y05285D02*
D03*
Y03475D02*
D03*
Y03275D02*
D03*
Y02875D02*
D03*
Y03075D02*
D03*
Y03875D02*
D03*
Y03675D02*
D03*
Y04075D02*
D03*
Y04275D02*
D03*
Y01865D02*
D03*
Y01665D02*
D03*
Y01265D02*
D03*
Y01465D02*
D03*
Y02265D02*
D03*
Y02065D02*
D03*
Y02465D02*
D03*
Y02665D02*
D03*
X0568Y05505D02*
D03*
Y06105D02*
D03*
Y06305D02*
D03*
Y05905D02*
D03*
Y05705D02*
D03*
Y012734D02*
D03*
Y014734D02*
D03*
Y018734D02*
D03*
Y016734D02*
D03*
Y024734D02*
D03*
Y026734D02*
D03*
Y022734D02*
D03*
Y020734D02*
D03*
Y028834D02*
D03*
Y030834D02*
D03*
Y034834D02*
D03*
Y032834D02*
D03*
Y040834D02*
D03*
Y042834D02*
D03*
Y038834D02*
D03*
Y036834D02*
D03*
Y04495D02*
D03*
Y05095D02*
D03*
Y05295D02*
D03*
Y04895D02*
D03*
Y04695D02*
D03*
X0062Y06295D02*
D03*
Y05695D02*
D03*
Y05495D02*
D03*
Y05895D02*
D03*
Y06095D02*
D03*
D72*
X039811Y01165D02*
D03*
X04115D02*
D03*
X039142Y013225D02*
D03*
X040481D02*
D03*
X041819D02*
D03*
D73*
X03515Y0162D02*
D03*
X01855Y0562D02*
D03*
X0233D02*
D03*
X03645Y063D02*
D03*
X0143Y0574D02*
D03*
X041489Y0242D02*
D03*
X031Y0145D02*
D03*
X043239Y021D02*
D03*
X040481Y01575D02*
D03*
X03515Y01355D02*
D03*
D74*
X03615Y0162D02*
D03*
X0133Y0574D02*
D03*
X042489Y0242D02*
D03*
X032Y0145D02*
D03*
X039081Y01575D02*
D03*
X03615Y01355D02*
D03*
D75*
X02582Y02785D02*
D03*
X0276D02*
D03*
X02582Y03065D02*
D03*
X01972D02*
D03*
X0215Y02785D02*
D03*
X01972D02*
D03*
X02281Y03065D02*
D03*
X02459Y02785D02*
D03*
X02281D02*
D03*
D76*
X0276Y03065D02*
D03*
X0215D02*
D03*
X02459D02*
D03*
D77*
X01855Y0582D02*
D03*
X0233D02*
D03*
X03645Y065D02*
D03*
X043239Y022D02*
D03*
D78*
X059777Y009728D02*
D03*
Y066027D02*
D03*
X003478D02*
D03*
Y009728D02*
D03*
D79*
X02225Y0237D02*
D03*
Y0247D02*
D03*
X02125Y0237D02*
D03*
Y0247D02*
D03*
D80*
X0295Y01965D02*
D03*
Y02065D02*
D03*
Y02165D02*
D03*
Y02265D02*
D03*
Y02365D02*
D03*
Y02465D02*
D03*
Y02565D02*
D03*
Y02665D02*
D03*
X0365D02*
D03*
Y02565D02*
D03*
Y02465D02*
D03*
Y02365D02*
D03*
Y02265D02*
D03*
Y02165D02*
D03*
Y02065D02*
D03*
Y01965D02*
D03*
D81*
X0541Y01045D02*
D03*
X01855Y05215D02*
D03*
X0279Y0235D02*
D03*
D82*
X0531Y01045D02*
D03*
X0521D02*
D03*
X0511D02*
D03*
X0501D02*
D03*
X02255Y05215D02*
D03*
X02155D02*
D03*
X02055D02*
D03*
X01955D02*
D03*
X0269Y0235D02*
D03*
X0259D02*
D03*
X0249D02*
D03*
X0223Y0185D02*
D03*
Y0195D02*
D03*
Y0205D02*
D03*
Y0215D02*
D03*
D83*
X038639Y0272D02*
D03*
Y0232D02*
D03*
X040089Y0272D02*
D03*
Y0232D02*
D03*
X041489Y022D02*
D03*
Y018D02*
D03*
X038639D02*
D03*
Y022D02*
D03*
X040089Y018D02*
D03*
Y022D02*
D03*
D84*
X0102Y0659D02*
D03*
Y0574D02*
D03*
Y0594D02*
D03*
Y0639D02*
D03*
D85*
X02915Y01645D02*
D03*
X03315D02*
D03*
X03385Y01165D02*
D03*
X03785D02*
D03*
X03315Y01795D02*
D03*
X02915D02*
D03*
D86*
X0223Y0225D02*
D03*
D87*
X00835Y03465D02*
D03*
X027188Y051666D02*
D03*
X0272Y05335D02*
D03*
X025902Y05165D02*
D03*
X0259Y05335D02*
D03*
X024836Y051616D02*
D03*
X02485Y05335D02*
D03*
X02375Y05165D02*
D03*
Y0533D02*
D03*
X04675Y02115D02*
D03*
X0357Y04475D02*
D03*
X04675Y02215D02*
D03*
X036087Y044343D02*
D03*
X01515Y0203D02*
D03*
X015936Y020594D02*
D03*
X0255Y0422D02*
D03*
X0258Y047D02*
D03*
X01525Y0233D02*
D03*
X0171Y0256D02*
D03*
X0152Y0259D02*
D03*
X01675Y0251D02*
D03*
X015096Y028746D02*
D03*
X0316Y0389D02*
D03*
X02545Y03525D02*
D03*
X01505Y0305D02*
D03*
X0221Y0328D02*
D03*
X01505D02*
D03*
X0161D02*
D03*
X01505Y0345D02*
D03*
X016046Y034519D02*
D03*
X0151Y0368D02*
D03*
X016052Y036801D02*
D03*
X0151Y03915D02*
D03*
X02495Y0441D02*
D03*
X0151Y04145D02*
D03*
X0244Y04455D02*
D03*
X0151Y0437D02*
D03*
X02405Y04495D02*
D03*
X0151Y0461D02*
D03*
X02355Y0454D02*
D03*
X02325Y04585D02*
D03*
X0151Y04825D02*
D03*
Y0507D02*
D03*
X0191Y04995D02*
D03*
X01515Y0529D02*
D03*
X0191Y05045D02*
D03*
X01735Y0547D02*
D03*
X01905Y05095D02*
D03*
X03455Y04945D02*
D03*
X036014Y049444D02*
D03*
X034586Y050228D02*
D03*
X0361Y0504D02*
D03*
X03415Y04845D02*
D03*
X0366Y04935D02*
D03*
X034614Y048929D02*
D03*
X036025Y048947D02*
D03*
X01778Y02178D02*
D03*
X0335Y0394D02*
D03*
X0198Y02185D02*
D03*
X033095Y038875D02*
D03*
X01745Y02715D02*
D03*
X0198Y0247D02*
D03*
X01835Y02865D02*
D03*
X0198Y0241D02*
D03*
X024Y01385D02*
D03*
Y0166D02*
D03*
X033824Y052975D02*
D03*
X032517Y051702D02*
D03*
X0317Y05165D02*
D03*
X033405Y05335D02*
D03*
X038472Y042412D02*
D03*
X046345Y028127D02*
D03*
X044091Y030016D02*
D03*
X037274Y042399D02*
D03*
X038468Y042879D02*
D03*
X04635Y0304D02*
D03*
X044105Y03208D02*
D03*
X037269Y042888D02*
D03*
X038489Y043378D02*
D03*
X044048Y033872D02*
D03*
X04635Y0327D02*
D03*
X037251Y043387D02*
D03*
X038455Y04395D02*
D03*
X0464Y035D02*
D03*
X04407Y035681D02*
D03*
X037225Y043939D02*
D03*
X0441Y03725D02*
D03*
X04635D02*
D03*
X037109Y04495D02*
D03*
X038442Y044969D02*
D03*
X0464Y0396D02*
D03*
X04405Y04005D02*
D03*
X04195Y017D02*
D03*
X04644Y023474D02*
D03*
X044093Y026535D02*
D03*
X038463Y041487D02*
D03*
X03728Y041507D02*
D03*
X019622Y034574D02*
D03*
X0265Y03525D02*
D03*
X043294Y041902D02*
D03*
X04635Y0419D02*
D03*
X033864Y0507D02*
D03*
X03575Y0511D02*
D03*
X03355D02*
D03*
X03525Y0517D02*
D03*
X0332Y0515D02*
D03*
X034298Y052574D02*
D03*
X038455Y041927D02*
D03*
X046399Y025793D02*
D03*
X044096Y028143D02*
D03*
X037274Y041949D02*
D03*
X0189Y021908D02*
D03*
Y0238D02*
D03*
X03265Y03935D02*
D03*
X025463Y013382D02*
D03*
X02575Y01495D02*
D03*
X0256Y0142D02*
D03*
X05055Y02265D02*
D03*
X0531Y0264D02*
D03*
X05405Y02765D02*
D03*
X0505Y027425D02*
D03*
X01945Y0183D02*
D03*
X0185Y01865D02*
D03*
X00825Y030725D02*
D03*
X00855Y0377D02*
D03*
X0084Y0401D02*
D03*
X029535Y042035D02*
D03*
X013924Y060635D02*
D03*
X02935Y044D02*
D03*
X0295Y0456D02*
D03*
X02765Y0638D02*
D03*
X0329Y042D02*
D03*
X03385Y04525D02*
D03*
X0123Y0574D02*
D03*
X011481Y030719D02*
D03*
X011458Y027792D02*
D03*
Y024942D02*
D03*
X0115Y022134D02*
D03*
X014647Y060657D02*
D03*
X0301Y06215D02*
D03*
X05155Y02195D02*
D03*
X013482Y020777D02*
D03*
X0135Y02355D02*
D03*
X017775Y020275D02*
D03*
X01235Y0315D02*
D03*
X01345Y0292D02*
D03*
X013479Y026386D02*
D03*
X027781Y064569D02*
D03*
X01555Y02965D02*
D03*
X026234Y048902D02*
D03*
X0278Y0153D02*
D03*
X0267Y02775D02*
D03*
X026718Y030728D02*
D03*
X026961Y04195D02*
D03*
X03095D02*
D03*
X029388Y042788D02*
D03*
X0341Y0423D02*
D03*
X029427Y044741D02*
D03*
X028298Y048902D02*
D03*
X03385Y04615D02*
D03*
M02*
