G04*
G04 #@! TF.GenerationSoftware,Altium Limited,Altium Designer,21.0.8 (223)*
G04*
G04 Layer_Color=32896*
%FSTAX24Y24*%
%MOIN*%
G70*
G04*
G04 #@! TF.SameCoordinates,8A4C6F49-4F26-47D5-9FDB-2FD25450CC73*
G04*
G04*
G04 #@! TF.FilePolarity,Positive*
G04*
G01*
G75*
%ADD12C,0.0050*%
%ADD16C,0.0100*%
%ADD19C,0.0040*%
D12*
X01116Y04025D02*
Y04165D01*
X01183D01*
Y04025D02*
Y04165D01*
X01116Y04025D02*
X01183D01*
X01116Y04255D02*
Y04395D01*
X01183D01*
Y04255D02*
Y04395D01*
X01116Y04255D02*
X01183D01*
X01117Y0449D02*
Y0463D01*
X01184D01*
Y0449D02*
Y0463D01*
X01117Y0449D02*
X01184D01*
X01116Y0518D02*
Y0532D01*
X01183D01*
Y0518D02*
Y0532D01*
X01116Y0518D02*
X01183D01*
X01116Y05405D02*
Y05545D01*
X01183D01*
Y05405D02*
Y05545D01*
X01116Y05405D02*
X01183D01*
X05025Y01436D02*
X05165D01*
X05025D02*
Y01503D01*
X05165D01*
Y01436D02*
Y01503D01*
X0478Y014394D02*
X0492D01*
X0478D02*
Y015064D01*
X0492D01*
Y014394D02*
Y015064D01*
X04764Y01485D02*
Y01625D01*
X04697Y01485D02*
X04764D01*
X04697D02*
Y01625D01*
X04764D01*
X05114Y0208D02*
Y0222D01*
X05047Y0208D02*
X05114D01*
X05047D02*
Y0222D01*
X05114D01*
X0502Y02306D02*
Y02373D01*
X0488D02*
X0502D01*
X0488Y02306D02*
Y02373D01*
Y02306D02*
X0502D01*
X0492Y02407D02*
Y02474D01*
Y02407D02*
X0506D01*
Y02474D01*
X0492D02*
X0506D01*
X0502Y02536D02*
Y02603D01*
X0488D02*
X0502D01*
X0488Y02536D02*
Y02603D01*
Y02536D02*
X0502D01*
X0492Y026354D02*
Y027024D01*
Y026354D02*
X0506D01*
Y027024D01*
X0492D02*
X0506D01*
X0502Y02766D02*
Y02833D01*
X0488D02*
X0502D01*
X0488Y02766D02*
Y02833D01*
Y02766D02*
X0502D01*
X0492Y02867D02*
Y02934D01*
Y02867D02*
X0506D01*
Y02934D01*
X0492D02*
X0506D01*
X0502Y02996D02*
Y03063D01*
X0488D02*
X0502D01*
X0488Y02996D02*
Y03063D01*
Y02996D02*
X0502D01*
X0492Y03097D02*
Y03164D01*
Y03097D02*
X0506D01*
Y03164D01*
X0492D02*
X0506D01*
X0502Y03226D02*
Y03293D01*
X0488D02*
X0502D01*
X0488Y03226D02*
Y03293D01*
Y03226D02*
X0502D01*
X0492Y03327D02*
Y03394D01*
Y03327D02*
X0506D01*
Y03394D01*
X0492D02*
X0506D01*
X0502Y03456D02*
Y03523D01*
X0488D02*
X0502D01*
X0488Y03456D02*
Y03523D01*
Y03456D02*
X0502D01*
X0492Y03557D02*
Y03624D01*
Y03557D02*
X0506D01*
Y03624D01*
X0492D02*
X0506D01*
X0502Y03686D02*
Y03753D01*
X0488D02*
X0502D01*
X0488Y03686D02*
Y03753D01*
Y03686D02*
X0502D01*
X0492Y03787D02*
Y03854D01*
Y03787D02*
X0506D01*
Y03854D01*
X0492D02*
X0506D01*
X0502Y03916D02*
Y03983D01*
X0488D02*
X0502D01*
X0488Y03916D02*
Y03983D01*
Y03916D02*
X0502D01*
X0492Y04017D02*
Y04084D01*
Y04017D02*
X0506D01*
Y04084D01*
X0492D02*
X0506D01*
X0502Y04146D02*
Y04213D01*
X0488D02*
X0502D01*
X0488Y04146D02*
Y04213D01*
Y04146D02*
X0502D01*
X0492Y04247D02*
Y04314D01*
Y04247D02*
X0506D01*
Y04314D01*
X0492D02*
X0506D01*
X0502Y04376D02*
Y04443D01*
X0488D02*
X0502D01*
X0488Y04376D02*
Y04443D01*
Y04376D02*
X0502D01*
X0492Y04477D02*
Y04544D01*
Y04477D02*
X0506D01*
Y04544D01*
X0492D02*
X0506D01*
X0502Y04606D02*
Y04673D01*
X0488D02*
X0502D01*
X0488Y04606D02*
Y04673D01*
Y04606D02*
X0502D01*
X0492Y04707D02*
Y04774D01*
Y04707D02*
X0506D01*
Y04774D01*
X0492D02*
X0506D01*
X0502Y04836D02*
Y04903D01*
X0488D02*
X0502D01*
X0488Y04836D02*
Y04903D01*
Y04836D02*
X0502D01*
X0492Y04937D02*
Y05004D01*
Y04937D02*
X0506D01*
Y05004D01*
X0492D02*
X0506D01*
X0502Y05066D02*
Y05133D01*
X0488D02*
X0502D01*
X0488Y05066D02*
Y05133D01*
Y05066D02*
X0502D01*
X0492Y05167D02*
Y05234D01*
Y05167D02*
X0506D01*
Y05234D01*
X0492D02*
X0506D01*
X0502Y05296D02*
Y05363D01*
X0488D02*
X0502D01*
X0488Y05296D02*
Y05363D01*
Y05296D02*
X0502D01*
X0492Y05397D02*
Y05464D01*
Y05397D02*
X0506D01*
Y05464D01*
X0492D02*
X0506D01*
X0502Y05526D02*
Y05593D01*
X0488D02*
X0502D01*
X0488Y05526D02*
Y05593D01*
Y05526D02*
X0502D01*
X0492Y05627D02*
Y05694D01*
Y05627D02*
X0506D01*
Y05694D01*
X0492D02*
X0506D01*
X0502Y05756D02*
Y05823D01*
X0488D02*
X0502D01*
X0488Y05756D02*
Y05823D01*
Y05756D02*
X0502D01*
X0492Y05857D02*
Y05924D01*
Y05857D02*
X0506D01*
Y05924D01*
X0492D02*
X0506D01*
X0502Y05986D02*
Y06053D01*
X0488D02*
X0502D01*
X0488Y05986D02*
Y06053D01*
Y05986D02*
X0502D01*
X0492Y06087D02*
Y06154D01*
Y06087D02*
X0506D01*
Y06154D01*
X0492D02*
X0506D01*
X0502Y06216D02*
Y06283D01*
X0488D02*
X0502D01*
X0488Y06216D02*
Y06283D01*
Y06216D02*
X0502D01*
X0492Y06317D02*
Y06384D01*
Y06317D02*
X0506D01*
Y06384D01*
X0492D02*
X0506D01*
X0084Y03554D02*
X0098D01*
Y03487D02*
Y03554D01*
X0084Y03487D02*
X0098D01*
X0084D02*
Y03554D01*
X034031Y04201D02*
Y04268D01*
X032631D02*
X034031D01*
X032631Y04201D02*
Y04268D01*
Y04201D02*
X034031D01*
X01361Y060861D02*
Y061531D01*
Y060861D02*
X01501D01*
Y061531D01*
X01361D02*
X01501D01*
X03312Y0464D02*
X03379D01*
X03312Y045D02*
Y0464D01*
Y045D02*
X03379D01*
Y0464D01*
X0312Y04201D02*
Y04268D01*
X0298D02*
X0312D01*
X0298Y04201D02*
Y04268D01*
Y04201D02*
X0312D01*
X02951Y04445D02*
X03018D01*
Y04585D01*
X02951D02*
X03018D01*
X02951Y04445D02*
Y04585D01*
Y04285D02*
X03018D01*
Y04425D01*
X02951D02*
X03018D01*
X02951Y04285D02*
Y04425D01*
X02691Y0635D02*
X02758D01*
Y0649D01*
X02691D02*
X02758D01*
X02691Y0635D02*
Y0649D01*
X0084Y03942D02*
Y04009D01*
Y03942D02*
X0098D01*
Y04009D01*
X0084D02*
X0098D01*
X01947Y03116D02*
X02087D01*
X01947D02*
Y03183D01*
X02087D01*
Y03116D02*
Y03183D01*
X02256Y03116D02*
X02396D01*
X02256D02*
Y03183D01*
X02396D01*
Y03116D02*
Y03183D01*
X02557Y03116D02*
X02697D01*
X02557D02*
Y03183D01*
X02697D01*
Y03116D02*
Y03183D01*
X02746Y0135D02*
X02813D01*
Y0149D01*
X02746D02*
X02813D01*
X02746Y0135D02*
Y0149D01*
X02063Y01795D02*
Y01935D01*
X01996Y01795D02*
X02063D01*
X01996D02*
Y01935D01*
X02063D01*
X01805Y01786D02*
X01945D01*
X01805D02*
Y01853D01*
X01945D01*
Y01786D02*
Y01853D01*
X01687Y01795D02*
Y01935D01*
X01754D01*
Y01795D02*
Y01935D01*
X01687Y01795D02*
X01754D01*
X01746Y02345D02*
X01813D01*
X01746Y02205D02*
Y02345D01*
Y02205D02*
X01813D01*
Y02345D01*
X01847Y02205D02*
X01914D01*
Y02345D01*
X01847D02*
X01914D01*
X01847Y02205D02*
Y02345D01*
X01946Y02345D02*
X02013D01*
X01946Y02205D02*
Y02345D01*
Y02205D02*
X02013D01*
Y02345D01*
X04045Y01396D02*
Y01463D01*
X03905D02*
X04045D01*
X03905Y01396D02*
Y01463D01*
Y01396D02*
X04045D01*
X01805Y01996D02*
X01945D01*
X01805D02*
Y02063D01*
X01945D01*
Y01996D02*
Y02063D01*
X01261Y0196D02*
Y021D01*
X01328D01*
Y0196D02*
Y021D01*
X01261Y0196D02*
X01328D01*
X01266Y0224D02*
Y0238D01*
X01333D01*
Y0224D02*
Y0238D01*
X01266Y0224D02*
X01333D01*
X01261Y02805D02*
Y02945D01*
X01328D01*
Y02805D02*
Y02945D01*
X01261Y02805D02*
X01328D01*
X01261Y0252D02*
Y0266D01*
X01328D01*
Y0252D02*
Y0266D01*
X01261Y0252D02*
X01328D01*
X051297Y01557D02*
Y01624D01*
Y01557D02*
X052697D01*
Y01624D01*
X051297D02*
X052697D01*
X0492Y01556D02*
Y01623D01*
X0478D02*
X0492D01*
X0478Y01556D02*
Y01623D01*
Y01556D02*
X0492D01*
X01117Y0495D02*
X01184D01*
Y0509D01*
X01117D02*
X01184D01*
X01117Y0495D02*
Y0509D01*
Y0472D02*
X01184D01*
Y0486D01*
X01117D02*
X01184D01*
X01117Y0472D02*
Y0486D01*
X0084Y03027D02*
Y03094D01*
Y03027D02*
X0098D01*
Y03094D01*
X0084D02*
X0098D01*
X0084Y03717D02*
Y03784D01*
Y03717D02*
X0098D01*
Y03784D01*
X0084D02*
X0098D01*
D16*
X0051Y03095D02*
X004967D01*
X005033D01*
Y03055D01*
X0051D01*
X004967D01*
X004767D02*
Y03095D01*
X0045Y03055D01*
Y03095D01*
X004367Y03055D02*
X004234D01*
X0043D01*
Y03095D01*
X004367Y030883D01*
X004034Y03055D02*
X0039D01*
X003967D01*
Y03095D01*
X004034Y030883D01*
X0037Y03075D02*
X003434D01*
X003567Y030883D02*
Y030617D01*
X059864Y024423D02*
Y02469D01*
X059731Y024823D01*
X059597Y02469D01*
Y024423D01*
Y024623D01*
X059864D01*
X059464Y024423D02*
Y024823D01*
X059198Y024423D01*
Y024823D01*
X058798Y024423D02*
X059064D01*
X058798Y02469D01*
Y024757D01*
X058864Y024823D01*
X058998D01*
X059064Y024757D01*
X059633Y012883D02*
X0597Y01295D01*
X059833D01*
X0599Y012883D01*
Y012617D01*
X059833Y01255D01*
X0597D01*
X059633Y012617D01*
Y01275D01*
X059767D01*
X0595Y01255D02*
Y01295D01*
X059234Y01255D01*
Y01295D01*
X0591D02*
Y01255D01*
X0589D01*
X058834Y012617D01*
Y012883D01*
X0589Y01295D01*
X0591D01*
X059597Y014915D02*
X059864D01*
Y014715D01*
X059731Y014782D01*
X059664D01*
X059597Y014715D01*
Y014582D01*
X059664Y014515D01*
X059797D01*
X059864Y014582D01*
X059464Y014915D02*
Y014648D01*
X059331Y014515D01*
X059198Y014648D01*
Y014915D01*
X0601Y016567D02*
Y016967D01*
X0599D01*
X059833Y0169D01*
Y016767D01*
X0599Y0167D01*
X0601D01*
X059967D02*
X059833Y016567D01*
X059434Y016967D02*
X0597D01*
Y016767D01*
X059567D01*
X0597D01*
Y016567D01*
X0593Y016967D02*
X059167D01*
X059234D01*
Y016567D01*
X0593D01*
X059167D01*
X058967Y016967D02*
Y016567D01*
X058767D01*
X0587Y016633D01*
Y0169D01*
X058767Y016967D01*
X058967D01*
X058567Y0165D02*
X058301D01*
X058167Y016967D02*
X057901D01*
X058034D01*
Y016567D01*
X057767Y016967D02*
X057501Y016567D01*
Y016967D02*
X057767Y016567D01*
X06015Y018567D02*
Y018967D01*
X05995D01*
X059883Y0189D01*
Y018767D01*
X05995Y0187D01*
X06015D01*
X060017D02*
X059883Y018567D01*
X059484Y018967D02*
X05975D01*
Y018767D01*
X059617D01*
X05975D01*
Y018567D01*
X05935Y018967D02*
X059217D01*
X059284D01*
Y018567D01*
X05935D01*
X059217D01*
X059017Y018967D02*
Y018567D01*
X058817D01*
X05875Y018633D01*
Y0189D01*
X058817Y018967D01*
X059017D01*
X058617Y0185D02*
X058351D01*
X058217Y018567D02*
Y018967D01*
X058017D01*
X057951Y0189D01*
Y018767D01*
X058017Y0187D01*
X058217D01*
X058084D02*
X057951Y018567D01*
X057817Y018967D02*
X057551Y018567D01*
Y018967D02*
X057817Y018567D01*
X0603Y021017D02*
Y020617D01*
Y020817D01*
X060033D01*
Y021017D01*
Y020617D01*
X0599D02*
Y021017D01*
X059767Y020883D01*
X059634Y021017D01*
Y020617D01*
X0595Y021017D02*
X059367D01*
X059434D01*
Y020617D01*
X0595D01*
X059367D01*
X059167Y02055D02*
X0589D01*
X058767Y021017D02*
X058501D01*
X058634D01*
Y020617D01*
X058367Y021017D02*
X058101Y020617D01*
Y021017D02*
X058367Y020617D01*
X0603Y022967D02*
Y022567D01*
Y022767D01*
X060033D01*
Y022967D01*
Y022567D01*
X0599D02*
Y022967D01*
X059767Y022833D01*
X059634Y022967D01*
Y022567D01*
X0595Y022967D02*
X059367D01*
X059434D01*
Y022567D01*
X0595D01*
X059367D01*
X059167Y0225D02*
X0589D01*
X058767Y022567D02*
Y022967D01*
X058567D01*
X058501Y0229D01*
Y022767D01*
X058567Y0227D01*
X058767D01*
X058634D02*
X058501Y022567D01*
X058367Y022967D02*
X058101Y022567D01*
Y022967D02*
X058367Y022567D01*
X059864Y026405D02*
Y026671D01*
X059731Y026805D01*
X059597Y026671D01*
Y026405D01*
Y026605D01*
X059864D01*
X059464Y026405D02*
Y026805D01*
X059198Y026405D01*
Y026805D01*
X059064Y026405D02*
X058931D01*
X058998D01*
Y026805D01*
X059064Y026738D01*
X0597Y029D02*
X059833D01*
X0599Y028933D01*
Y028667D01*
X059833Y0286D01*
X0597D01*
X059633Y028667D01*
Y028933D01*
X0597Y029D01*
X0595D02*
Y028667D01*
X059433Y0286D01*
X0593D01*
X059234Y028667D01*
Y029D01*
X0591D02*
X058834D01*
X058967D01*
Y0286D01*
X0587D02*
X058567D01*
X058634D01*
Y029D01*
X0587Y028933D01*
X058367D02*
X058301Y029D01*
X058167D01*
X058101Y028933D01*
Y028867D01*
X058167Y0288D01*
X058101Y028733D01*
Y028667D01*
X058167Y0286D01*
X058301D01*
X058367Y028667D01*
Y028733D01*
X058301Y0288D01*
X058367Y028867D01*
Y028933D01*
X058301Y0288D02*
X058167D01*
X05965Y031D02*
X059783D01*
X05985Y030933D01*
Y030667D01*
X059783Y0306D01*
X05965D01*
X059583Y030667D01*
Y030933D01*
X05965Y031D01*
X05945D02*
Y030667D01*
X059383Y0306D01*
X05925D01*
X059184Y030667D01*
Y031D01*
X05905D02*
X058784D01*
X058917D01*
Y0306D01*
X05865D02*
X058517D01*
X058584D01*
Y031D01*
X05865Y030933D01*
X058317Y031D02*
X058051D01*
Y030933D01*
X058317Y030667D01*
Y0306D01*
X059689Y040936D02*
X059822D01*
X059889Y04087D01*
Y040603D01*
X059822Y040536D01*
X059689D01*
X059622Y040603D01*
Y04087D01*
X059689Y040936D01*
X059489D02*
Y040603D01*
X059422Y040536D01*
X059289D01*
X059222Y040603D01*
Y040936D01*
X059089D02*
X058823D01*
X058956D01*
Y040536D01*
X058689D02*
X058556D01*
X058623D01*
Y040936D01*
X058689Y04087D01*
X058089Y040536D02*
X058356D01*
X058089Y040803D01*
Y04087D01*
X058156Y040936D01*
X058289D01*
X058356Y04087D01*
X059689Y034979D02*
X059822D01*
X059889Y034912D01*
Y034646D01*
X059822Y034579D01*
X059689D01*
X059622Y034646D01*
Y034912D01*
X059689Y034979D01*
X059489D02*
Y034646D01*
X059422Y034579D01*
X059289D01*
X059222Y034646D01*
Y034979D01*
X059089D02*
X058823D01*
X058956D01*
Y034579D01*
X058689D02*
X058556D01*
X058623D01*
Y034979D01*
X058689Y034912D01*
X058089Y034979D02*
X058356D01*
Y034779D01*
X058223Y034846D01*
X058156D01*
X058089Y034779D01*
Y034646D01*
X058156Y034579D01*
X058289D01*
X058356Y034646D01*
X059689Y032997D02*
X059822D01*
X059889Y032931D01*
Y032664D01*
X059822Y032597D01*
X059689D01*
X059622Y032664D01*
Y032931D01*
X059689Y032997D01*
X059489D02*
Y032664D01*
X059422Y032597D01*
X059289D01*
X059222Y032664D01*
Y032997D01*
X059089D02*
X058823D01*
X058956D01*
Y032597D01*
X058689D02*
X058556D01*
X058623D01*
Y032997D01*
X058689Y032931D01*
X058089Y032997D02*
X058223Y032931D01*
X058356Y032797D01*
Y032664D01*
X058289Y032597D01*
X058156D01*
X058089Y032664D01*
Y032731D01*
X058156Y032797D01*
X058356D01*
X059689Y036973D02*
X059822D01*
X059889Y036906D01*
Y03664D01*
X059822Y036573D01*
X059689D01*
X059622Y03664D01*
Y036906D01*
X059689Y036973D01*
X059489D02*
Y03664D01*
X059422Y036573D01*
X059289D01*
X059222Y03664D01*
Y036973D01*
X059089D02*
X058823D01*
X058956D01*
Y036573D01*
X058689D02*
X058556D01*
X058623D01*
Y036973D01*
X058689Y036906D01*
X058156Y036573D02*
Y036973D01*
X058356Y036773D01*
X058089D01*
X059689Y038955D02*
X059822D01*
X059889Y038888D01*
Y038621D01*
X059822Y038555D01*
X059689D01*
X059622Y038621D01*
Y038888D01*
X059689Y038955D01*
X059489D02*
Y038621D01*
X059422Y038555D01*
X059289D01*
X059222Y038621D01*
Y038955D01*
X059089D02*
X058823D01*
X058956D01*
Y038555D01*
X058689D02*
X058556D01*
X058623D01*
Y038955D01*
X058689Y038888D01*
X058356D02*
X058289Y038955D01*
X058156D01*
X058089Y038888D01*
Y038821D01*
X058156Y038755D01*
X058223D01*
X058156D01*
X058089Y038688D01*
Y038621D01*
X058156Y038555D01*
X058289D01*
X058356Y038621D01*
X059689Y042918D02*
X059822D01*
X059889Y042851D01*
Y042585D01*
X059822Y042518D01*
X059689D01*
X059622Y042585D01*
Y042851D01*
X059689Y042918D01*
X059489D02*
Y042585D01*
X059422Y042518D01*
X059289D01*
X059222Y042585D01*
Y042918D01*
X059089D02*
X058823D01*
X058956D01*
Y042518D01*
X058689D02*
X058556D01*
X058623D01*
Y042918D01*
X058689Y042851D01*
X058356Y042518D02*
X058223D01*
X058289D01*
Y042918D01*
X058356Y042851D01*
X05965Y04515D02*
X059783D01*
X05985Y045083D01*
Y044817D01*
X059783Y04475D01*
X05965D01*
X059583Y044817D01*
Y045083D01*
X05965Y04515D01*
X05945D02*
Y044817D01*
X059383Y04475D01*
X05925D01*
X059184Y044817D01*
Y04515D01*
X05905D02*
X058784D01*
X058917D01*
Y04475D01*
X05865D02*
X058517D01*
X058584D01*
Y04515D01*
X05865Y045083D01*
X058317D02*
X058251Y04515D01*
X058117D01*
X058051Y045083D01*
Y044817D01*
X058117Y04475D01*
X058251D01*
X058317Y044817D01*
Y045083D01*
X059627Y047116D02*
X05976D01*
X059827Y04705D01*
Y046783D01*
X05976Y046717D01*
X059627D01*
X05956Y046783D01*
Y04705D01*
X059627Y047116D01*
X059427D02*
Y046783D01*
X05936Y046717D01*
X059227D01*
X05916Y046783D01*
Y047116D01*
X059027D02*
X058761D01*
X058894D01*
Y046717D01*
X058627Y046783D02*
X058561Y046717D01*
X058427D01*
X058361Y046783D01*
Y04705D01*
X058427Y047116D01*
X058561D01*
X058627Y04705D01*
Y046983D01*
X058561Y046916D01*
X058361D01*
X059627Y04911D02*
X05976D01*
X059827Y049044D01*
Y048777D01*
X05976Y048711D01*
X059627D01*
X05956Y048777D01*
Y049044D01*
X059627Y04911D01*
X059427D02*
Y048777D01*
X05936Y048711D01*
X059227D01*
X05916Y048777D01*
Y04911D01*
X059027D02*
X058761D01*
X058894D01*
Y048711D01*
X058627Y049044D02*
X058561Y04911D01*
X058427D01*
X058361Y049044D01*
Y048977D01*
X058427Y04891D01*
X058361Y048844D01*
Y048777D01*
X058427Y048711D01*
X058561D01*
X058627Y048777D01*
Y048844D01*
X058561Y04891D01*
X058627Y048977D01*
Y049044D01*
X058561Y04891D02*
X058427D01*
X059627Y051092D02*
X05976D01*
X059827Y051025D01*
Y050759D01*
X05976Y050692D01*
X059627D01*
X05956Y050759D01*
Y051025D01*
X059627Y051092D01*
X059427D02*
Y050759D01*
X05936Y050692D01*
X059227D01*
X05916Y050759D01*
Y051092D01*
X059027D02*
X058761D01*
X058894D01*
Y050692D01*
X058627Y051092D02*
X058361D01*
Y051025D01*
X058627Y050759D01*
Y050692D01*
X059627Y053074D02*
X05976D01*
X059827Y053007D01*
Y05274D01*
X05976Y052674D01*
X059627D01*
X05956Y05274D01*
Y053007D01*
X059627Y053074D01*
X059427D02*
Y05274D01*
X05936Y052674D01*
X059227D01*
X05916Y05274D01*
Y053074D01*
X059027D02*
X058761D01*
X058894D01*
Y052674D01*
X058361Y053074D02*
X058494Y053007D01*
X058627Y052874D01*
Y05274D01*
X058561Y052674D01*
X058427D01*
X058361Y05274D01*
Y052807D01*
X058427Y052874D01*
X058627D01*
X0596Y05525D02*
X059733D01*
X0598Y055183D01*
Y054917D01*
X059733Y05485D01*
X0596D01*
X059533Y054917D01*
Y055183D01*
X0596Y05525D01*
X0594D02*
Y054917D01*
X059333Y05485D01*
X0592D01*
X059134Y054917D01*
Y05525D01*
X059D02*
X058734D01*
X058867D01*
Y05485D01*
X058334Y05525D02*
X0586D01*
Y05505D01*
X058467Y055117D01*
X0584D01*
X058334Y05505D01*
Y054917D01*
X0584Y05485D01*
X058534D01*
X0586Y054917D01*
X059577Y059204D02*
X059711D01*
X059777Y059138D01*
Y058871D01*
X059711Y058804D01*
X059577D01*
X059511Y058871D01*
Y059138D01*
X059577Y059204D01*
X059378D02*
Y058871D01*
X059311Y058804D01*
X059178D01*
X059111Y058871D01*
Y059204D01*
X058978D02*
X058711D01*
X058844D01*
Y058804D01*
X058578Y059138D02*
X058511Y059204D01*
X058378D01*
X058311Y059138D01*
Y059071D01*
X058378Y059004D01*
X058444D01*
X058378D01*
X058311Y058938D01*
Y058871D01*
X058378Y058804D01*
X058511D01*
X058578Y058871D01*
X05959Y057223D02*
X059723D01*
X05979Y057156D01*
Y056889D01*
X059723Y056823D01*
X05959D01*
X059523Y056889D01*
Y057156D01*
X05959Y057223D01*
X05939D02*
Y056889D01*
X059323Y056823D01*
X05919D01*
X059123Y056889D01*
Y057223D01*
X05899D02*
X058723D01*
X058857D01*
Y056823D01*
X05839D02*
Y057223D01*
X05859Y057023D01*
X058324D01*
X059577Y061186D02*
X059711D01*
X059777Y061119D01*
Y060853D01*
X059711Y060786D01*
X059577D01*
X059511Y060853D01*
Y061119D01*
X059577Y061186D01*
X059378D02*
Y060853D01*
X059311Y060786D01*
X059178D01*
X059111Y060853D01*
Y061186D01*
X058978D02*
X058711D01*
X058844D01*
Y060786D01*
X058311D02*
X058578D01*
X058311Y061053D01*
Y061119D01*
X058378Y061186D01*
X058511D01*
X058578Y061119D01*
X059577Y063168D02*
X059711D01*
X059777Y063101D01*
Y062834D01*
X059711Y062768D01*
X059577D01*
X059511Y062834D01*
Y063101D01*
X059577Y063168D01*
X059378D02*
Y062834D01*
X059311Y062768D01*
X059178D01*
X059111Y062834D01*
Y063168D01*
X058978D02*
X058711D01*
X058844D01*
Y062768D01*
X058578D02*
X058444D01*
X058511D01*
Y063168D01*
X058578Y063101D01*
X005033Y012783D02*
X0051Y01285D01*
X005233D01*
X0053Y012783D01*
Y012517D01*
X005233Y01245D01*
X0051D01*
X005033Y012517D01*
Y01265D01*
X005167D01*
X0049Y01245D02*
Y01285D01*
X004634Y01245D01*
Y01285D01*
X0045D02*
Y01245D01*
X0043D01*
X004234Y012517D01*
Y012783D01*
X0043Y01285D01*
X0045D01*
X0052Y0148D02*
Y0144D01*
X004933D01*
X0048Y0148D02*
X004667D01*
X004733D01*
Y0144D01*
X0048D01*
X004667D01*
X004467Y0148D02*
Y0144D01*
X004267D01*
X0042Y014467D01*
Y014733D01*
X004267Y0148D01*
X004467D01*
X004067Y0144D02*
Y014667D01*
X003934Y0148D01*
X0038Y014667D01*
Y0144D01*
Y0146D01*
X004067D01*
X003667Y0144D02*
Y0148D01*
X003467D01*
X003401Y014733D01*
Y0146D01*
X003467Y014533D01*
X003667D01*
X003534D02*
X003401Y0144D01*
X003267Y014733D02*
X003201Y0148D01*
X003067D01*
X003001Y014733D01*
Y014667D01*
X003067Y0146D01*
X003134D01*
X003067D01*
X003001Y014533D01*
Y014467D01*
X003067Y0144D01*
X003201D01*
X003267Y014467D01*
X00515Y0169D02*
Y0165D01*
X004883D01*
X00475Y0169D02*
X004617D01*
X004683D01*
Y0165D01*
X00475D01*
X004617D01*
X004417Y0169D02*
Y0165D01*
X004217D01*
X00415Y016567D01*
Y016833D01*
X004217Y0169D01*
X004417D01*
X004017Y0165D02*
Y016767D01*
X003884Y0169D01*
X00375Y016767D01*
Y0165D01*
Y0167D01*
X004017D01*
X003617Y0165D02*
Y0169D01*
X003417D01*
X003351Y016833D01*
Y0167D01*
X003417Y016633D01*
X003617D01*
X003484D02*
X003351Y0165D01*
X002951D02*
X003217D01*
X002951Y016767D01*
Y016833D01*
X003017Y0169D01*
X003151D01*
X003217Y016833D01*
X0051Y01885D02*
Y01845D01*
X004833D01*
X0047Y01885D02*
X004567D01*
X004633D01*
Y01845D01*
X0047D01*
X004567D01*
X004367Y01885D02*
Y01845D01*
X004167D01*
X0041Y018517D01*
Y018783D01*
X004167Y01885D01*
X004367D01*
X003967Y01845D02*
Y018717D01*
X003834Y01885D01*
X0037Y018717D01*
Y01845D01*
Y01865D01*
X003967D01*
X003567Y01845D02*
Y01885D01*
X003367D01*
X003301Y018783D01*
Y01865D01*
X003367Y018583D01*
X003567D01*
X003434D02*
X003301Y01845D01*
X003167D02*
X003034D01*
X003101D01*
Y01885D01*
X003167Y018783D01*
X004883Y021D02*
X00515D01*
Y0206D01*
X004883D01*
X00515Y0208D02*
X005017D01*
X00475Y0206D02*
Y021D01*
X004484Y0206D01*
Y021D01*
X004084Y020933D02*
X00415Y021D01*
X004284D01*
X00435Y020933D01*
Y020667D01*
X004284Y0206D01*
X00415D01*
X004084Y020667D01*
X003684Y0206D02*
X00395D01*
X003684Y020867D01*
Y020933D01*
X00375Y021D01*
X003884D01*
X00395Y020933D01*
X003551Y021D02*
Y0206D01*
X003351D01*
X003284Y020667D01*
Y020733D01*
X003351Y0208D01*
X003551D01*
X003351D01*
X003284Y020867D01*
Y020933D01*
X003351Y021D01*
X003551D01*
X004833Y02295D02*
X0051D01*
Y02255D01*
X004833D01*
X0051Y02275D02*
X004967D01*
X0047Y02255D02*
Y02295D01*
X004434Y02255D01*
Y02295D01*
X004034Y022883D02*
X0041Y02295D01*
X004234D01*
X0043Y022883D01*
Y022617D01*
X004234Y02255D01*
X0041D01*
X004034Y022617D01*
X003634Y02255D02*
X0039D01*
X003634Y022817D01*
Y022883D01*
X0037Y02295D01*
X003834D01*
X0039Y022883D01*
X003501Y02255D02*
Y022817D01*
X003367Y02295D01*
X003234Y022817D01*
Y02255D01*
Y02275D01*
X003501D01*
X004833Y02485D02*
X0051D01*
Y02445D01*
X004833D01*
X0051Y02465D02*
X004967D01*
X0047Y02445D02*
Y02485D01*
X004434Y02445D01*
Y02485D01*
X004034Y024783D02*
X0041Y02485D01*
X004234D01*
X0043Y024783D01*
Y024517D01*
X004234Y02445D01*
X0041D01*
X004034Y024517D01*
X0039Y02445D02*
X003767D01*
X003834D01*
Y02485D01*
X0039Y024783D01*
X003567Y02485D02*
Y02445D01*
X003367D01*
X003301Y024517D01*
Y024583D01*
X003367Y02465D01*
X003567D01*
X003367D01*
X003301Y024717D01*
Y024783D01*
X003367Y02485D01*
X003567D01*
X004833Y0268D02*
X0051D01*
Y0264D01*
X004833D01*
X0051Y0266D02*
X004967D01*
X0047Y0264D02*
Y0268D01*
X004434Y0264D01*
Y0268D01*
X004034Y026733D02*
X0041Y0268D01*
X004234D01*
X0043Y026733D01*
Y026467D01*
X004234Y0264D01*
X0041D01*
X004034Y026467D01*
X0039Y0264D02*
X003767D01*
X003834D01*
Y0268D01*
X0039Y026733D01*
X003567Y0264D02*
Y026667D01*
X003434Y0268D01*
X003301Y026667D01*
Y0264D01*
Y0266D01*
X003567D01*
X00515Y0289D02*
X005017D01*
X005083D01*
Y0285D01*
X00515D01*
X005017D01*
X004817D02*
Y0289D01*
X00455Y0285D01*
Y0289D01*
X004417Y0285D02*
X004284D01*
X00435D01*
Y0289D01*
X004417Y028833D01*
X004084Y0285D02*
X00395D01*
X004017D01*
Y0289D01*
X004084Y028833D01*
X00375Y0287D02*
X003484D01*
X0051Y033D02*
X004967D01*
X005033D01*
Y0326D01*
X0051D01*
X004967D01*
X004767D02*
Y033D01*
X0045Y0326D01*
Y033D01*
X004367Y0326D02*
X004234D01*
X0043D01*
Y033D01*
X004367Y032933D01*
X004034D02*
X003967Y033D01*
X003834D01*
X003767Y032933D01*
Y032667D01*
X003834Y0326D01*
X003967D01*
X004034Y032667D01*
Y032933D01*
X003634Y0328D02*
X003367D01*
X00505Y0349D02*
X004917D01*
X004983D01*
Y0345D01*
X00505D01*
X004917D01*
X004717D02*
Y0349D01*
X00445Y0345D01*
Y0349D01*
X004317Y0345D02*
X004184D01*
X00425D01*
Y0349D01*
X004317Y034833D01*
X003984D02*
X003917Y0349D01*
X003784D01*
X003717Y034833D01*
Y034567D01*
X003784Y0345D01*
X003917D01*
X003984Y034567D01*
Y034833D01*
X003584Y0347D02*
X003317D01*
X003451Y034833D02*
Y034567D01*
X00505Y03695D02*
X004917D01*
X004983D01*
Y03655D01*
X00505D01*
X004917D01*
X004717D02*
Y03695D01*
X00445Y03655D01*
Y03695D01*
X004317Y036617D02*
X00425Y03655D01*
X004117D01*
X00405Y036617D01*
Y036883D01*
X004117Y03695D01*
X00425D01*
X004317Y036883D01*
Y036817D01*
X00425Y03675D01*
X00405D01*
X003917D02*
X00365D01*
X00505Y03895D02*
X004917D01*
X004983D01*
Y03855D01*
X00505D01*
X004917D01*
X004717D02*
Y03895D01*
X00445Y03855D01*
Y03895D01*
X004317Y038617D02*
X00425Y03855D01*
X004117D01*
X00405Y038617D01*
Y038883D01*
X004117Y03895D01*
X00425D01*
X004317Y038883D01*
Y038817D01*
X00425Y03875D01*
X00405D01*
X003917D02*
X00365D01*
X003784Y038883D02*
Y038617D01*
X00505Y04095D02*
X004917D01*
X004983D01*
Y04055D01*
X00505D01*
X004917D01*
X004717D02*
Y04095D01*
X00445Y04055D01*
Y04095D01*
X004317Y040883D02*
X00425Y04095D01*
X004117D01*
X00405Y040883D01*
Y040817D01*
X004117Y04075D01*
X00405Y040683D01*
Y040617D01*
X004117Y04055D01*
X00425D01*
X004317Y040617D01*
Y040683D01*
X00425Y04075D01*
X004317Y040817D01*
Y040883D01*
X00425Y04075D02*
X004117D01*
X003917D02*
X00365D01*
X005Y0429D02*
X004867D01*
X004933D01*
Y0425D01*
X005D01*
X004867D01*
X004667D02*
Y0429D01*
X0044Y0425D01*
Y0429D01*
X004267Y042833D02*
X0042Y0429D01*
X004067D01*
X004Y042833D01*
Y042767D01*
X004067Y0427D01*
X004Y042633D01*
Y042567D01*
X004067Y0425D01*
X0042D01*
X004267Y042567D01*
Y042633D01*
X0042Y0427D01*
X004267Y042767D01*
Y042833D01*
X0042Y0427D02*
X004067D01*
X003867D02*
X0036D01*
X003734Y042833D02*
Y042567D01*
X00495Y045D02*
X004817D01*
X004883D01*
Y0446D01*
X00495D01*
X004817D01*
X004617D02*
Y045D01*
X00435Y0446D01*
Y045D01*
X004217D02*
X00395D01*
Y044933D01*
X004217Y044667D01*
Y0446D01*
X00495Y047D02*
X004817D01*
X004883D01*
Y0466D01*
X00495D01*
X004817D01*
X004617D02*
Y047D01*
X00435Y0466D01*
Y047D01*
X00395D02*
X004084Y046933D01*
X004217Y0468D01*
Y046667D01*
X00415Y0466D01*
X004017D01*
X00395Y046667D01*
Y046733D01*
X004017Y0468D01*
X004217D01*
X00485Y051D02*
X004717D01*
X004783D01*
Y0506D01*
X00485D01*
X004717D01*
X004517D02*
Y051D01*
X00425Y0506D01*
Y051D01*
X003917Y0506D02*
Y051D01*
X004117Y0508D01*
X00385D01*
X0049Y04895D02*
X004767D01*
X004833D01*
Y04855D01*
X0049D01*
X004767D01*
X004567D02*
Y04895D01*
X0043Y04855D01*
Y04895D01*
X0039D02*
X004167D01*
Y04875D01*
X004034Y048817D01*
X003967D01*
X0039Y04875D01*
Y048617D01*
X003967Y04855D01*
X0041D01*
X004167Y048617D01*
X0048Y053D02*
X004667D01*
X004733D01*
Y0526D01*
X0048D01*
X004667D01*
X004467D02*
Y053D01*
X0042Y0526D01*
Y053D01*
X004067Y052933D02*
X004Y053D01*
X003867D01*
X0038Y052933D01*
Y052867D01*
X003867Y0528D01*
X003934D01*
X003867D01*
X0038Y052733D01*
Y052667D01*
X003867Y0526D01*
X004D01*
X004067Y052667D01*
X0049Y0551D02*
X004767D01*
X004833D01*
Y0547D01*
X0049D01*
X004767D01*
X004567D02*
Y0551D01*
X0043Y0547D01*
Y0551D01*
X0039Y0547D02*
X004167D01*
X0039Y054967D01*
Y055033D01*
X003967Y0551D01*
X0041D01*
X004167Y055033D01*
X0049Y05705D02*
X004767D01*
X004833D01*
Y05665D01*
X0049D01*
X004767D01*
X004567D02*
Y05705D01*
X0043Y05665D01*
Y05705D01*
X004167Y05665D02*
X004034D01*
X0041D01*
Y05705D01*
X004167Y056983D01*
X004583Y05865D02*
X00485D01*
X004583Y058917D01*
Y058983D01*
X00465Y05905D01*
X004783D01*
X00485Y058983D01*
X00425Y05865D02*
Y05905D01*
X00445Y05885D01*
X004184D01*
X00405Y05905D02*
Y058783D01*
X003917Y05865D01*
X003784Y058783D01*
Y05905D01*
X004583Y061033D02*
X00465Y0611D01*
X004783D01*
X00485Y061033D01*
Y060767D01*
X004783Y0607D01*
X00465D01*
X004583Y060767D01*
Y0609D01*
X004717D01*
X00445Y0607D02*
Y0611D01*
X004184Y0607D01*
Y0611D01*
X00405D02*
Y0607D01*
X00385D01*
X003784Y060767D01*
Y061033D01*
X00385Y0611D01*
X00405D01*
X004583Y062717D02*
X00485D01*
X004583Y062983D01*
Y06305D01*
X00465Y063117D01*
X004783D01*
X00485Y06305D01*
X00425Y062717D02*
Y063117D01*
X00445Y062917D01*
X004184D01*
X00405Y063117D02*
Y06285D01*
X003917Y062717D01*
X003784Y06285D01*
Y063117D01*
X00365Y06265D02*
X003384D01*
X003251Y063117D02*
X003117D01*
X003184D01*
Y062717D01*
X003251D01*
X003117D01*
X002917D02*
Y063117D01*
X002651Y062717D01*
Y063117D01*
X01806Y02377D02*
Y02417D01*
X01786D01*
X017793Y024103D01*
Y02397D01*
X01786Y023903D01*
X01806D01*
X017927D02*
X017793Y02377D01*
X01766D02*
X017527D01*
X017593D01*
Y02417D01*
X01766Y024103D01*
X017327D02*
X01726Y02417D01*
X017127D01*
X01706Y024103D01*
Y024037D01*
X017127Y02397D01*
X017194D01*
X017127D01*
X01706Y023903D01*
Y023837D01*
X017127Y02377D01*
X01726D01*
X017327Y023837D01*
X01666Y02417D02*
X016927D01*
Y02397D01*
X016794Y024037D01*
X016727D01*
X01666Y02397D01*
Y023837D01*
X016727Y02377D01*
X01686D01*
X016927Y023837D01*
X01906Y02378D02*
Y02418D01*
X01886D01*
X018793Y024113D01*
Y02398D01*
X01886Y023913D01*
X01906D01*
X018927D02*
X018793Y02378D01*
X018394Y02418D02*
X01866D01*
Y02398D01*
X018527Y024047D01*
X01846D01*
X018394Y02398D01*
Y023847D01*
X01846Y02378D01*
X018593D01*
X01866Y023847D01*
X01826Y024113D02*
X018194Y02418D01*
X01806D01*
X017994Y024113D01*
Y024047D01*
X01806Y02398D01*
X018127D01*
X01806D01*
X017994Y023913D01*
Y023847D01*
X01806Y02378D01*
X018194D01*
X01826Y023847D01*
X02006Y02377D02*
Y02417D01*
X01986D01*
X019793Y024103D01*
Y02397D01*
X01986Y023903D01*
X02006D01*
X019927D02*
X019793Y02377D01*
X01946D02*
Y02417D01*
X01966Y02397D01*
X019394D01*
X01926Y024103D02*
X019194Y02417D01*
X01906D01*
X018994Y024103D01*
Y024037D01*
X01906Y02397D01*
X018994Y023903D01*
Y023837D01*
X01906Y02377D01*
X019194D01*
X01926Y023837D01*
Y023903D01*
X019194Y02397D01*
X01926Y024037D01*
Y024103D01*
X019194Y02397D02*
X01906D01*
X017417Y019583D02*
X017483Y01965D01*
X017617D01*
X017683Y019583D01*
Y019317D01*
X017617Y01925D01*
X017483D01*
X017417Y019317D01*
X017283Y019583D02*
X017217Y01965D01*
X017083D01*
X017017Y019583D01*
Y019517D01*
X017083Y01945D01*
X01715D01*
X017083D01*
X017017Y019383D01*
Y019317D01*
X017083Y01925D01*
X017217D01*
X017283Y019317D01*
X016883D02*
X016817Y01925D01*
X016683D01*
X016617Y019317D01*
Y019583D01*
X016683Y01965D01*
X016817D01*
X016883Y019583D01*
Y019517D01*
X016817Y01945D01*
X016617D01*
X0208Y03216D02*
Y03256D01*
X0206D01*
X020533Y032493D01*
Y03236D01*
X0206Y032293D01*
X0208D01*
X020667D02*
X020533Y03216D01*
X0204D02*
X020267D01*
X020333D01*
Y03256D01*
X0204Y032493D01*
X020067D02*
X02Y03256D01*
X019867D01*
X0198Y032493D01*
Y032427D01*
X019867Y03236D01*
X019934D01*
X019867D01*
X0198Y032293D01*
Y032227D01*
X019867Y03216D01*
X02D01*
X020067Y032227D01*
X019467Y03216D02*
Y03256D01*
X019667Y03236D01*
X0194D01*
X02689Y03216D02*
Y03256D01*
X02669D01*
X026623Y032493D01*
Y03236D01*
X02669Y032293D01*
X02689D01*
X026757D02*
X026623Y03216D01*
X02649D02*
X026357D01*
X026423D01*
Y03256D01*
X02649Y032493D01*
X026157D02*
X02609Y03256D01*
X025957D01*
X02589Y032493D01*
Y032427D01*
X025957Y03236D01*
X026024D01*
X025957D01*
X02589Y032293D01*
Y032227D01*
X025957Y03216D01*
X02609D01*
X026157Y032227D01*
X025757Y032493D02*
X02569Y03256D01*
X025557D01*
X02549Y032493D01*
Y032427D01*
X025557Y03236D01*
X025624D01*
X025557D01*
X02549Y032293D01*
Y032227D01*
X025557Y03216D01*
X02569D01*
X025757Y032227D01*
X02388Y03216D02*
Y03256D01*
X02368D01*
X023613Y032493D01*
Y03236D01*
X02368Y032293D01*
X02388D01*
X023747D02*
X023613Y03216D01*
X02348D02*
X023347D01*
X023413D01*
Y03256D01*
X02348Y032493D01*
X023147D02*
X02308Y03256D01*
X022947D01*
X02288Y032493D01*
Y032427D01*
X022947Y03236D01*
X023014D01*
X022947D01*
X02288Y032293D01*
Y032227D01*
X022947Y03216D01*
X02308D01*
X023147Y032227D01*
X02248Y03216D02*
X022747D01*
X02248Y032427D01*
Y032493D01*
X022547Y03256D01*
X02268D01*
X022747Y032493D01*
X0532Y0462D02*
Y0466D01*
X053D01*
X052933Y046533D01*
Y0464D01*
X053Y046333D01*
X0532D01*
X053066D02*
X052933Y0462D01*
X0528D02*
X052667D01*
X052733D01*
Y0466D01*
X0528Y046533D01*
X0522Y0462D02*
X052467D01*
X0522Y046467D01*
Y046533D01*
X052267Y0466D01*
X0524D01*
X052467Y046533D01*
X0518Y0462D02*
X052067D01*
X0518Y046467D01*
Y046533D01*
X051867Y0466D01*
X052D01*
X052067Y046533D01*
X053033Y02775D02*
Y02815D01*
X052833D01*
X052767Y028083D01*
Y02795D01*
X052833Y027883D01*
X053033D01*
X0529D02*
X052767Y02775D01*
X052633D02*
X0525D01*
X052567D01*
Y02815D01*
X052633Y028083D01*
X052033Y02775D02*
X0523D01*
X052033Y028017D01*
Y028083D01*
X0521Y02815D01*
X052233D01*
X0523Y028083D01*
X0519Y02775D02*
X051767D01*
X051834D01*
Y02815D01*
X0519Y028083D01*
X053166Y0472D02*
Y0476D01*
X052967D01*
X0529Y047533D01*
Y0474D01*
X052967Y047333D01*
X053166D01*
X053033D02*
X0529Y0472D01*
X052767D02*
X052633D01*
X0527D01*
Y0476D01*
X052767Y047533D01*
X052433Y0472D02*
X0523D01*
X052367D01*
Y0476D01*
X052433Y047533D01*
X0521D02*
X052033Y0476D01*
X0519D01*
X051834Y047533D01*
Y047467D01*
X0519Y0474D01*
X051834Y047333D01*
Y047267D01*
X0519Y0472D01*
X052033D01*
X0521Y047267D01*
Y047333D01*
X052033Y0474D01*
X0521Y047467D01*
Y047533D01*
X052033Y0474D02*
X0519D01*
X053166Y0288D02*
Y0292D01*
X052967D01*
X0529Y029133D01*
Y029D01*
X052967Y028933D01*
X053166D01*
X053033D02*
X0529Y0288D01*
X052767D02*
X052633D01*
X0527D01*
Y0292D01*
X052767Y029133D01*
X052433Y0288D02*
X0523D01*
X052367D01*
Y0292D01*
X052433Y029133D01*
X0521Y0292D02*
X051834D01*
Y029133D01*
X0521Y028867D01*
Y0288D01*
X053116Y0485D02*
Y0489D01*
X052917D01*
X05285Y048833D01*
Y0487D01*
X052917Y048633D01*
X053116D01*
X052983D02*
X05285Y0485D01*
X052717D02*
X052583D01*
X05265D01*
Y0489D01*
X052717Y048833D01*
X052383Y0485D02*
X05225D01*
X052317D01*
Y0489D01*
X052383Y048833D01*
X051784Y0489D02*
X051917Y048833D01*
X05205Y0487D01*
Y048567D01*
X051983Y0485D01*
X05185D01*
X051784Y048567D01*
Y048633D01*
X05185Y0487D01*
X05205D01*
X053166Y0301D02*
Y0305D01*
X052967D01*
X0529Y030433D01*
Y0303D01*
X052967Y030233D01*
X053166D01*
X053033D02*
X0529Y0301D01*
X052767D02*
X052633D01*
X0527D01*
Y0305D01*
X052767Y030433D01*
X052433Y0301D02*
X0523D01*
X052367D01*
Y0305D01*
X052433Y030433D01*
X051834Y0305D02*
X0521D01*
Y0303D01*
X051967Y030367D01*
X0519D01*
X051834Y0303D01*
Y030167D01*
X0519Y0301D01*
X052033D01*
X0521Y030167D01*
X053166Y0495D02*
Y0499D01*
X052967D01*
X0529Y049833D01*
Y0497D01*
X052967Y049633D01*
X053166D01*
X053033D02*
X0529Y0495D01*
X052767D02*
X052633D01*
X0527D01*
Y0499D01*
X052767Y049833D01*
X052433Y0495D02*
X0523D01*
X052367D01*
Y0499D01*
X052433Y049833D01*
X051834Y0495D02*
X0521D01*
X051834Y049767D01*
Y049833D01*
X0519Y0499D01*
X052033D01*
X0521Y049833D01*
X05305Y0311D02*
Y0315D01*
X05285D01*
X052783Y031433D01*
Y0313D01*
X05285Y031233D01*
X05305D01*
X052917D02*
X052783Y0311D01*
X05265D02*
X052517D01*
X052583D01*
Y0315D01*
X05265Y031433D01*
X052317Y0311D02*
X052183D01*
X05225D01*
Y0315D01*
X052317Y031433D01*
X051983Y0311D02*
X05185D01*
X051917D01*
Y0315D01*
X051983Y031433D01*
X053216Y05075D02*
Y05115D01*
X053017D01*
X05295Y051083D01*
Y05095D01*
X053017Y050883D01*
X053216D01*
X053083D02*
X05295Y05075D01*
X052817D02*
X052683D01*
X05275D01*
Y05115D01*
X052817Y051083D01*
X052483Y05075D02*
X05235D01*
X052417D01*
Y05115D01*
X052483Y051083D01*
X05215D02*
X052083Y05115D01*
X05195D01*
X051884Y051083D01*
Y050817D01*
X05195Y05075D01*
X052083D01*
X05215Y050817D01*
Y051083D01*
X05325Y0324D02*
Y0328D01*
X05305D01*
X052983Y032733D01*
Y0326D01*
X05305Y032533D01*
X05325D01*
X053116D02*
X052983Y0324D01*
X05285D02*
X052717D01*
X052783D01*
Y0328D01*
X05285Y032733D01*
X052517D02*
X05245Y0328D01*
X052317D01*
X05225Y032733D01*
Y032467D01*
X052317Y0324D01*
X05245D01*
X052517Y032467D01*
Y032733D01*
X052117Y032467D02*
X05205Y0324D01*
X051917D01*
X05185Y032467D01*
Y032733D01*
X051917Y0328D01*
X05205D01*
X052117Y032733D01*
Y032667D01*
X05205Y0326D01*
X05185D01*
X0533Y0518D02*
Y0522D01*
X0531D01*
X053033Y052133D01*
Y052D01*
X0531Y051933D01*
X0533D01*
X053166D02*
X053033Y0518D01*
X0529D02*
X052767D01*
X052833D01*
Y0522D01*
X0529Y052133D01*
X052567D02*
X0525Y0522D01*
X052367D01*
X0523Y052133D01*
Y051867D01*
X052367Y0518D01*
X0525D01*
X052567Y051867D01*
Y052133D01*
X0519Y0522D02*
X052034Y052133D01*
X052167Y052D01*
Y051867D01*
X0521Y0518D01*
X051967D01*
X0519Y051867D01*
Y051933D01*
X051967Y052D01*
X052167D01*
X05325Y0334D02*
Y0338D01*
X05305D01*
X052983Y033733D01*
Y0336D01*
X05305Y033533D01*
X05325D01*
X053116D02*
X052983Y0334D01*
X05285D02*
X052717D01*
X052783D01*
Y0338D01*
X05285Y033733D01*
X052517D02*
X05245Y0338D01*
X052317D01*
X05225Y033733D01*
Y033467D01*
X052317Y0334D01*
X05245D01*
X052517Y033467D01*
Y033733D01*
X05185Y0338D02*
X052117D01*
Y0336D01*
X051984Y033667D01*
X051917D01*
X05185Y0336D01*
Y033467D01*
X051917Y0334D01*
X05205D01*
X052117Y033467D01*
X0532Y0531D02*
Y0535D01*
X053D01*
X052933Y053433D01*
Y0533D01*
X053Y053233D01*
X0532D01*
X053066D02*
X052933Y0531D01*
X0528D02*
X052667D01*
X052733D01*
Y0535D01*
X0528Y053433D01*
X052467D02*
X0524Y0535D01*
X052267D01*
X0522Y053433D01*
Y053167D01*
X052267Y0531D01*
X0524D01*
X052467Y053167D01*
Y053433D01*
X051867Y0531D02*
Y0535D01*
X052067Y0533D01*
X0518D01*
X05325Y03465D02*
Y03505D01*
X05305D01*
X052983Y034983D01*
Y03485D01*
X05305Y034783D01*
X05325D01*
X053116D02*
X052983Y03465D01*
X05285D02*
X052717D01*
X052783D01*
Y03505D01*
X05285Y034983D01*
X052517D02*
X05245Y03505D01*
X052317D01*
X05225Y034983D01*
Y034717D01*
X052317Y03465D01*
X05245D01*
X052517Y034717D01*
Y034983D01*
X052117D02*
X05205Y03505D01*
X051917D01*
X05185Y034983D01*
Y034917D01*
X051917Y03485D01*
X051984D01*
X051917D01*
X05185Y034783D01*
Y034717D01*
X051917Y03465D01*
X05205D01*
X052117Y034717D01*
X05325Y0541D02*
Y0545D01*
X05305D01*
X052983Y054433D01*
Y0543D01*
X05305Y054233D01*
X05325D01*
X053116D02*
X052983Y0541D01*
X05285D02*
X052717D01*
X052783D01*
Y0545D01*
X05285Y054433D01*
X052517D02*
X05245Y0545D01*
X052317D01*
X05225Y054433D01*
Y054167D01*
X052317Y0541D01*
X05245D01*
X052517Y054167D01*
Y054433D01*
X052117D02*
X05205Y0545D01*
X051917D01*
X05185Y054433D01*
Y054167D01*
X051917Y0541D01*
X05205D01*
X052117Y054167D01*
Y054433D01*
X052883Y0357D02*
Y0361D01*
X052683D01*
X052617Y036033D01*
Y0359D01*
X052683Y035833D01*
X052883D01*
X05275D02*
X052617Y0357D01*
X052483Y035767D02*
X052417Y0357D01*
X052283D01*
X052217Y035767D01*
Y036033D01*
X052283Y0361D01*
X052417D01*
X052483Y036033D01*
Y035967D01*
X052417Y0359D01*
X052217D01*
X052083Y035767D02*
X052017Y0357D01*
X051883D01*
X051817Y035767D01*
Y036033D01*
X051883Y0361D01*
X052017D01*
X052083Y036033D01*
Y035967D01*
X052017Y0359D01*
X051817D01*
X052933Y05535D02*
Y05575D01*
X052733D01*
X052667Y055683D01*
Y05555D01*
X052733Y055483D01*
X052933D01*
X0528D02*
X052667Y05535D01*
X052533Y055417D02*
X052467Y05535D01*
X052333D01*
X052267Y055417D01*
Y055683D01*
X052333Y05575D01*
X052467D01*
X052533Y055683D01*
Y055617D01*
X052467Y05555D01*
X052267D01*
X052133Y055683D02*
X052067Y05575D01*
X051933D01*
X051867Y055683D01*
Y055617D01*
X051933Y05555D01*
X051867Y055483D01*
Y055417D01*
X051933Y05535D01*
X052067D01*
X052133Y055417D01*
Y055483D01*
X052067Y05555D01*
X052133Y055617D01*
Y055683D01*
X052067Y05555D02*
X051933D01*
X052833Y037D02*
Y0374D01*
X052633D01*
X052567Y037333D01*
Y0372D01*
X052633Y037133D01*
X052833D01*
X0527D02*
X052567Y037D01*
X052433Y037067D02*
X052367Y037D01*
X052233D01*
X052167Y037067D01*
Y037333D01*
X052233Y0374D01*
X052367D01*
X052433Y037333D01*
Y037267D01*
X052367Y0372D01*
X052167D01*
X052033Y0374D02*
X051767D01*
Y037333D01*
X052033Y037067D01*
Y037D01*
X052983Y0564D02*
Y0568D01*
X052783D01*
X052717Y056733D01*
Y0566D01*
X052783Y056533D01*
X052983D01*
X05285D02*
X052717Y0564D01*
X052583Y056467D02*
X052517Y0564D01*
X052383D01*
X052317Y056467D01*
Y056733D01*
X052383Y0568D01*
X052517D01*
X052583Y056733D01*
Y056667D01*
X052517Y0566D01*
X052317D01*
X051983Y0564D02*
Y0568D01*
X052183Y0566D01*
X051917D01*
X052883Y038D02*
Y0384D01*
X052683D01*
X052617Y038333D01*
Y0382D01*
X052683Y038133D01*
X052883D01*
X05275D02*
X052617Y038D01*
X052483Y038067D02*
X052417Y038D01*
X052283D01*
X052217Y038067D01*
Y038333D01*
X052283Y0384D01*
X052417D01*
X052483Y038333D01*
Y038267D01*
X052417Y0382D01*
X052217D01*
X052083Y038333D02*
X052017Y0384D01*
X051883D01*
X051817Y038333D01*
Y038267D01*
X051883Y0382D01*
X05195D01*
X051883D01*
X051817Y038133D01*
Y038067D01*
X051883Y038D01*
X052017D01*
X052083Y038067D01*
X053033Y05765D02*
Y05805D01*
X052833D01*
X052767Y057983D01*
Y05785D01*
X052833Y057783D01*
X053033D01*
X0529D02*
X052767Y05765D01*
X052633Y057717D02*
X052567Y05765D01*
X052433D01*
X052367Y057717D01*
Y057983D01*
X052433Y05805D01*
X052567D01*
X052633Y057983D01*
Y057917D01*
X052567Y05785D01*
X052367D01*
X051967Y05765D02*
X052233D01*
X051967Y057917D01*
Y057983D01*
X052033Y05805D01*
X052167D01*
X052233Y057983D01*
X052917Y0393D02*
Y0397D01*
X052717D01*
X05265Y039633D01*
Y0395D01*
X052717Y039433D01*
X052917D01*
X052783D02*
X05265Y0393D01*
X052517Y039367D02*
X05245Y0393D01*
X052317D01*
X05225Y039367D01*
Y039633D01*
X052317Y0397D01*
X05245D01*
X052517Y039633D01*
Y039567D01*
X05245Y0395D01*
X05225D01*
X052117Y0393D02*
X051983D01*
X05205D01*
Y0397D01*
X052117Y039633D01*
X053033Y05865D02*
Y05905D01*
X052833D01*
X052767Y058983D01*
Y05885D01*
X052833Y058783D01*
X053033D01*
X0529D02*
X052767Y05865D01*
X052633Y058983D02*
X052567Y05905D01*
X052433D01*
X052367Y058983D01*
Y058917D01*
X052433Y05885D01*
X052367Y058783D01*
Y058717D01*
X052433Y05865D01*
X052567D01*
X052633Y058717D01*
Y058783D01*
X052567Y05885D01*
X052633Y058917D01*
Y058983D01*
X052567Y05885D02*
X052433D01*
X052233Y058983D02*
X052167Y05905D01*
X052033D01*
X051967Y058983D01*
Y058917D01*
X052033Y05885D01*
X051967Y058783D01*
Y058717D01*
X052033Y05865D01*
X052167D01*
X052233Y058717D01*
Y058783D01*
X052167Y05885D01*
X052233Y058917D01*
Y058983D01*
X052167Y05885D02*
X052033D01*
X052933Y0403D02*
Y0407D01*
X052733D01*
X052667Y040633D01*
Y0405D01*
X052733Y040433D01*
X052933D01*
X0528D02*
X052667Y0403D01*
X052533Y040633D02*
X052467Y0407D01*
X052333D01*
X052267Y040633D01*
Y040567D01*
X052333Y0405D01*
X052267Y040433D01*
Y040367D01*
X052333Y0403D01*
X052467D01*
X052533Y040367D01*
Y040433D01*
X052467Y0405D01*
X052533Y040567D01*
Y040633D01*
X052467Y0405D02*
X052333D01*
X051867Y0407D02*
X052Y040633D01*
X052133Y0405D01*
Y040367D01*
X052067Y0403D01*
X051933D01*
X051867Y040367D01*
Y040433D01*
X051933Y0405D01*
X052133D01*
X053083Y06D02*
Y0604D01*
X052883D01*
X052817Y060333D01*
Y0602D01*
X052883Y060133D01*
X053083D01*
X05295D02*
X052817Y06D01*
X052683Y060333D02*
X052617Y0604D01*
X052483D01*
X052417Y060333D01*
Y060267D01*
X052483Y0602D01*
X052417Y060133D01*
Y060067D01*
X052483Y06D01*
X052617D01*
X052683Y060067D01*
Y060133D01*
X052617Y0602D01*
X052683Y060267D01*
Y060333D01*
X052617Y0602D02*
X052483D01*
X052283Y060333D02*
X052217Y0604D01*
X052083D01*
X052017Y060333D01*
Y060067D01*
X052083Y06D01*
X052217D01*
X052283Y060067D01*
Y060333D01*
X052933Y0416D02*
Y042D01*
X052733D01*
X052667Y041933D01*
Y0418D01*
X052733Y041733D01*
X052933D01*
X0528D02*
X052667Y0416D01*
X052533Y042D02*
X052267D01*
Y041933D01*
X052533Y041667D01*
Y0416D01*
X052133Y041933D02*
X052067Y042D01*
X051933D01*
X051867Y041933D01*
Y041867D01*
X051933Y0418D01*
X051867Y041733D01*
Y041667D01*
X051933Y0416D01*
X052067D01*
X052133Y041667D01*
Y041733D01*
X052067Y0418D01*
X052133Y041867D01*
Y041933D01*
X052067Y0418D02*
X051933D01*
X053133Y0611D02*
Y0615D01*
X052933D01*
X052867Y061433D01*
Y0613D01*
X052933Y061233D01*
X053133D01*
X053D02*
X052867Y0611D01*
X052733Y0615D02*
X052467D01*
Y061433D01*
X052733Y061167D01*
Y0611D01*
X052133D02*
Y0615D01*
X052333Y0613D01*
X052067D01*
X052983Y0426D02*
Y043D01*
X052783D01*
X052717Y042933D01*
Y0428D01*
X052783Y042733D01*
X052983D01*
X05285D02*
X052717Y0426D01*
X052583Y043D02*
X052317D01*
Y042933D01*
X052583Y042667D01*
Y0426D01*
X052183Y042933D02*
X052117Y043D01*
X051983D01*
X051917Y042933D01*
Y042867D01*
X051983Y0428D01*
X05205D01*
X051983D01*
X051917Y042733D01*
Y042667D01*
X051983Y0426D01*
X052117D01*
X052183Y042667D01*
X053033Y02545D02*
Y02585D01*
X052833D01*
X052767Y025783D01*
Y02565D01*
X052833Y025583D01*
X053033D01*
X0529D02*
X052767Y02545D01*
X052633Y02585D02*
X052367D01*
Y025783D01*
X052633Y025517D01*
Y02545D01*
X051967D02*
X052233D01*
X051967Y025717D01*
Y025783D01*
X052033Y02585D01*
X052167D01*
X052233Y025783D01*
X052767Y0232D02*
Y0236D01*
X052567D01*
X0525Y023533D01*
Y0234D01*
X052567Y023333D01*
X052767D01*
X052633D02*
X0525Y0232D01*
X052367Y0236D02*
X0521D01*
Y023533D01*
X052367Y023267D01*
Y0232D01*
X051967D02*
X051833D01*
X0519D01*
Y0236D01*
X051967Y023533D01*
X053133Y0622D02*
Y0626D01*
X052933D01*
X052867Y062533D01*
Y0624D01*
X052933Y062333D01*
X053133D01*
X053D02*
X052867Y0622D01*
X052733Y0626D02*
X052467D01*
Y062533D01*
X052733Y062267D01*
Y0622D01*
X052333Y062533D02*
X052267Y0626D01*
X052133D01*
X052067Y062533D01*
Y062267D01*
X052133Y0622D01*
X052267D01*
X052333Y062267D01*
Y062533D01*
X053033Y0439D02*
Y0443D01*
X052833D01*
X052767Y044233D01*
Y0441D01*
X052833Y044033D01*
X053033D01*
X0529D02*
X052767Y0439D01*
X052367Y0443D02*
X0525Y044233D01*
X052633Y0441D01*
Y043967D01*
X052567Y0439D01*
X052433D01*
X052367Y043967D01*
Y044033D01*
X052433Y0441D01*
X052633D01*
X052233Y043967D02*
X052167Y0439D01*
X052033D01*
X051967Y043967D01*
Y044233D01*
X052033Y0443D01*
X052167D01*
X052233Y044233D01*
Y044167D01*
X052167Y0441D01*
X051967D01*
X052983Y0265D02*
Y0269D01*
X052783D01*
X052717Y026833D01*
Y0267D01*
X052783Y026633D01*
X052983D01*
X05285D02*
X052717Y0265D01*
X052317Y0269D02*
X05245Y026833D01*
X052583Y0267D01*
Y026567D01*
X052517Y0265D01*
X052383D01*
X052317Y026567D01*
Y026633D01*
X052383Y0267D01*
X052583D01*
X051983Y0265D02*
Y0269D01*
X052183Y0267D01*
X051917D01*
X052983Y0242D02*
Y0246D01*
X052783D01*
X052717Y024533D01*
Y0244D01*
X052783Y024333D01*
X052983D01*
X05285D02*
X052717Y0242D01*
X052317Y0246D02*
X05245Y024533D01*
X052583Y0244D01*
Y024267D01*
X052517Y0242D01*
X052383D01*
X052317Y024267D01*
Y024333D01*
X052383Y0244D01*
X052583D01*
X052183Y024533D02*
X052117Y0246D01*
X051983D01*
X051917Y024533D01*
Y024467D01*
X051983Y0244D01*
X05205D01*
X051983D01*
X051917Y024333D01*
Y024267D01*
X051983Y0242D01*
X052117D01*
X052183Y024267D01*
X053083Y0633D02*
Y0637D01*
X052883D01*
X052817Y063633D01*
Y0635D01*
X052883Y063433D01*
X053083D01*
X05295D02*
X052817Y0633D01*
X052417Y0637D02*
X05255Y063633D01*
X052683Y0635D01*
Y063367D01*
X052617Y0633D01*
X052483D01*
X052417Y063367D01*
Y063433D01*
X052483Y0635D01*
X052683D01*
X052017Y0633D02*
X052283D01*
X052017Y063567D01*
Y063633D01*
X052083Y0637D01*
X052217D01*
X052283Y063633D01*
X052867Y0449D02*
Y0453D01*
X052667D01*
X0526Y045233D01*
Y0451D01*
X052667Y045033D01*
X052867D01*
X052733D02*
X0526Y0449D01*
X0522Y0453D02*
X052333Y045233D01*
X052467Y0451D01*
Y044967D01*
X0524Y0449D01*
X052267D01*
X0522Y044967D01*
Y045033D01*
X052267Y0451D01*
X052467D01*
X052067Y0449D02*
X051933D01*
X052D01*
Y0453D01*
X052067Y045233D01*
X012033Y0419D02*
Y0423D01*
X011833D01*
X011767Y042233D01*
Y0421D01*
X011833Y042033D01*
X012033D01*
X0119D02*
X011767Y0419D01*
X011367Y0423D02*
X011633D01*
Y0421D01*
X0115Y042167D01*
X011433D01*
X011367Y0421D01*
Y041967D01*
X011433Y0419D01*
X011567D01*
X011633Y041967D01*
X011233D02*
X011167Y0419D01*
X011033D01*
X010967Y041967D01*
Y042233D01*
X011033Y0423D01*
X011167D01*
X011233Y042233D01*
Y042167D01*
X011167Y0421D01*
X010967D01*
X01746Y01968D02*
Y02008D01*
X01726D01*
X017193Y020013D01*
Y01988D01*
X01726Y019813D01*
X01746D01*
X017327D02*
X017193Y01968D01*
X016794Y02008D02*
X01706D01*
Y01988D01*
X016927Y019947D01*
X01686D01*
X016794Y01988D01*
Y019747D01*
X01686Y01968D01*
X016993D01*
X01706Y019747D01*
X01666Y02008D02*
X016394D01*
Y020013D01*
X01666Y019747D01*
Y01968D01*
X01937Y01886D02*
Y01926D01*
X01917D01*
X019103Y019193D01*
Y01906D01*
X01917Y018993D01*
X01937D01*
X019237D02*
X019103Y01886D01*
X018704Y01926D02*
X01897D01*
Y01906D01*
X018837Y019127D01*
X01877D01*
X018704Y01906D01*
Y018927D01*
X01877Y01886D01*
X018903D01*
X01897Y018927D01*
X018304Y01926D02*
X01857D01*
Y01906D01*
X018437Y019127D01*
X01837D01*
X018304Y01906D01*
Y018927D01*
X01837Y01886D01*
X018504D01*
X01857Y018927D01*
X00973Y03126D02*
Y03166D01*
X00953D01*
X009463Y031593D01*
Y03146D01*
X00953Y031393D01*
X00973D01*
X009597D02*
X009463Y03126D01*
X009064Y03166D02*
X00933D01*
Y03146D01*
X009197Y031527D01*
X00913D01*
X009064Y03146D01*
Y031327D01*
X00913Y03126D01*
X009263D01*
X00933Y031327D01*
X00893Y03126D02*
X008797D01*
X008864D01*
Y03166D01*
X00893Y031593D01*
X012033Y04425D02*
Y04465D01*
X011833D01*
X011767Y044583D01*
Y04445D01*
X011833Y044383D01*
X012033D01*
X0119D02*
X011767Y04425D01*
X011433D02*
Y04465D01*
X011633Y04445D01*
X011367D01*
X011233Y044317D02*
X011167Y04425D01*
X011033D01*
X010967Y044317D01*
Y044583D01*
X011033Y04465D01*
X011167D01*
X011233Y044583D01*
Y044517D01*
X011167Y04445D01*
X010967D01*
X02056Y01967D02*
Y02007D01*
X02036D01*
X020293Y020003D01*
Y01987D01*
X02036Y019803D01*
X02056D01*
X020427D02*
X020293Y01967D01*
X01996D02*
Y02007D01*
X02016Y01987D01*
X019894D01*
X01956Y01967D02*
Y02007D01*
X01976Y01987D01*
X019494D01*
X00973Y03586D02*
Y03626D01*
X00953D01*
X009463Y036193D01*
Y03606D01*
X00953Y035993D01*
X00973D01*
X009597D02*
X009463Y03586D01*
X00913D02*
Y03626D01*
X00933Y03606D01*
X009064D01*
X00893Y036193D02*
X008864Y03626D01*
X00873D01*
X008664Y036193D01*
Y035927D01*
X00873Y03586D01*
X008864D01*
X00893Y035927D01*
Y036193D01*
X012033Y04655D02*
Y04695D01*
X011833D01*
X011767Y046883D01*
Y04675D01*
X011833Y046683D01*
X012033D01*
X0119D02*
X011767Y04655D01*
X011633Y046883D02*
X011567Y04695D01*
X011433D01*
X011367Y046883D01*
Y046817D01*
X011433Y04675D01*
X0115D01*
X011433D01*
X011367Y046683D01*
Y046617D01*
X011433Y04655D01*
X011567D01*
X011633Y046617D01*
X011233D02*
X011167Y04655D01*
X011033D01*
X010967Y046617D01*
Y046883D01*
X011033Y04695D01*
X011167D01*
X011233Y046883D01*
Y046817D01*
X011167Y04675D01*
X010967D01*
X00973Y03816D02*
Y03856D01*
X00953D01*
X009463Y038493D01*
Y03836D01*
X00953Y038293D01*
X00973D01*
X009597D02*
X009463Y03816D01*
X009064D02*
X00933D01*
X009064Y038427D01*
Y038493D01*
X00913Y03856D01*
X009263D01*
X00933Y038493D01*
X00893Y038227D02*
X008864Y03816D01*
X00873D01*
X008664Y038227D01*
Y038493D01*
X00873Y03856D01*
X008864D01*
X00893Y038493D01*
Y038427D01*
X008864Y03836D01*
X008664D01*
X012033Y0489D02*
Y0493D01*
X011833D01*
X011767Y049233D01*
Y0491D01*
X011833Y049033D01*
X012033D01*
X0119D02*
X011767Y0489D01*
X011367D02*
X011633D01*
X011367Y049167D01*
Y049233D01*
X011433Y0493D01*
X011567D01*
X011633Y049233D01*
X011233Y0493D02*
X010967D01*
Y049233D01*
X011233Y048967D01*
Y0489D01*
X01195Y05115D02*
Y05155D01*
X01175D01*
X011683Y051483D01*
Y05135D01*
X01175Y051283D01*
X01195D01*
X011817D02*
X011683Y05115D01*
X01155D02*
X011417D01*
X011483D01*
Y05155D01*
X01155Y051483D01*
X011217Y05155D02*
X01095D01*
Y051483D01*
X011217Y051217D01*
Y05115D01*
X00973Y04042D02*
Y04082D01*
X00953D01*
X009463Y040753D01*
Y04062D01*
X00953Y040553D01*
X00973D01*
X009597D02*
X009463Y04042D01*
X00933D02*
X009197D01*
X009263D01*
Y04082D01*
X00933Y040753D01*
X00873Y04082D02*
X008864Y040753D01*
X008997Y04062D01*
Y040487D01*
X00893Y04042D01*
X008797D01*
X00873Y040487D01*
Y040553D01*
X008797Y04062D01*
X008997D01*
X011783Y0534D02*
Y0538D01*
X011583D01*
X011517Y053733D01*
Y0536D01*
X011583Y053533D01*
X011783D01*
X01165D02*
X011517Y0534D01*
X011117Y0538D02*
X01125Y053733D01*
X011383Y0536D01*
Y053467D01*
X011317Y0534D01*
X011183D01*
X011117Y053467D01*
Y053533D01*
X011183Y0536D01*
X011383D01*
X011733Y0557D02*
Y0561D01*
X011533D01*
X011467Y056033D01*
Y0559D01*
X011533Y055833D01*
X011733D01*
X0116D02*
X011467Y0557D01*
X011333Y056033D02*
X011267Y0561D01*
X011133D01*
X011067Y056033D01*
Y055967D01*
X011133Y0559D01*
X0112D01*
X011133D01*
X011067Y055833D01*
Y055767D01*
X011133Y0557D01*
X011267D01*
X011333Y055767D01*
X027793Y015553D02*
X02786Y01562D01*
X027993D01*
X02806Y015553D01*
Y015287D01*
X027993Y01522D01*
X02786D01*
X027793Y015287D01*
X02766Y015553D02*
X027593Y01562D01*
X02746D01*
X027394Y015553D01*
Y015487D01*
X02746Y01542D01*
X027527D01*
X02746D01*
X027394Y015353D01*
Y015287D01*
X02746Y01522D01*
X027593D01*
X02766Y015287D01*
X02726Y015553D02*
X027194Y01562D01*
X02706D01*
X026994Y015553D01*
Y015487D01*
X02706Y01542D01*
X026994Y015353D01*
Y015287D01*
X02706Y01522D01*
X027194D01*
X02726Y015287D01*
Y015353D01*
X027194Y01542D01*
X02726Y015487D01*
Y015553D01*
X027194Y01542D02*
X02706D01*
X030383Y046513D02*
X03045Y04658D01*
X030583D01*
X03065Y046513D01*
Y046247D01*
X030583Y04618D01*
X03045D01*
X030383Y046247D01*
X03025Y046513D02*
X030183Y04658D01*
X03005D01*
X029984Y046513D01*
Y046447D01*
X03005Y04638D01*
X030117D01*
X03005D01*
X029984Y046313D01*
Y046247D01*
X03005Y04618D01*
X030183D01*
X03025Y046247D01*
X029584Y04658D02*
X029717Y046513D01*
X02985Y04638D01*
Y046247D01*
X029784Y04618D01*
X02965D01*
X029584Y046247D01*
Y046313D01*
X02965Y04638D01*
X02985D01*
X030383Y044913D02*
X03045Y04498D01*
X030583D01*
X03065Y044913D01*
Y044647D01*
X030583Y04458D01*
X03045D01*
X030383Y044647D01*
X03025Y044913D02*
X030183Y04498D01*
X03005D01*
X029984Y044913D01*
Y044847D01*
X03005Y04478D01*
X030117D01*
X03005D01*
X029984Y044713D01*
Y044647D01*
X03005Y04458D01*
X030183D01*
X03025Y044647D01*
X029584Y04498D02*
X02985D01*
Y04478D01*
X029717Y044847D01*
X02965D01*
X029584Y04478D01*
Y044647D01*
X02965Y04458D01*
X029784D01*
X02985Y044647D01*
X030673Y043333D02*
X03074Y0434D01*
X030873D01*
X03094Y043333D01*
Y043067D01*
X030873Y043D01*
X03074D01*
X030673Y043067D01*
X03054Y043333D02*
X030473Y0434D01*
X03034D01*
X030274Y043333D01*
Y043267D01*
X03034Y0432D01*
X030407D01*
X03034D01*
X030274Y043133D01*
Y043067D01*
X03034Y043D01*
X030473D01*
X03054Y043067D01*
X03014Y043333D02*
X030074Y0434D01*
X02994D01*
X029874Y043333D01*
Y043267D01*
X02994Y0432D01*
X030007D01*
X02994D01*
X029874Y043133D01*
Y043067D01*
X02994Y043D01*
X030074D01*
X03014Y043067D01*
X033993Y047053D02*
X03406Y04712D01*
X034193D01*
X03426Y047053D01*
Y046787D01*
X034193Y04672D01*
X03406D01*
X033993Y046787D01*
X03386Y047053D02*
X033793Y04712D01*
X03366D01*
X033594Y047053D01*
Y046987D01*
X03366Y04692D01*
X033727D01*
X03366D01*
X033594Y046853D01*
Y046787D01*
X03366Y04672D01*
X033793D01*
X03386Y046787D01*
X033194Y04672D02*
X03346D01*
X033194Y046987D01*
Y047053D01*
X03326Y04712D01*
X033394D01*
X03346Y047053D01*
X052353Y016893D02*
X05242Y01696D01*
X052553D01*
X05262Y016893D01*
Y016627D01*
X052553Y01656D01*
X05242D01*
X052353Y016627D01*
X05222Y016893D02*
X052153Y01696D01*
X05202D01*
X051954Y016893D01*
Y016827D01*
X05202Y01676D01*
X052087D01*
X05202D01*
X051954Y016693D01*
Y016627D01*
X05202Y01656D01*
X052153D01*
X05222Y016627D01*
X05182Y016893D02*
X051754Y01696D01*
X05162D01*
X051554Y016893D01*
Y016627D01*
X05162Y01656D01*
X051754D01*
X05182Y016627D01*
Y016893D01*
X053917Y015983D02*
X053983Y01605D01*
X054117D01*
X054183Y015983D01*
Y015717D01*
X054117Y01565D01*
X053983D01*
X053917Y015717D01*
X053517Y01565D02*
X053783D01*
X053517Y015917D01*
Y015983D01*
X053583Y01605D01*
X053717D01*
X053783Y015983D01*
X053383Y015717D02*
X053317Y01565D01*
X053183D01*
X053117Y015717D01*
Y015983D01*
X053183Y01605D01*
X053317D01*
X053383Y015983D01*
Y015917D01*
X053317Y01585D01*
X053117D01*
X048853Y016893D02*
X04892Y01696D01*
X049053D01*
X04912Y016893D01*
Y016627D01*
X049053Y01656D01*
X04892D01*
X048853Y016627D01*
X048454Y01656D02*
X04872D01*
X048454Y016827D01*
Y016893D01*
X04852Y01696D01*
X048653D01*
X04872Y016893D01*
X04832D02*
X048254Y01696D01*
X04812D01*
X048054Y016893D01*
Y016827D01*
X04812Y01676D01*
X048054Y016693D01*
Y016627D01*
X04812Y01656D01*
X048254D01*
X04832Y016627D01*
Y016693D01*
X048254Y01676D01*
X04832Y016827D01*
Y016893D01*
X048254Y01676D02*
X04812D01*
X050317Y015983D02*
X050383Y01605D01*
X050517D01*
X050583Y015983D01*
Y015717D01*
X050517Y01565D01*
X050383D01*
X050317Y015717D01*
X049917Y01565D02*
X050183D01*
X049917Y015917D01*
Y015983D01*
X049983Y01605D01*
X050117D01*
X050183Y015983D01*
X049783Y01605D02*
X049517D01*
Y015983D01*
X049783Y015717D01*
Y01565D01*
X046467Y015883D02*
X046533Y01595D01*
X046667D01*
X046733Y015883D01*
Y015617D01*
X046667Y01555D01*
X046533D01*
X046467Y015617D01*
X046067Y01555D02*
X046333D01*
X046067Y015817D01*
Y015883D01*
X046133Y01595D01*
X046267D01*
X046333Y015883D01*
X045667Y01595D02*
X0458Y015883D01*
X045933Y01575D01*
Y015617D01*
X045867Y01555D01*
X045733D01*
X045667Y015617D01*
Y015683D01*
X045733Y01575D01*
X045933D01*
X033503Y043333D02*
X03357Y0434D01*
X033703D01*
X03377Y043333D01*
Y043067D01*
X033703Y043D01*
X03357D01*
X033503Y043067D01*
X033104Y043D02*
X03337D01*
X033104Y043267D01*
Y043333D01*
X03317Y0434D01*
X033303D01*
X03337Y043333D01*
X032704Y0434D02*
X03297D01*
Y0432D01*
X032837Y043267D01*
X03277D01*
X032704Y0432D01*
Y043067D01*
X03277Y043D01*
X032904D01*
X03297Y043067D01*
X040113Y015293D02*
X04018Y01536D01*
X040313D01*
X04038Y015293D01*
Y015027D01*
X040313Y01496D01*
X04018D01*
X040113Y015027D01*
X039714Y01496D02*
X03998D01*
X039714Y015227D01*
Y015293D01*
X03978Y01536D01*
X039913D01*
X03998Y015293D01*
X039314Y01496D02*
X03958D01*
X039314Y015227D01*
Y015293D01*
X03938Y01536D01*
X039514D01*
X03958Y015293D01*
X049883Y021633D02*
X04995Y0217D01*
X050083D01*
X05015Y021633D01*
Y021367D01*
X050083Y0213D01*
X04995D01*
X049883Y021367D01*
X04975Y0213D02*
X049617D01*
X049683D01*
Y0217D01*
X04975Y021633D01*
X04915Y0213D02*
X049417D01*
X04915Y021567D01*
Y021633D01*
X049217Y0217D01*
X04935D01*
X049417Y021633D01*
X012933Y021653D02*
X013Y02172D01*
X013133D01*
X0132Y021653D01*
Y021387D01*
X013133Y02132D01*
X013D01*
X012933Y021387D01*
X0128Y02132D02*
X012667D01*
X012733D01*
Y02172D01*
X0128Y021653D01*
X012467Y02132D02*
X012334D01*
X0124D01*
Y02172D01*
X012467Y021653D01*
X012993Y024453D02*
X01306Y02452D01*
X013193D01*
X01326Y024453D01*
Y024187D01*
X013193Y02412D01*
X01306D01*
X012993Y024187D01*
X01286Y02412D02*
X012727D01*
X012793D01*
Y02452D01*
X01286Y024453D01*
X012527D02*
X01246Y02452D01*
X012327D01*
X01226Y024453D01*
Y024187D01*
X012327Y02412D01*
X01246D01*
X012527Y024187D01*
Y024453D01*
X012933Y027253D02*
X013Y02732D01*
X013133D01*
X0132Y027253D01*
Y026987D01*
X013133Y02692D01*
X013D01*
X012933Y026987D01*
X0128D02*
X012733Y02692D01*
X0126D01*
X012534Y026987D01*
Y027253D01*
X0126Y02732D01*
X012733D01*
X0128Y027253D01*
Y027187D01*
X012733Y02712D01*
X012534D01*
X012933Y030113D02*
X013Y03018D01*
X013133D01*
X0132Y030113D01*
Y029847D01*
X013133Y02978D01*
X013D01*
X012933Y029847D01*
X0128Y030113D02*
X012733Y03018D01*
X0126D01*
X012534Y030113D01*
Y030047D01*
X0126Y02998D01*
X012534Y029913D01*
Y029847D01*
X0126Y02978D01*
X012733D01*
X0128Y029847D01*
Y029913D01*
X012733Y02998D01*
X0128Y030047D01*
Y030113D01*
X012733Y02998D02*
X0126D01*
X027233Y065553D02*
X0273Y06562D01*
X027433D01*
X0275Y065553D01*
Y065287D01*
X027433Y06522D01*
X0273D01*
X027233Y065287D01*
X026834Y06562D02*
X0271D01*
Y06542D01*
X026967Y065487D01*
X0269D01*
X026834Y06542D01*
Y065287D01*
X0269Y06522D01*
X027033D01*
X0271Y065287D01*
X015744Y061125D02*
X01581Y061058D01*
Y060925D01*
X015744Y060858D01*
X015477D01*
X01541Y060925D01*
Y061058D01*
X015477Y061125D01*
X015744Y061258D02*
X01581Y061325D01*
Y061458D01*
X015744Y061524D01*
X015677D01*
X01561Y061458D01*
Y061391D01*
Y061458D01*
X015544Y061524D01*
X015477D01*
X01541Y061458D01*
Y061325D01*
X015477Y061258D01*
D19*
X01175Y04078D02*
Y04112D01*
X01125Y04078D02*
Y04112D01*
X01175Y04308D02*
Y04342D01*
X01125Y04308D02*
Y04342D01*
X01176Y04543D02*
Y04577D01*
X01126Y04543D02*
Y04577D01*
X01175Y05233D02*
Y05267D01*
X01125Y05233D02*
Y05267D01*
X01175Y05458D02*
Y05492D01*
X01125Y05458D02*
Y05492D01*
X05078Y01495D02*
X05112D01*
X05078Y01445D02*
X05112D01*
X04833Y014984D02*
X04867D01*
X04833Y014484D02*
X04867D01*
X04705Y01538D02*
Y01572D01*
X04755Y01538D02*
Y01572D01*
X05055Y02133D02*
Y02167D01*
X05105Y02133D02*
Y02167D01*
X04933Y02315D02*
X04967D01*
X04933Y02365D02*
X04967D01*
X04973Y02465D02*
X05007D01*
X04973Y02415D02*
X05007D01*
X04933Y02545D02*
X04967D01*
X04933Y02595D02*
X04967D01*
X04973Y026934D02*
X05007D01*
X04973Y026434D02*
X05007D01*
X04933Y02775D02*
X04967D01*
X04933Y02825D02*
X04967D01*
X04973Y02925D02*
X05007D01*
X04973Y02875D02*
X05007D01*
X04933Y03005D02*
X04967D01*
X04933Y03055D02*
X04967D01*
X04973Y03155D02*
X05007D01*
X04973Y03105D02*
X05007D01*
X04933Y03235D02*
X04967D01*
X04933Y03285D02*
X04967D01*
X04973Y03385D02*
X05007D01*
X04973Y03335D02*
X05007D01*
X04933Y03465D02*
X04967D01*
X04933Y03515D02*
X04967D01*
X04973Y03615D02*
X05007D01*
X04973Y03565D02*
X05007D01*
X04933Y03695D02*
X04967D01*
X04933Y03745D02*
X04967D01*
X04973Y03845D02*
X05007D01*
X04973Y03795D02*
X05007D01*
X04933Y03925D02*
X04967D01*
X04933Y03975D02*
X04967D01*
X04973Y04075D02*
X05007D01*
X04973Y04025D02*
X05007D01*
X04933Y04155D02*
X04967D01*
X04933Y04205D02*
X04967D01*
X04973Y04305D02*
X05007D01*
X04973Y04255D02*
X05007D01*
X04933Y04385D02*
X04967D01*
X04933Y04435D02*
X04967D01*
X04973Y04535D02*
X05007D01*
X04973Y04485D02*
X05007D01*
X04933Y04615D02*
X04967D01*
X04933Y04665D02*
X04967D01*
X04973Y04765D02*
X05007D01*
X04973Y04715D02*
X05007D01*
X04933Y04845D02*
X04967D01*
X04933Y04895D02*
X04967D01*
X04973Y04995D02*
X05007D01*
X04973Y04945D02*
X05007D01*
X04933Y05075D02*
X04967D01*
X04933Y05125D02*
X04967D01*
X04973Y05225D02*
X05007D01*
X04973Y05175D02*
X05007D01*
X04933Y05305D02*
X04967D01*
X04933Y05355D02*
X04967D01*
X04973Y05455D02*
X05007D01*
X04973Y05405D02*
X05007D01*
X04933Y05535D02*
X04967D01*
X04933Y05585D02*
X04967D01*
X04973Y05685D02*
X05007D01*
X04973Y05635D02*
X05007D01*
X04933Y05765D02*
X04967D01*
X04933Y05815D02*
X04967D01*
X04973Y05915D02*
X05007D01*
X04973Y05865D02*
X05007D01*
X04933Y05995D02*
X04967D01*
X04933Y06045D02*
X04967D01*
X04973Y06145D02*
X05007D01*
X04973Y06095D02*
X05007D01*
X04933Y06225D02*
X04967D01*
X04933Y06275D02*
X04967D01*
X04973Y06375D02*
X05007D01*
X04973Y06325D02*
X05007D01*
X00893Y03495D02*
X00927D01*
X00893Y03545D02*
X00927D01*
X033161Y0421D02*
X033501D01*
X033161Y0426D02*
X033501D01*
X01414Y061441D02*
X01448D01*
X01414Y060941D02*
X01448D01*
X0337Y04553D02*
Y04587D01*
X0332Y04553D02*
Y04587D01*
X03033Y0421D02*
X03067D01*
X03033Y0426D02*
X03067D01*
X0296Y04498D02*
Y04532D01*
X0301Y04498D02*
Y04532D01*
X0296Y04338D02*
Y04372D01*
X0301Y04338D02*
Y04372D01*
X027Y06403D02*
Y06437D01*
X0275Y06403D02*
Y06437D01*
X00893Y04D02*
X00927D01*
X00893Y0395D02*
X00927D01*
X02Y03175D02*
X02034D01*
X02Y03125D02*
X02034D01*
X02309Y03175D02*
X02343D01*
X02309Y03125D02*
X02343D01*
X0261Y03175D02*
X02644D01*
X0261Y03125D02*
X02644D01*
X02755Y01403D02*
Y01437D01*
X02805Y01403D02*
Y01437D01*
X02004Y01848D02*
Y01882D01*
X02054Y01848D02*
Y01882D01*
X01858Y01845D02*
X01892D01*
X01858Y01795D02*
X01892D01*
X01746Y01848D02*
Y01882D01*
X01696Y01848D02*
Y01882D01*
X01804Y02258D02*
Y02292D01*
X01754Y02258D02*
Y02292D01*
X01856Y02258D02*
Y02292D01*
X01906Y02258D02*
Y02292D01*
X02004Y02258D02*
Y02292D01*
X01954Y02258D02*
Y02292D01*
X03958Y01405D02*
X03992D01*
X03958Y01455D02*
X03992D01*
X01858Y02055D02*
X01892D01*
X01858Y02005D02*
X01892D01*
X0132Y02013D02*
Y02047D01*
X0127Y02013D02*
Y02047D01*
X01325Y02293D02*
Y02327D01*
X01275Y02293D02*
Y02327D01*
X0132Y02858D02*
Y02892D01*
X0127Y02858D02*
Y02892D01*
X0132Y02573D02*
Y02607D01*
X0127Y02573D02*
Y02607D01*
X051827Y01615D02*
X052167D01*
X051827Y01565D02*
X052167D01*
X04833D02*
X04867D01*
X04833Y01615D02*
X04867D01*
X01126Y05003D02*
Y05037D01*
X01176Y05003D02*
Y05037D01*
X01126Y04773D02*
Y04807D01*
X01176Y04773D02*
Y04807D01*
X00893Y03085D02*
X00927D01*
X00893Y03035D02*
X00927D01*
X00893Y03775D02*
X00927D01*
X00893Y03725D02*
X00927D01*
M02*
