G04*
G04 #@! TF.GenerationSoftware,Altium Limited,Altium Designer,21.0.8 (223)*
G04*
G04 Layer_Color=128*
%FSTAX24Y24*%
%MOIN*%
G70*
G04*
G04 #@! TF.SameCoordinates,8A4C6F49-4F26-47D5-9FDB-2FD25450CC73*
G04*
G04*
G04 #@! TF.FilePolarity,Positive*
G04*
G01*
G75*
%ADD23R,0.0394X0.0550*%
%ADD25R,0.0550X0.0394*%
D23*
X0505Y0147D02*
D03*
X0514D02*
D03*
X04805Y014734D02*
D03*
X04895D02*
D03*
X04995Y0234D02*
D03*
X04905D02*
D03*
X04945Y0244D02*
D03*
X05035D02*
D03*
X04995Y0257D02*
D03*
X04905D02*
D03*
X04945Y026684D02*
D03*
X05035D02*
D03*
X04995Y028D02*
D03*
X04905D02*
D03*
X04945Y029D02*
D03*
X05035D02*
D03*
X04995Y0303D02*
D03*
X04905D02*
D03*
X04945Y0313D02*
D03*
X05035D02*
D03*
X04995Y0326D02*
D03*
X04905D02*
D03*
X04945Y0336D02*
D03*
X05035D02*
D03*
X04995Y0349D02*
D03*
X04905D02*
D03*
X04945Y0359D02*
D03*
X05035D02*
D03*
X04995Y0372D02*
D03*
X04905D02*
D03*
X04945Y0382D02*
D03*
X05035D02*
D03*
X04995Y0395D02*
D03*
X04905D02*
D03*
X04945Y0405D02*
D03*
X05035D02*
D03*
X04995Y0418D02*
D03*
X04905D02*
D03*
X04945Y0428D02*
D03*
X05035D02*
D03*
X04995Y0441D02*
D03*
X04905D02*
D03*
X04945Y0451D02*
D03*
X05035D02*
D03*
X04995Y0464D02*
D03*
X04905D02*
D03*
X04945Y0474D02*
D03*
X05035D02*
D03*
X04995Y0487D02*
D03*
X04905D02*
D03*
X04945Y0497D02*
D03*
X05035D02*
D03*
X04995Y051D02*
D03*
X04905D02*
D03*
X04945Y052D02*
D03*
X05035D02*
D03*
X04995Y0533D02*
D03*
X04905D02*
D03*
X04945Y0543D02*
D03*
X05035D02*
D03*
X04995Y0556D02*
D03*
X04905D02*
D03*
X04945Y0566D02*
D03*
X05035D02*
D03*
X04995Y0579D02*
D03*
X04905D02*
D03*
X04945Y0589D02*
D03*
X05035D02*
D03*
X04995Y0602D02*
D03*
X04905D02*
D03*
X04945Y0612D02*
D03*
X05035D02*
D03*
X04995Y0625D02*
D03*
X04905D02*
D03*
X04945Y0635D02*
D03*
X05035D02*
D03*
X00955Y0352D02*
D03*
X00865D02*
D03*
X033781Y04235D02*
D03*
X032881D02*
D03*
X01386Y061191D02*
D03*
X01476D02*
D03*
X03095Y04235D02*
D03*
X03005D02*
D03*
X00865Y03975D02*
D03*
X00955D02*
D03*
X01972Y0315D02*
D03*
X02062D02*
D03*
X02281D02*
D03*
X02371D02*
D03*
X02582D02*
D03*
X02672D02*
D03*
X0183Y0182D02*
D03*
X0192D02*
D03*
X0402Y0143D02*
D03*
X0393D02*
D03*
X0183Y0203D02*
D03*
X0192D02*
D03*
X051547Y0159D02*
D03*
X052447D02*
D03*
X04895D02*
D03*
X04805D02*
D03*
X00865Y0306D02*
D03*
X00955D02*
D03*
X00865Y0375D02*
D03*
X00955D02*
D03*
D25*
X0115Y0414D02*
D03*
Y0405D02*
D03*
Y0437D02*
D03*
Y0428D02*
D03*
X01151Y04605D02*
D03*
Y04515D02*
D03*
X0115Y05295D02*
D03*
Y05205D02*
D03*
Y0552D02*
D03*
Y0543D02*
D03*
X0473Y0151D02*
D03*
Y016D02*
D03*
X0508Y02105D02*
D03*
Y02195D02*
D03*
X03345Y04615D02*
D03*
Y04525D02*
D03*
X02985Y0447D02*
D03*
Y0456D02*
D03*
Y0431D02*
D03*
Y044D02*
D03*
X02725Y06375D02*
D03*
Y06465D02*
D03*
X0278Y01375D02*
D03*
Y01465D02*
D03*
X02029Y0182D02*
D03*
Y0191D02*
D03*
X01721Y0191D02*
D03*
Y0182D02*
D03*
X01779Y0232D02*
D03*
Y0223D02*
D03*
X01881Y0223D02*
D03*
Y0232D02*
D03*
X01979Y0232D02*
D03*
Y0223D02*
D03*
X01295Y02075D02*
D03*
Y01985D02*
D03*
X013Y02355D02*
D03*
Y02265D02*
D03*
X01295Y0292D02*
D03*
Y0283D02*
D03*
Y02635D02*
D03*
Y02545D02*
D03*
X01151Y04975D02*
D03*
Y05065D02*
D03*
Y04745D02*
D03*
Y04835D02*
D03*
M02*
