G04*
G04 #@! TF.GenerationSoftware,Altium Limited,Altium Designer,21.0.8 (223)*
G04*
G04 Layer_Color=128*
%FSTAX24Y24*%
%MOIN*%
G70*
G04*
G04 #@! TF.SameCoordinates,8A4C6F49-4F26-47D5-9FDB-2FD25450CC73*
G04*
G04*
G04 #@! TF.FilePolarity,Positive*
G04*
G01*
G75*
%ADD113C,0.0020*%
D113*
X047277Y013799D02*
X047617D01*
X047447Y013629D02*
Y013969D01*
X048277Y013799D02*
X048617D01*
X048447Y013629D02*
Y013969D01*
X049277Y013799D02*
X049617D01*
X049447Y013629D02*
Y013969D01*
X050277Y013799D02*
X050617D01*
X050447Y013629D02*
Y013969D01*
X051277Y013799D02*
X051617D01*
X051447Y013629D02*
Y013969D01*
X052277Y013799D02*
X052617D01*
X052447Y013629D02*
Y013969D01*
X053277Y013799D02*
X053617D01*
X053447Y013629D02*
Y013969D01*
X054277Y013799D02*
X054617D01*
X054447Y013629D02*
Y013969D01*
X054277Y016799D02*
X054617D01*
X054447Y016629D02*
Y016969D01*
X053277Y016799D02*
X053617D01*
X053447Y016629D02*
Y016969D01*
X052277Y016799D02*
X052617D01*
X052447Y016629D02*
Y016969D01*
X051277Y016799D02*
X051617D01*
X051447Y016629D02*
Y016969D01*
X050277Y016799D02*
X050617D01*
X050447Y016629D02*
Y016969D01*
X049277Y016799D02*
X049617D01*
X049447Y016629D02*
Y016969D01*
X048277Y016799D02*
X048617D01*
X048447Y016629D02*
Y016969D01*
X047277Y016799D02*
X047617D01*
X047447Y016629D02*
Y016969D01*
X048045Y0244D02*
X048355D01*
X0482Y024245D02*
Y024555D01*
X048045Y0234D02*
X048355D01*
X0482Y023245D02*
Y023555D01*
X051045Y0234D02*
X051355D01*
X0512Y023245D02*
Y023555D01*
X051045Y0244D02*
X051355D01*
X0512Y024245D02*
Y024555D01*
X048045Y0267D02*
X048355D01*
X0482Y026545D02*
Y026855D01*
X048045Y0257D02*
X048355D01*
X0482Y025545D02*
Y025855D01*
X051045Y0257D02*
X051355D01*
X0512Y025545D02*
Y025855D01*
X051045Y0267D02*
X051355D01*
X0512Y026545D02*
Y026855D01*
X048045Y029D02*
X048355D01*
X0482Y028845D02*
Y029155D01*
X048045Y028D02*
X048355D01*
X0482Y027845D02*
Y028155D01*
X051045Y028D02*
X051355D01*
X0512Y027845D02*
Y028155D01*
X051045Y029D02*
X051355D01*
X0512Y028845D02*
Y029155D01*
X048045Y0313D02*
X048355D01*
X0482Y031145D02*
Y031455D01*
X048045Y0303D02*
X048355D01*
X0482Y030145D02*
Y030455D01*
X051045Y0303D02*
X051355D01*
X0512Y030145D02*
Y030455D01*
X051045Y0313D02*
X051355D01*
X0512Y031145D02*
Y031455D01*
X048045Y0336D02*
X048355D01*
X0482Y033445D02*
Y033755D01*
X048045Y0326D02*
X048355D01*
X0482Y032445D02*
Y032755D01*
X051045Y0326D02*
X051355D01*
X0512Y032445D02*
Y032755D01*
X051045Y0336D02*
X051355D01*
X0512Y033445D02*
Y033755D01*
X048045Y0359D02*
X048355D01*
X0482Y035745D02*
Y036055D01*
X048045Y0349D02*
X048355D01*
X0482Y034745D02*
Y035055D01*
X051045Y0349D02*
X051355D01*
X0512Y034745D02*
Y035055D01*
X051045Y0359D02*
X051355D01*
X0512Y035745D02*
Y036055D01*
X048045Y0382D02*
X048355D01*
X0482Y038045D02*
Y038355D01*
X048045Y0372D02*
X048355D01*
X0482Y037045D02*
Y037355D01*
X051045Y0372D02*
X051355D01*
X0512Y037045D02*
Y037355D01*
X051045Y0382D02*
X051355D01*
X0512Y038045D02*
Y038355D01*
X048045Y0428D02*
X048355D01*
X0482Y042645D02*
Y042955D01*
X048045Y0418D02*
X048355D01*
X0482Y041645D02*
Y041955D01*
X051045Y0418D02*
X051355D01*
X0512Y041645D02*
Y041955D01*
X051045Y0428D02*
X051355D01*
X0512Y042645D02*
Y042955D01*
X048045Y0451D02*
X048355D01*
X0482Y044945D02*
Y045255D01*
X048045Y0441D02*
X048355D01*
X0482Y043945D02*
Y044255D01*
X051045Y0441D02*
X051355D01*
X0512Y043945D02*
Y044255D01*
X051045Y0451D02*
X051355D01*
X0512Y044945D02*
Y045255D01*
X048045Y0474D02*
X048355D01*
X0482Y047245D02*
Y047555D01*
X048045Y0464D02*
X048355D01*
X0482Y046245D02*
Y046555D01*
X051045Y0464D02*
X051355D01*
X0512Y046245D02*
Y046555D01*
X051045Y0474D02*
X051355D01*
X0512Y047245D02*
Y047555D01*
X048045Y0497D02*
X048355D01*
X0482Y049545D02*
Y049855D01*
X048045Y0487D02*
X048355D01*
X0482Y048545D02*
Y048855D01*
X051045Y0487D02*
X051355D01*
X0512Y048545D02*
Y048855D01*
X051045Y0497D02*
X051355D01*
X0512Y049545D02*
Y049855D01*
X048045Y052D02*
X048355D01*
X0482Y051845D02*
Y052155D01*
X048045Y051D02*
X048355D01*
X0482Y050845D02*
Y051155D01*
X051045Y051D02*
X051355D01*
X0512Y050845D02*
Y051155D01*
X051045Y052D02*
X051355D01*
X0512Y051845D02*
Y052155D01*
X048045Y0543D02*
X048355D01*
X0482Y054145D02*
Y054455D01*
X048045Y0533D02*
X048355D01*
X0482Y053145D02*
Y053455D01*
X051045Y0533D02*
X051355D01*
X0512Y053145D02*
Y053455D01*
X051045Y0543D02*
X051355D01*
X0512Y054145D02*
Y054455D01*
X048045Y0566D02*
X048355D01*
X0482Y056445D02*
Y056755D01*
X048045Y0556D02*
X048355D01*
X0482Y055445D02*
Y055755D01*
X051045Y0556D02*
X051355D01*
X0512Y055445D02*
Y055755D01*
X051045Y0566D02*
X051355D01*
X0512Y056445D02*
Y056755D01*
X048045Y0589D02*
X048355D01*
X0482Y058745D02*
Y059055D01*
X048045Y0579D02*
X048355D01*
X0482Y057745D02*
Y058055D01*
X051045Y0579D02*
X051355D01*
X0512Y057745D02*
Y058055D01*
X051045Y0589D02*
X051355D01*
X0512Y058745D02*
Y059055D01*
X048045Y0612D02*
X048355D01*
X0482Y061045D02*
Y061355D01*
X048045Y0602D02*
X048355D01*
X0482Y060045D02*
Y060355D01*
X051045Y0602D02*
X051355D01*
X0512Y060045D02*
Y060355D01*
X051045Y0612D02*
X051355D01*
X0512Y061045D02*
Y061355D01*
X048045Y0635D02*
X048355D01*
X0482Y063345D02*
Y063655D01*
X048045Y0625D02*
X048355D01*
X0482Y062345D02*
Y062655D01*
X051045Y0625D02*
X051355D01*
X0512Y062345D02*
Y062655D01*
X051045Y0635D02*
X051355D01*
X0512Y063345D02*
Y063655D01*
X030724Y01245D02*
X031276D01*
X031Y012174D02*
Y012726D01*
X028724Y01245D02*
X029276D01*
X029Y012174D02*
Y012726D01*
X013145Y05525D02*
X013455D01*
X0133Y055095D02*
Y055405D01*
X013145Y05425D02*
X013455D01*
X0133Y054095D02*
Y054405D01*
X010145Y05425D02*
X010455D01*
X0103Y054095D02*
Y054405D01*
X010145Y05525D02*
X010455D01*
X0103Y055095D02*
Y055405D01*
X010145Y05295D02*
X010455D01*
X0103Y052795D02*
Y053105D01*
X010145Y05195D02*
X010455D01*
X0103Y051795D02*
Y052105D01*
X013145Y05195D02*
X013455D01*
X0133Y051795D02*
Y052105D01*
X013145Y05295D02*
X013455D01*
X0133Y052795D02*
Y053105D01*
X010145Y05065D02*
X010455D01*
X0103Y050495D02*
Y050805D01*
X010145Y04965D02*
X010455D01*
X0103Y049495D02*
Y049805D01*
X013145Y04965D02*
X013455D01*
X0133Y049495D02*
Y049805D01*
X013145Y05065D02*
X013455D01*
X0133Y050495D02*
Y050805D01*
X010145Y04835D02*
X010455D01*
X0103Y048195D02*
Y048505D01*
X010145Y04735D02*
X010455D01*
X0103Y047195D02*
Y047505D01*
X013145Y04735D02*
X013455D01*
X0133Y047195D02*
Y047505D01*
X013145Y04835D02*
X013455D01*
X0133Y048195D02*
Y048505D01*
X010145Y04605D02*
X010455D01*
X0103Y045895D02*
Y046205D01*
X010145Y04505D02*
X010455D01*
X0103Y044895D02*
Y045205D01*
X013145Y04505D02*
X013455D01*
X0133Y044895D02*
Y045205D01*
X013145Y04605D02*
X013455D01*
X0133Y045895D02*
Y046205D01*
X010145Y04375D02*
X010455D01*
X0103Y043595D02*
Y043905D01*
X010145Y04275D02*
X010455D01*
X0103Y042595D02*
Y042905D01*
X013145Y04275D02*
X013455D01*
X0133Y042595D02*
Y042905D01*
X013145Y04375D02*
X013455D01*
X0133Y043595D02*
Y043905D01*
X010145Y04145D02*
X010455D01*
X0103Y041295D02*
Y041605D01*
X010145Y04045D02*
X010455D01*
X0103Y040295D02*
Y040605D01*
X013145Y04045D02*
X013455D01*
X0133Y040295D02*
Y040605D01*
X013145Y04145D02*
X013455D01*
X0133Y041295D02*
Y041605D01*
X013145Y03915D02*
X013455D01*
X0133Y038995D02*
Y039305D01*
X013145Y03815D02*
X013455D01*
X0133Y037995D02*
Y038305D01*
X010145Y03815D02*
X010455D01*
X0103Y037995D02*
Y038305D01*
X010145Y03915D02*
X010455D01*
X0103Y038995D02*
Y039305D01*
X010145Y03685D02*
X010455D01*
X0103Y036695D02*
Y037005D01*
X010145Y03585D02*
X010455D01*
X0103Y035695D02*
Y036005D01*
X013145Y03585D02*
X013455D01*
X0133Y035695D02*
Y036005D01*
X013145Y03685D02*
X013455D01*
X0133Y036695D02*
Y037005D01*
X010145Y03455D02*
X010455D01*
X0103Y034395D02*
Y034705D01*
X010145Y03355D02*
X010455D01*
X0103Y033395D02*
Y033705D01*
X013145Y03355D02*
X013455D01*
X0133Y033395D02*
Y033705D01*
X013145Y03455D02*
X013455D01*
X0133Y034395D02*
Y034705D01*
X013145Y03225D02*
X013455D01*
X0133Y032095D02*
Y032405D01*
X013145Y03125D02*
X013455D01*
X0133Y031095D02*
Y031405D01*
X010145Y03125D02*
X010455D01*
X0103Y031095D02*
Y031405D01*
X010145Y03225D02*
X010455D01*
X0103Y032095D02*
Y032405D01*
X010595Y0159D02*
X010905D01*
X01075Y015745D02*
Y016055D01*
X010595Y0149D02*
X010905D01*
X01075Y014745D02*
Y015055D01*
X013595Y0149D02*
X013905D01*
X01375Y014745D02*
Y015055D01*
X013595Y0159D02*
X013905D01*
X01375Y015745D02*
Y016055D01*
X010595Y0183D02*
X010905D01*
X01075Y018145D02*
Y018455D01*
X010595Y0173D02*
X010905D01*
X01075Y017145D02*
Y017455D01*
X013595Y0173D02*
X013905D01*
X01375Y017145D02*
Y017455D01*
X013595Y0183D02*
X013905D01*
X01375Y018145D02*
Y018455D01*
X010595Y013525D02*
X010905D01*
X01075Y01337D02*
Y01368D01*
X010595Y012525D02*
X010905D01*
X01075Y01237D02*
Y01268D01*
X013595Y012525D02*
X013905D01*
X01375Y01237D02*
Y01268D01*
X013595Y013525D02*
X013905D01*
X01375Y01337D02*
Y01368D01*
X005924Y05085D02*
X006476D01*
X0062Y050574D02*
Y051126D01*
X005924Y04885D02*
X006476D01*
X0062Y048574D02*
Y049126D01*
X005924Y04485D02*
X006476D01*
X0062Y044574D02*
Y045126D01*
X005924Y04685D02*
X006476D01*
X0062Y046574D02*
Y047126D01*
X005924Y05285D02*
X006476D01*
X0062Y052574D02*
Y053126D01*
X005924Y03475D02*
X006476D01*
X0062Y034474D02*
Y035026D01*
X005924Y03275D02*
X006476D01*
X0062Y032474D02*
Y033026D01*
X005924Y02875D02*
X006476D01*
X0062Y028474D02*
Y029026D01*
X005924Y03075D02*
X006476D01*
X0062Y030474D02*
Y031026D01*
X005924Y03875D02*
X006476D01*
X0062Y038474D02*
Y039026D01*
X005924Y03675D02*
X006476D01*
X0062Y036474D02*
Y037026D01*
X005924Y04075D02*
X006476D01*
X0062Y040474D02*
Y041026D01*
X005924Y04275D02*
X006476D01*
X0062Y042474D02*
Y043026D01*
X005924Y01865D02*
X006476D01*
X0062Y018374D02*
Y018926D01*
X005924Y01665D02*
X006476D01*
X0062Y016374D02*
Y016926D01*
X005924Y01265D02*
X006476D01*
X0062Y012374D02*
Y012926D01*
X005924Y01465D02*
X006476D01*
X0062Y014374D02*
Y014926D01*
X005924Y02265D02*
X006476D01*
X0062Y022374D02*
Y022926D01*
X005924Y02065D02*
X006476D01*
X0062Y020374D02*
Y020926D01*
X005924Y02465D02*
X006476D01*
X0062Y024374D02*
Y024926D01*
X005924Y02665D02*
X006476D01*
X0062Y026374D02*
Y026926D01*
X039561Y01165D02*
X040061D01*
X039811Y0114D02*
Y0119D01*
X0409Y01165D02*
X0414D01*
X04115Y0114D02*
Y0119D01*
X038892Y013225D02*
X039392D01*
X039142Y012975D02*
Y013475D01*
X040231Y013225D02*
X040731D01*
X040481Y012975D02*
Y013475D01*
X041569Y013225D02*
X042069D01*
X041819Y012975D02*
Y013475D01*
X03497Y0162D02*
X03533D01*
X03515Y01602D02*
Y01638D01*
X03597Y0162D02*
X03633D01*
X03615Y01602D02*
Y01638D01*
X025603Y02785D02*
X026037D01*
X02582Y027633D02*
Y028067D01*
X027383Y02785D02*
X027817D01*
X0276Y027633D02*
Y028067D01*
X025603Y03065D02*
X026037D01*
X02582Y030433D02*
Y030867D01*
X027383Y03065D02*
X027817D01*
X0276Y030433D02*
Y030867D01*
X01837Y0562D02*
X01873D01*
X01855Y05602D02*
Y05638D01*
X01837Y0582D02*
X01873D01*
X01855Y05802D02*
Y05838D01*
X02312Y0582D02*
X02348D01*
X0233Y05802D02*
Y05838D01*
X02312Y0562D02*
X02348D01*
X0233Y05602D02*
Y05638D01*
X03627Y063D02*
X03663D01*
X03645Y06282D02*
Y06318D01*
X03627Y065D02*
X03663D01*
X03645Y06482D02*
Y06518D01*
X059088Y009728D02*
X060466D01*
X059777Y009039D02*
Y010417D01*
X059088Y066027D02*
X060466D01*
X059777Y065338D02*
Y066716D01*
X002789Y066027D02*
X004167D01*
X003478Y065338D02*
Y066716D01*
X002789Y009728D02*
X004167D01*
X003478Y009039D02*
Y010417D01*
X02207Y0237D02*
X02243D01*
X02225Y02352D02*
Y02388D01*
X02207Y0247D02*
X02243D01*
X02225Y02452D02*
Y02488D01*
X02107Y0237D02*
X02143D01*
X02125Y02352D02*
Y02388D01*
X02107Y0247D02*
X02143D01*
X02125Y02452D02*
Y02488D01*
X029323Y01965D02*
X029677D01*
X0295Y019473D02*
Y019827D01*
X029323Y02065D02*
X029677D01*
X0295Y020473D02*
Y020827D01*
X029323Y02165D02*
X029677D01*
X0295Y021473D02*
Y021827D01*
X029323Y02265D02*
X029677D01*
X0295Y022473D02*
Y022827D01*
X029323Y02365D02*
X029677D01*
X0295Y023473D02*
Y023827D01*
X029323Y02465D02*
X029677D01*
X0295Y024473D02*
Y024827D01*
X029323Y02565D02*
X029677D01*
X0295Y025473D02*
Y025827D01*
X029323Y02665D02*
X029677D01*
X0295Y026473D02*
Y026827D01*
X036323Y02665D02*
X036677D01*
X0365Y026473D02*
Y026827D01*
X036323Y02565D02*
X036677D01*
X0365Y025473D02*
Y025827D01*
X036323Y02465D02*
X036677D01*
X0365Y024473D02*
Y024827D01*
X036323Y02365D02*
X036677D01*
X0365Y023473D02*
Y023827D01*
X036323Y02265D02*
X036677D01*
X0365Y022473D02*
Y022827D01*
X036323Y02165D02*
X036677D01*
X0365Y021473D02*
Y021827D01*
X036323Y02065D02*
X036677D01*
X0365Y020473D02*
Y020827D01*
X036323Y01965D02*
X036677D01*
X0365Y019473D02*
Y019827D01*
X017924Y0125D02*
X018476D01*
X0182Y012224D02*
Y012776D01*
X015924Y0125D02*
X016476D01*
X0162Y012224D02*
Y012776D01*
X056524Y05505D02*
X057076D01*
X0568Y054774D02*
Y055326D01*
X056524Y06105D02*
X057076D01*
X0568Y060774D02*
Y061326D01*
X056524Y06305D02*
X057076D01*
X0568Y062774D02*
Y063326D01*
X056524Y05905D02*
X057076D01*
X0568Y058774D02*
Y059326D01*
X056524Y05705D02*
X057076D01*
X0568Y056774D02*
Y057326D01*
X056524Y012734D02*
X057076D01*
X0568Y012459D02*
Y01301D01*
X056524Y014734D02*
X057076D01*
X0568Y014459D02*
Y01501D01*
X056524Y018734D02*
X057076D01*
X0568Y018459D02*
Y01901D01*
X056524Y016734D02*
X057076D01*
X0568Y016459D02*
Y01701D01*
X056524Y024734D02*
X057076D01*
X0568Y024459D02*
Y02501D01*
X056524Y026734D02*
X057076D01*
X0568Y026459D02*
Y02701D01*
X056524Y022734D02*
X057076D01*
X0568Y022459D02*
Y02301D01*
X056524Y020734D02*
X057076D01*
X0568Y020459D02*
Y02101D01*
X051045Y0405D02*
X051355D01*
X0512Y040345D02*
Y040655D01*
X051045Y0395D02*
X051355D01*
X0512Y039345D02*
Y039655D01*
X048045Y0395D02*
X048355D01*
X0482Y039345D02*
Y039655D01*
X048045Y0405D02*
X048355D01*
X0482Y040345D02*
Y040655D01*
X056524Y028834D02*
X057076D01*
X0568Y028559D02*
Y02911D01*
X056524Y030834D02*
X057076D01*
X0568Y030559D02*
Y03111D01*
X056524Y034834D02*
X057076D01*
X0568Y034559D02*
Y03511D01*
X056524Y032834D02*
X057076D01*
X0568Y032559D02*
Y03311D01*
X056524Y040834D02*
X057076D01*
X0568Y040559D02*
Y04111D01*
X056524Y042834D02*
X057076D01*
X0568Y042559D02*
Y04311D01*
X056524Y038834D02*
X057076D01*
X0568Y038559D02*
Y03911D01*
X056524Y036834D02*
X057076D01*
X0568Y036559D02*
Y03711D01*
X056524Y04495D02*
X057076D01*
X0568Y044674D02*
Y045226D01*
X056524Y05095D02*
X057076D01*
X0568Y050674D02*
Y051226D01*
X056524Y05295D02*
X057076D01*
X0568Y052674D02*
Y053226D01*
X056524Y04895D02*
X057076D01*
X0568Y048674D02*
Y049226D01*
X056524Y04695D02*
X057076D01*
X0568Y046674D02*
Y047226D01*
X053923Y01045D02*
X054277D01*
X0541Y010273D02*
Y010627D01*
X052923Y01045D02*
X053277D01*
X0531Y010273D02*
Y010627D01*
X051923Y01045D02*
X052277D01*
X0521Y010273D02*
Y010627D01*
X050923Y01045D02*
X051277D01*
X0511Y010273D02*
Y010627D01*
X049923Y01045D02*
X050277D01*
X0501Y010273D02*
Y010627D01*
X038484Y0272D02*
X038794D01*
X038639Y027045D02*
Y027355D01*
X038484Y0232D02*
X038794D01*
X038639Y023045D02*
Y023355D01*
X039934Y0272D02*
X040244D01*
X040089Y027045D02*
Y027355D01*
X039934Y0232D02*
X040244D01*
X040089Y023045D02*
Y023355D01*
X00995Y0659D02*
X01045D01*
X0102Y06565D02*
Y06615D01*
X00995Y0574D02*
X01045D01*
X0102Y05715D02*
Y05765D01*
X00995Y0594D02*
X01045D01*
X0102Y05915D02*
Y05965D01*
X00995Y0639D02*
X01045D01*
X0102Y06365D02*
Y06415D01*
X005924Y06295D02*
X006476D01*
X0062Y062674D02*
Y063226D01*
X005924Y05695D02*
X006476D01*
X0062Y056674D02*
Y057226D01*
X005924Y05495D02*
X006476D01*
X0062Y054674D02*
Y055226D01*
X005924Y05895D02*
X006476D01*
X0062Y058674D02*
Y059226D01*
X005924Y06095D02*
X006476D01*
X0062Y060674D02*
Y061226D01*
X01312Y0574D02*
X01348D01*
X0133Y05722D02*
Y05758D01*
X01412Y0574D02*
X01448D01*
X0143Y05722D02*
Y05758D01*
X042309Y0242D02*
X042669D01*
X042489Y02402D02*
Y02438D01*
X041309Y0242D02*
X041669D01*
X041489Y02402D02*
Y02438D01*
X041334Y022D02*
X041644D01*
X041489Y021845D02*
Y022155D01*
X041334Y018D02*
X041644D01*
X041489Y017845D02*
Y018155D01*
X038484Y018D02*
X038794D01*
X038639Y017845D02*
Y018155D01*
X038484Y022D02*
X038794D01*
X038639Y021845D02*
Y022155D01*
X03182Y0145D02*
X03218D01*
X032Y01432D02*
Y01468D01*
X03082Y0145D02*
X03118D01*
X031Y01432D02*
Y01468D01*
X028995Y01645D02*
X029305D01*
X02915Y016295D02*
Y016605D01*
X032995Y01645D02*
X033305D01*
X03315Y016295D02*
Y016605D01*
X043059Y022D02*
X043419D01*
X043239Y02182D02*
Y02218D01*
X043059Y021D02*
X043419D01*
X043239Y02082D02*
Y02118D01*
X040301Y01575D02*
X040661D01*
X040481Y01557D02*
Y01593D01*
X038901Y01575D02*
X039261D01*
X039081Y01557D02*
Y01593D01*
X039934Y018D02*
X040244D01*
X040089Y017845D02*
Y018155D01*
X039934Y022D02*
X040244D01*
X040089Y021845D02*
Y022155D01*
X033695Y01165D02*
X034005D01*
X03385Y011495D02*
Y011805D01*
X037695Y01165D02*
X038005D01*
X03785Y011495D02*
Y011805D01*
X03597Y01355D02*
X03633D01*
X03615Y01337D02*
Y01373D01*
X03497Y01355D02*
X03533D01*
X03515Y01337D02*
Y01373D01*
X032995Y01795D02*
X033305D01*
X03315Y017795D02*
Y018105D01*
X028995Y01795D02*
X029305D01*
X02915Y017795D02*
Y018105D01*
X022373Y05215D02*
X022727D01*
X02255Y051973D02*
Y052327D01*
X021373Y05215D02*
X021727D01*
X02155Y051973D02*
Y052327D01*
X020373Y05215D02*
X020727D01*
X02055Y051973D02*
Y052327D01*
X019373Y05215D02*
X019727D01*
X01955Y051973D02*
Y052327D01*
X018373Y05215D02*
X018727D01*
X01855Y051973D02*
Y052327D01*
X021283Y03065D02*
X021717D01*
X0215Y030433D02*
Y030867D01*
X019503Y03065D02*
X019937D01*
X01972Y030433D02*
Y030867D01*
X021283Y02785D02*
X021717D01*
X0215Y027633D02*
Y028067D01*
X019503Y02785D02*
X019937D01*
X01972Y027633D02*
Y028067D01*
X024373Y03065D02*
X024807D01*
X02459Y030433D02*
Y030867D01*
X022593Y03065D02*
X023027D01*
X02281Y030433D02*
Y030867D01*
X024373Y02785D02*
X024807D01*
X02459Y027633D02*
Y028067D01*
X022593Y02785D02*
X023027D01*
X02281Y027633D02*
Y028067D01*
X027723Y0235D02*
X028077D01*
X0279Y023323D02*
Y023677D01*
X026723Y0235D02*
X027077D01*
X0269Y023323D02*
Y023677D01*
X025723Y0235D02*
X026077D01*
X0259Y023323D02*
Y023677D01*
X024723Y0235D02*
X025077D01*
X0249Y023323D02*
Y023677D01*
X022123Y0185D02*
X022477D01*
X0223Y018323D02*
Y018677D01*
X022123Y0195D02*
X022477D01*
X0223Y019323D02*
Y019677D01*
X022123Y0205D02*
X022477D01*
X0223Y020323D02*
Y020677D01*
X022123Y0215D02*
X022477D01*
X0223Y021323D02*
Y021677D01*
X022123Y0225D02*
X022477D01*
X0223Y022323D02*
Y022677D01*
X008291Y03465D02*
X008409D01*
X00835Y034591D02*
Y034709D01*
X027129Y051666D02*
X027248D01*
X027188Y051607D02*
Y051725D01*
X027141Y05335D02*
X027259D01*
X0272Y053291D02*
Y053409D01*
X025842Y05165D02*
X025961D01*
X025902Y051591D02*
Y051709D01*
X025841Y05335D02*
X025959D01*
X0259Y053291D02*
Y053409D01*
X024777Y051616D02*
X024895D01*
X024836Y051557D02*
Y051675D01*
X024791Y05335D02*
X024909D01*
X02485Y053291D02*
Y053409D01*
X023691Y05165D02*
X023809D01*
X02375Y051591D02*
Y051709D01*
X023691Y0533D02*
X023809D01*
X02375Y053241D02*
Y053359D01*
X046691Y02115D02*
X046809D01*
X04675Y021091D02*
Y021209D01*
X035641Y04475D02*
X035759D01*
X0357Y044691D02*
Y044809D01*
X046691Y02215D02*
X046809D01*
X04675Y022091D02*
Y022209D01*
X036028Y044343D02*
X036146D01*
X036087Y044284D02*
Y044402D01*
X015091Y0203D02*
X015209D01*
X01515Y020241D02*
Y020359D01*
X015877Y020594D02*
X015995D01*
X015936Y020535D02*
Y020653D01*
X025441Y0422D02*
X025559D01*
X0255Y042141D02*
Y042259D01*
X025741Y047D02*
X025859D01*
X0258Y046941D02*
Y047059D01*
X015191Y0233D02*
X015309D01*
X01525Y023241D02*
Y023359D01*
X017041Y0256D02*
X017159D01*
X0171Y025541D02*
Y025659D01*
X015141Y0259D02*
X015259D01*
X0152Y025841D02*
Y025959D01*
X016691Y0251D02*
X016809D01*
X01675Y025041D02*
Y025159D01*
X015037Y028746D02*
X015155D01*
X015096Y028687D02*
Y028805D01*
X031541Y0389D02*
X031659D01*
X0316Y038841D02*
Y038959D01*
X025391Y03525D02*
X025509D01*
X02545Y035191D02*
Y035309D01*
X014991Y0305D02*
X015109D01*
X01505Y030441D02*
Y030559D01*
X022041Y0328D02*
X022159D01*
X0221Y032741D02*
Y032859D01*
X014991Y0328D02*
X015109D01*
X01505Y032741D02*
Y032859D01*
X016041Y0328D02*
X016159D01*
X0161Y032741D02*
Y032859D01*
X014991Y0345D02*
X015109D01*
X01505Y034441D02*
Y034559D01*
X015987Y034519D02*
X016105D01*
X016046Y03446D02*
Y034578D01*
X015041Y0368D02*
X015159D01*
X0151Y036741D02*
Y036859D01*
X015993Y036801D02*
X016111D01*
X016052Y036742D02*
Y03686D01*
X015041Y03915D02*
X015159D01*
X0151Y039091D02*
Y039209D01*
X024891Y0441D02*
X025009D01*
X02495Y044041D02*
Y044159D01*
X015041Y04145D02*
X015159D01*
X0151Y041391D02*
Y041509D01*
X024341Y04455D02*
X024459D01*
X0244Y044491D02*
Y044609D01*
X015041Y0437D02*
X015159D01*
X0151Y043641D02*
Y043759D01*
X023991Y04495D02*
X024109D01*
X02405Y044891D02*
Y045009D01*
X015041Y0461D02*
X015159D01*
X0151Y046041D02*
Y046159D01*
X023491Y0454D02*
X023609D01*
X02355Y045341D02*
Y045459D01*
X023191Y04585D02*
X023309D01*
X02325Y045791D02*
Y045909D01*
X015041Y04825D02*
X015159D01*
X0151Y048191D02*
Y048309D01*
X015041Y0507D02*
X015159D01*
X0151Y050641D02*
Y050759D01*
X019041Y04995D02*
X019159D01*
X0191Y049891D02*
Y050009D01*
X015091Y0529D02*
X015209D01*
X01515Y052841D02*
Y052959D01*
X019041Y05045D02*
X019159D01*
X0191Y050391D02*
Y050509D01*
X017291Y0547D02*
X017409D01*
X01735Y054641D02*
Y054759D01*
X018991Y05095D02*
X019109D01*
X01905Y050891D02*
Y051009D01*
X034491Y04945D02*
X034609D01*
X03455Y049391D02*
Y049509D01*
X035955Y049444D02*
X036073D01*
X036014Y049385D02*
Y049504D01*
X034527Y050228D02*
X034645D01*
X034586Y050169D02*
Y050287D01*
X036041Y0504D02*
X036159D01*
X0361Y050341D02*
Y050459D01*
X034091Y04845D02*
X034209D01*
X03415Y048391D02*
Y048509D01*
X036541Y04935D02*
X036659D01*
X0366Y049291D02*
Y049409D01*
X034555Y048929D02*
X034673D01*
X034614Y04887D02*
Y048988D01*
X035966Y048947D02*
X036084D01*
X036025Y048888D02*
Y049006D01*
X017721Y02178D02*
X017839D01*
X01778Y021721D02*
Y021839D01*
X033441Y0394D02*
X033559D01*
X0335Y039341D02*
Y039459D01*
X019741Y02185D02*
X019859D01*
X0198Y021791D02*
Y021909D01*
X033036Y038875D02*
X033154D01*
X033095Y038816D02*
Y038934D01*
X017391Y02715D02*
X017509D01*
X01745Y027091D02*
Y027209D01*
X019741Y0247D02*
X019859D01*
X0198Y024641D02*
Y024759D01*
X018291Y02865D02*
X018409D01*
X01835Y028591D02*
Y028709D01*
X019741Y0241D02*
X019859D01*
X0198Y024041D02*
Y024159D01*
X023941Y01385D02*
X024059D01*
X024Y013791D02*
Y013909D01*
X023941Y0166D02*
X024059D01*
X024Y016541D02*
Y016659D01*
X033765Y052975D02*
X033883D01*
X033824Y052916D02*
Y053034D01*
X032458Y051702D02*
X032576D01*
X032517Y051643D02*
Y051761D01*
X031641Y05165D02*
X031759D01*
X0317Y051591D02*
Y051709D01*
X033345Y05335D02*
X033464D01*
X033405Y053291D02*
Y053409D01*
X038413Y042412D02*
X038531D01*
X038472Y042353D02*
Y042471D01*
X046286Y028127D02*
X046404D01*
X046345Y028067D02*
Y028186D01*
X044032Y030016D02*
X04415D01*
X044091Y029957D02*
Y030075D01*
X037215Y042399D02*
X037333D01*
X037274Y04234D02*
Y042458D01*
X038409Y042879D02*
X038527D01*
X038468Y04282D02*
Y042938D01*
X046291Y0304D02*
X046409D01*
X04635Y030341D02*
Y030459D01*
X044046Y03208D02*
X044164D01*
X044105Y032021D02*
Y032139D01*
X03721Y042888D02*
X037328D01*
X037269Y042829D02*
Y042947D01*
X03843Y043378D02*
X038548D01*
X038489Y043319D02*
Y043437D01*
X043989Y033872D02*
X044107D01*
X044048Y033813D02*
Y033931D01*
X046291Y0327D02*
X046409D01*
X04635Y032641D02*
Y032759D01*
X037192Y043387D02*
X03731D01*
X037251Y043328D02*
Y043446D01*
X038396Y04395D02*
X038514D01*
X038455Y043891D02*
Y044009D01*
X046341Y035D02*
X046459D01*
X0464Y034941D02*
Y035059D01*
X044011Y035681D02*
X044129D01*
X04407Y035622D02*
Y03574D01*
X037166Y043939D02*
X037284D01*
X037225Y04388D02*
Y043998D01*
X044041Y03725D02*
X044159D01*
X0441Y037191D02*
Y037309D01*
X046291Y03725D02*
X046409D01*
X04635Y037191D02*
Y037309D01*
X03705Y04495D02*
X037168D01*
X037109Y044891D02*
Y045009D01*
X038383Y044969D02*
X038501D01*
X038442Y04491D02*
Y045028D01*
X046341Y0396D02*
X046459D01*
X0464Y039541D02*
Y039659D01*
X043991Y04005D02*
X044109D01*
X04405Y039991D02*
Y040109D01*
X041891Y017D02*
X042009D01*
X04195Y016941D02*
Y017059D01*
X046381Y023474D02*
X046499D01*
X04644Y023415D02*
Y023533D01*
X044034Y026535D02*
X044152D01*
X044093Y026476D02*
Y026594D01*
X038404Y041487D02*
X038522D01*
X038463Y041428D02*
Y041546D01*
X03722Y041507D02*
X037339D01*
X03728Y041448D02*
Y041566D01*
X019563Y034574D02*
X019681D01*
X019622Y034515D02*
Y034633D01*
X026441Y03525D02*
X026559D01*
X0265Y035191D02*
Y035309D01*
X043235Y041902D02*
X043353D01*
X043294Y041843D02*
Y041961D01*
X046291Y0419D02*
X046409D01*
X04635Y041841D02*
Y041959D01*
X033804Y0507D02*
X033923D01*
X033864Y050641D02*
Y050759D01*
X035691Y0511D02*
X035809D01*
X03575Y051041D02*
Y051159D01*
X033491Y0511D02*
X033609D01*
X03355Y051041D02*
Y051159D01*
X035191Y0517D02*
X035309D01*
X03525Y051641D02*
Y051759D01*
X033141Y0515D02*
X033259D01*
X0332Y051441D02*
Y051559D01*
X034239Y052574D02*
X034357D01*
X034298Y052515D02*
Y052633D01*
X038396Y041927D02*
X038514D01*
X038455Y041868D02*
Y041986D01*
X04634Y025793D02*
X046458D01*
X046399Y025734D02*
Y025852D01*
X044037Y028143D02*
X044155D01*
X044096Y028084D02*
Y028202D01*
X037215Y041949D02*
X037333D01*
X037274Y04189D02*
Y042008D01*
X018841Y021908D02*
X018959D01*
X0189Y021849D02*
Y021967D01*
X018841Y0238D02*
X018959D01*
X0189Y023741D02*
Y023859D01*
X032591Y03935D02*
X032709D01*
X03265Y039291D02*
Y039409D01*
X025404Y013382D02*
X025522D01*
X025463Y013322D02*
Y013441D01*
X025691Y01495D02*
X025809D01*
X02575Y014891D02*
Y015009D01*
X025541Y0142D02*
X025659D01*
X0256Y014141D02*
Y014259D01*
X050491Y02265D02*
X050609D01*
X05055Y022591D02*
Y022709D01*
X053041Y0264D02*
X053159D01*
X0531Y026341D02*
Y026459D01*
X053991Y02765D02*
X054109D01*
X05405Y027591D02*
Y027709D01*
X050441Y027425D02*
X050559D01*
X0505Y027366D02*
Y027484D01*
X019391Y0183D02*
X019509D01*
X01945Y018241D02*
Y018359D01*
X018441Y01865D02*
X018559D01*
X0185Y018591D02*
Y018709D01*
X008191Y030725D02*
X008309D01*
X00825Y030666D02*
Y030784D01*
X008491Y0377D02*
X008609D01*
X00855Y037641D02*
Y037759D01*
X008341Y0401D02*
X008459D01*
X0084Y040041D02*
Y040159D01*
X029476Y042035D02*
X029594D01*
X029535Y041976D02*
Y042094D01*
X013865Y060635D02*
X013983D01*
X013924Y060576D02*
Y060694D01*
X029291Y044D02*
X029409D01*
X02935Y043941D02*
Y044059D01*
X029441Y0456D02*
X029559D01*
X0295Y045541D02*
Y045659D01*
X027591Y0638D02*
X027709D01*
X02765Y063741D02*
Y063859D01*
X032841Y042D02*
X032959D01*
X0329Y041941D02*
Y042059D01*
X033791Y04525D02*
X033909D01*
X03385Y045191D02*
Y045309D01*
X012241Y0574D02*
X012359D01*
X0123Y057341D02*
Y057459D01*
X011422Y030719D02*
X01154D01*
X011481Y03066D02*
Y030778D01*
X011399Y027792D02*
X011517D01*
X011458Y027733D02*
Y027851D01*
X011399Y024942D02*
X011517D01*
X011458Y024883D02*
Y025001D01*
X011441Y022134D02*
X011559D01*
X0115Y022075D02*
Y022193D01*
X014588Y060657D02*
X014706D01*
X014647Y060598D02*
Y060716D01*
X030041Y06215D02*
X030159D01*
X0301Y062091D02*
Y062209D01*
X051491Y02195D02*
X051609D01*
X05155Y021891D02*
Y022009D01*
X013423Y020777D02*
X013541D01*
X013482Y020718D02*
Y020836D01*
X013441Y02355D02*
X013559D01*
X0135Y023491D02*
Y023609D01*
X017716Y020275D02*
X017834D01*
X017775Y020216D02*
Y020334D01*
X012291Y0315D02*
X012409D01*
X01235Y031441D02*
Y031559D01*
X013391Y0292D02*
X013509D01*
X01345Y029141D02*
Y029259D01*
X01342Y026386D02*
X013538D01*
X013479Y026326D02*
Y026445D01*
X027722Y064569D02*
X02784D01*
X027781Y06451D02*
Y064628D01*
X015491Y02965D02*
X015609D01*
X01555Y029591D02*
Y029709D01*
X026175Y048902D02*
X026293D01*
X026234Y048843D02*
Y048962D01*
X027741Y0153D02*
X027859D01*
X0278Y015241D02*
Y015359D01*
X026641Y02775D02*
X026759D01*
X0267Y027691D02*
Y027809D01*
X026658Y030728D02*
X026777D01*
X026718Y030669D02*
Y030787D01*
X026902Y04195D02*
X02702D01*
X026961Y041891D02*
Y042009D01*
X030891Y04195D02*
X031009D01*
X03095Y041891D02*
Y042009D01*
X029329Y042788D02*
X029447D01*
X029388Y042729D02*
Y042847D01*
X034041Y0423D02*
X034159D01*
X0341Y042241D02*
Y042359D01*
X029368Y044741D02*
X029486D01*
X029427Y044682D02*
Y0448D01*
X028239Y048902D02*
X028357D01*
X028298Y048843D02*
Y048961D01*
X033791Y04615D02*
X033909D01*
X03385Y046091D02*
Y046209D01*
M02*
