M48
;Layer_Color=9474304
;FILE_FORMAT=2:4
INCH,LZ
;TYPE=PLATED
T1F00S00C0.0118
T2F00S00C0.0310
T3F00S00C0.0340
T4F00S00C0.0354
T5F00S00C0.0360
T6F00S00C0.0433
T7F00S00C0.0500
T8F00S00C0.0551
T9F00S00C0.1378
%
T01
X024Y01385
X025463Y013382
X0256Y0142
X02575Y01495
X0278Y0153
X05055Y02265
X05155Y02195
X0531Y0264
X05405Y02765
X0505Y027425
X046345Y028127
X044096Y028143
X044093Y026535
X046399Y025793
X04644Y023474
X04675Y02215
Y02115
X04195Y017
X044091Y030016
X04635Y0304
X026718Y030728
X0267Y02775
X01835Y02865
X01745Y02715
X0171Y0256
X01675Y0251
X0198Y0247
Y0241
X0189Y0238
Y021908
X0198Y02185
X01778Y02178
X017775Y020275
X015936Y020594
X0185Y01865
X01945Y0183
X024Y0166
X01515Y0203
X013482Y020777
X0135Y02355
X01525Y0233
X0152Y0259
X013479Y026386
X01345Y0292
X015096Y028746
X01555Y02965
X01505Y0305
X011481Y030719
X011458Y027792
Y024942
X0115Y022134
X00825Y030725
X00835Y03465
X00855Y0377
X0084Y0401
X0151Y03915
Y04145
Y0437
Y0461
Y0368
X01505Y0345
Y0328
X01235Y0315
X0161Y0328
X016046Y034519
X016052Y036801
X019622Y034574
X0221Y0328
X02545Y03525
X0265
X026961Y04195
X0255Y0422
X02495Y0441
X0244Y04455
X02405Y04495
X02355Y0454
X02325Y04585
X0295Y0456
X029427Y044741
X02935Y044
X029388Y042788
X029535Y042035
X03095Y04195
X0329Y042
X0341Y0423
X03385Y04525
Y04615
X0357Y04475
X036087Y044343
X037225Y043939
X037251Y043387
X037269Y042888
X037274Y042399
Y041949
X03728Y041507
X038463Y041487
X038455Y041927
X038472Y042412
X038468Y042879
X038489Y043378
X038455Y04395
X038442Y044969
X037109Y04495
X0335Y0394
X03265Y03935
X033095Y038875
X0316Y0389
X04405Y04005
X043294Y041902
X04635Y0419
X0464Y0396
X04635Y03725
X0441
X04407Y035681
X044048Y033872
X044105Y03208
X04635Y0327
X0464Y035
X0366Y04935
X036014Y049444
X036025Y048947
X034614Y048929
X03455Y04945
X034586Y050228
X033864Y0507
X03355Y0511
X0332Y0515
X032517Y051702
X0317Y05165
X033405Y05335
X033824Y052975
X034298Y052574
X03525Y0517
X03575Y0511
X0361Y0504
X03415Y04845
X028298Y048902
X026234Y048902
X0258Y047
X025902Y05165
X024836Y051616
X02375Y05165
Y0533
X02485Y05335
X0259
X0272
X027188Y051666
X01905Y05095
X0191Y05045
Y04995
X01735Y0547
X0301Y06215
X014647Y060657
X013924Y060635
X0123Y0574
X01515Y0529
X0151Y0507
Y04825
X02765Y0638
X027781Y064569
T02
X01075Y012525
Y013525
X01075Y0149
X01375
X01375Y013525
Y012525
X03385Y01165
X03785
X0482Y0234
Y0244
Y0257
Y0267
Y028
Y029
Y0303
X0512
Y029
Y028
Y0267
Y0257
Y0244
Y0234
X041489Y022
X040089
Y0232
X038639
Y022
Y018
X040089
X041489
X03315Y01795
Y01645
X038639Y0272
X040089
X02915Y01795
Y01645
X01375Y0159
X01375Y0173
Y0183
X01075
Y0173
X01075Y0159
X0103Y03125
Y03225
Y03355
Y03455
Y03585
Y03685
Y03815
Y03915
Y04045
Y04145
Y04275
Y04375
Y04505
Y04605
X0133
Y04505
Y04375
Y04275
Y04145
Y04045
Y03915
Y03815
Y03685
Y03585
Y03455
Y03355
Y03225
Y03125
X0482Y0313
Y0326
Y0336
Y0349
Y0359
Y0372
Y0382
Y0395
Y0405
Y0418
Y0428
Y0441
Y0451
Y0464
X0512
Y0451
Y0441
Y0428
Y0418
Y0405
Y0395
Y0382
Y0372
Y0359
Y0349
Y0336
Y0326
Y0313
Y0474
Y0487
Y0497
Y051
Y052
Y0533
Y0543
Y0556
Y0566
Y0579
Y0589
Y0602
Y0612
X0482
Y0602
Y0589
Y0579
Y0566
Y0556
Y0543
Y0533
Y052
Y051
Y0497
Y0487
Y0474
X0133Y04735
Y04835
Y04965
Y05065
Y05195
Y05295
Y05425
Y05525
X0103
Y05425
Y05295
Y05195
Y05065
Y04965
Y04835
Y04735
X0482Y0625
Y0635
X0512
Y0625
T03
X047447Y013799
X048447
X049447
X050447
X051447
X052447
X053447
X054447
Y016799
X053447
X052447
X051447
X050447
X049447
X048447
X047447
T04
X0501Y01045
X0511
X0521
X0531
X0541
X0365Y01965
Y02065
Y02165
Y02265
Y02365
Y02465
Y02565
Y02665
X0295
Y02565
Y02465
Y02365
Y02265
Y02165
Y02065
Y01965
X0279Y0235
X0269
X0259
X0249
X0223Y0225
Y0215
Y0205
Y0195
Y0185
X02255Y05215
X02155
X02055
X01955
X01855
T05
X031Y0145
X032
X03515Y01355
X03615
Y0162
X03515
X039081Y01575
X040481
X043239Y021
Y022
X042489Y0242
X041489
X02225Y0237
Y0247
X02125
Y0237
X0233Y0562
Y0582
X01855
Y0562
X0143Y0574
X0133
X03645Y063
Y065
T06
X01972Y02785
X0215
X02281
X02459
X02582
X0276
Y03065
X02582
X02459
X02281
X0215
X01972
T07
X039811Y01165
X04115
X041819Y013225
X040481
X039142
X0102Y0574
Y0594
Y0639
Y0659
T08
X0062Y01265
Y01465
X0162Y0125
X0182
X029Y01245
X031
X0568Y012734
Y014734
Y016734
Y018734
Y020734
Y022734
Y024734
Y026734
Y028834
Y030834
X0062Y03075
Y02875
Y02665
Y02465
Y02265
Y02065
Y01865
Y01665
Y03275
Y03475
Y03675
Y03875
Y04075
Y04275
Y04485
Y04685
X0568Y04495
Y042834
Y040834
Y038834
Y036834
Y034834
Y032834
Y04695
Y04895
Y05095
Y05295
Y05505
Y05705
Y05905
Y06105
X0062Y06095
Y05895
Y05695
Y05495
Y05285
Y05085
Y04885
Y06295
X0568Y06305
T09
X003478Y009728
X059777
X003478Y066027
X059777
M30
